<svg width="480" height="184" viewBox="0 0 480 184" fill="none" xmlns="http://www.w3.org/2000/svg">
<mask id="path-1-inside-1_1184_2233" fill="white">
<path d="M0 0H480V48H0V0Z"/>
</mask>
<path d="M0 0V1H480V0V-1H0V0ZM480 48V47H0V48V49H480V48Z" fill="#DCDCDC" mask="url(#path-1-inside-1_1184_2233)"/>
<rect x="16" y="12" width="48" height="24" rx="4" fill="#E2F7FF"/>
<path d="M25.8867 19.1641V20.7695H27.9141V19.1641H28.9453V24.1211H24.832V19.1641H25.8867ZM25.8867 23.2188H27.9141V21.6367H25.8867V23.2188ZM33.3398 18.5078V24.8125H32.2852V22.0938H31.0547V24.7422H30.0234V18.6953H31.0547V21.1797H32.2852V18.5078H33.3398ZM33.3398 25.3984V28.9961H32.2383V26.3008H26.2031V25.3984H33.3398ZM37.2539 19.3047C38.5137 19.3047 39.4688 20.1543 39.6445 21.4492H40.6172V18.6836H41.6602V26.0312H40.6172V22.375H39.6328C39.4336 23.623 38.4902 24.4609 37.2539 24.4492C35.8477 24.4609 34.8398 23.3945 34.8516 21.8828C34.8398 20.3477 35.8477 19.3047 37.2539 19.3047ZM37.2539 20.2539C36.4336 20.2539 35.8477 20.9102 35.8477 21.8828C35.8477 22.8555 36.4336 23.5 37.2539 23.5C38.0625 23.5 38.6602 22.8555 38.6719 21.8828C38.6602 20.9102 38.0625 20.2539 37.2539 20.2539ZM43.7109 18.4961V26.3477H42.6562V18.4961H43.7109ZM44.0156 27.8711V28.7734H36.75V25.3281H37.8516V27.8711H44.0156ZM53.6367 23.4766V24.3906H46.3242V19.4336H53.543V20.3477H47.4258V23.4766H53.6367ZM54.7383 26.6875V27.6133H45.1289V26.6875H54.7383Z" fill="#1783C8"/>
<path d="M78.25 18.9844V20.1719H74.4375V22.75H77.625V23.9062H74.4375V26.8438C76.2656 26.8281 77.4609 26.7422 78.9062 26.4844L79.0312 27.6875C77.4219 28.0156 76.0938 28.0469 73.9219 28.0469H73.0156V18.9844H78.25ZM84.5469 17.3281V31.3281H83.1094V17.3281H84.5469ZM81.6562 17.625V30.625H80.25V23.7812H78.3594V22.5781H80.25V17.625H81.6562ZM93.4531 19.3125C93.4531 21.5938 95.8906 23.75 98.5781 24.2344L97.8906 25.4688C95.6562 24.9844 93.5938 23.5156 92.6875 21.5469C91.7656 23.5 89.7109 24.9688 87.4688 25.4688L86.8125 24.2344C89.4688 23.7344 91.8906 21.5938 91.8906 19.3125V18.25H93.4531V19.3125ZM99.1562 28.25V29.4844H86.3438V28.25H99.1562ZM111.531 24.7812V25.9688H101.781V18.4844H111.391V19.6875H103.281V21.5781H111.094V22.75H103.281V24.7812H111.531ZM112.984 28.3438V29.5625H100.172V28.3438H112.984ZM129.938 17.3281V31.3281H128.5V17.3281H129.938ZM127.047 17.625V30.625H125.641V23.8281H122.766V22.5938H125.641V17.625H127.047ZM123.719 19V20.2188H119.859V26.7969C121.695 26.7812 122.93 26.7031 124.375 26.3906L124.5 27.6406C122.891 27.9688 121.516 28.0312 119.328 28.0312H118.406V19H123.719ZM143.328 17.3281V31.3594H141.844V17.3281H143.328ZM135.844 18.375C137.922 18.375 139.453 20.2812 139.453 23.2812C139.453 26.2969 137.922 28.2031 135.844 28.2031C133.734 28.2031 132.219 26.2969 132.219 23.2812C132.219 20.2812 133.734 18.375 135.844 18.375ZM135.844 19.7031C134.547 19.7031 133.656 21.0781 133.656 23.2812C133.656 25.5 134.547 26.875 135.844 26.875C137.125 26.875 138.016 25.5 138.016 23.2812C138.016 21.0781 137.125 19.7031 135.844 19.7031ZM157.234 17.3281V31.3594H155.766V23.7188H152.984V22.5H155.766V17.3281H157.234ZM152.75 18.5781V19.7812H147.703V22.5H152.156V23.6875H147.703V26.8125C150.047 26.8047 151.672 26.75 153.531 26.4219L153.688 27.625C151.656 27.9531 149.891 28.0312 147.297 28.0469H146.203V18.5781H152.75ZM167.578 20.0156C167.578 21.5469 168.562 23.0938 170.375 23.7812L169.594 24.9219C168.289 24.4219 167.375 23.4688 166.875 22.3125C166.359 23.6172 165.398 24.75 164.047 25.3281L163.234 24.1719C165.125 23.3438 166.141 21.5781 166.141 20.0156V18.2031H167.578V20.0156ZM175.234 17.3438V25.9531H173.828V22.2031H172.188V25.5156H170.812V17.5938H172.188V20.9844H173.828V17.3438H175.234ZM170.547 26.2188C173.469 26.2188 175.297 27.1719 175.312 28.7656C175.297 30.3594 173.469 31.3125 170.547 31.2969C167.625 31.3125 165.797 30.3594 165.812 28.7656C165.797 27.1719 167.625 26.2188 170.547 26.2188ZM170.547 27.3594C168.516 27.3594 167.266 27.875 167.281 28.7656C167.266 29.6562 168.516 30.1719 170.547 30.1562C172.578 30.1719 173.812 29.6562 173.828 28.7656C173.812 27.875 172.578 27.3594 170.547 27.3594ZM182.094 19.4219C182.094 21.3906 183.359 23.1406 185.484 23.8281L184.672 24.9844C183.133 24.4297 182 23.3516 181.391 21.9531C180.781 23.5547 179.562 24.7969 177.875 25.4062L177.078 24.2188C179.312 23.4531 180.609 21.5938 180.625 19.4844V18.1094H182.094V19.4219ZM188.797 17.3281V25.5938H187.312V21.3906H184.359V20.1719H187.312V17.3281H188.797ZM184.109 25.9844C187.047 25.9844 188.844 26.9531 188.844 28.6562C188.844 30.3438 187.047 31.3125 184.109 31.2969C181.172 31.3125 179.359 30.3438 179.375 28.6562C179.359 26.9531 181.172 25.9844 184.109 25.9844ZM184.109 27.1406C182.062 27.1406 180.844 27.6875 180.844 28.6562C180.844 29.5938 182.062 30.125 184.109 30.125C186.156 30.125 187.375 29.5938 187.375 28.6562C187.375 27.6875 186.156 27.1406 184.109 27.1406ZM195.703 25.6875C195.719 22.75 196.547 20.2969 198.016 18.2031H199.547C198.469 19.75 197.438 22.9062 197.438 25.6875C197.438 28.4844 198.469 31.625 199.547 33.1875H198.016C196.547 31.0938 195.719 28.6406 195.703 25.6875ZM213.344 25.7656V26.9844H207.688V31.3438H206.219V26.9844H200.578V25.7656H213.344ZM212.125 19.0156V20.2188H207.703C207.789 21.7656 209.898 23.2734 212.562 23.6094L212.031 24.7969C209.781 24.4844 207.867 23.4297 206.969 22C206.055 23.4453 204.125 24.4844 201.875 24.7969L201.328 23.6094C203.992 23.2734 206.117 21.7969 206.219 20.2188H201.781V19.0156H206.219V17.3281H207.688V19.0156H212.125ZM219.312 20.6562C219.312 22.4219 220.625 24.0469 222.781 24.7188L222.062 25.8906C220.453 25.3828 219.234 24.3203 218.609 22.9531C217.984 24.4219 216.773 25.5625 215.125 26.1094L214.406 24.9531C216.547 24.2656 217.844 22.5469 217.844 20.6562V20.3281H214.797V19.125H217.844V17.4219H219.328V19.125H222.359V20.3281H219.312V20.6562ZM226.078 17.3438V27.7656H224.594V22.7812H221.875V21.5781H224.594V17.3438H226.078ZM226.453 29.8281V31.0312H216.984V26.8438H218.469V29.8281H226.453ZM243.141 17.3281V20.25H245.172V21.4844H243.141V24.4062H241.656V17.3281H243.141ZM243.141 25.0469V28.5938H235.578V29.9688H243.625V31.1562H234.125V27.4844H241.672V26.2031H234.094V25.0469H243.141ZM236.031 17.8125C238.156 17.8125 239.703 19.0938 239.703 20.9375C239.703 22.7812 238.156 24.0625 236.031 24.0625C233.906 24.0625 232.344 22.7812 232.359 20.9375C232.344 19.0938 233.906 17.8125 236.031 17.8125ZM236.031 19.0312C234.734 19.0312 233.797 19.7969 233.797 20.9375C233.797 22.0781 234.734 22.875 236.031 22.875C237.312 22.875 238.266 22.0781 238.266 20.9375C238.266 19.7969 237.312 19.0312 236.031 19.0312ZM257.297 18.6719V20.0469C257.297 21.7812 257.297 23.7188 256.766 26.5781L255.266 26.4219C255.812 23.7188 255.812 21.7344 255.812 20.0469V19.875H247.312V18.6719H257.297ZM258.734 28.2031V29.4375H245.969V28.2031H250.828V23.2656H252.297V28.2031H258.734ZM271.422 17.3281V31.3594H269.938V17.3281H271.422ZM267.141 18.5938V23.7031H262.109V26.7656C264.375 26.7578 266.359 26.6562 268.703 26.2656L268.844 27.4844C266.359 27.9062 264.25 28 261.781 28H260.594V22.5156H265.625V19.7969H260.578V18.5938H267.141ZM285.25 17.9219V19.125H281C281.164 20.5078 283.148 21.6641 285.734 21.9062L285.203 23.0781C282.781 22.8203 280.773 21.7969 280.016 20.2969C279.242 21.8047 277.242 22.8203 274.812 23.0781L274.297 21.9062C276.836 21.6641 278.836 20.5078 279.016 19.125H274.797V17.9219H285.25ZM284.828 26.375V31.1562H275.156V26.375H284.828ZM276.625 27.5469V29.9531H283.391V27.5469H276.625ZM286.391 23.8281V25.0156H273.625V23.8281H286.391ZM300.219 24.1562V25.3594H287.453V24.1562H290.516V22.2656C289.438 21.8281 288.828 21.125 288.828 20.2031C288.828 18.5469 290.75 17.5781 293.828 17.5781C296.891 17.5781 298.828 18.5469 298.828 20.2031C298.828 21.125 298.211 21.8359 297.125 22.2656V24.1562H300.219ZM293.828 26.3125C296.844 26.3125 298.656 27.2031 298.656 28.7969C298.656 30.4219 296.844 31.2969 293.828 31.2969C290.781 31.2969 288.969 30.4219 288.969 28.7969C288.969 27.2031 290.781 26.3125 293.828 26.3125ZM293.828 27.4531C291.688 27.4531 290.469 27.9375 290.469 28.7969C290.469 29.6719 291.688 30.1719 293.828 30.1562C295.938 30.1719 297.172 29.6719 297.172 28.7969C297.172 27.9375 295.938 27.4531 293.828 27.4531ZM293.828 18.7188C291.656 18.7188 290.344 19.2656 290.359 20.2031C290.344 21.1406 291.656 21.6719 293.828 21.6719C296 21.6719 297.297 21.1406 297.297 20.2031C297.297 19.2656 296 18.7188 293.828 18.7188ZM292.016 24.1562H295.656V22.6562C295.109 22.75 294.492 22.7969 293.828 22.7969C293.172 22.7969 292.562 22.75 292.016 22.6719V24.1562ZM305.125 25.6875C305.109 28.6406 304.281 31.0938 302.812 33.1875H301.281C302.359 31.625 303.391 28.4844 303.391 25.6875C303.391 22.9062 302.359 19.75 301.281 18.2031H302.812C304.281 20.2969 305.109 22.75 305.125 25.6875Z" fill="#0F0F0F"/>
<path d="M459 19L449 29M449 19L459 29" stroke="#2A2A2A" stroke-width="1.5" stroke-linecap="round" stroke-linejoin="round"/>
<mask id="path-7-inside-2_1184_2233" fill="white">
<path d="M0 48H480V96H0V48Z"/>
</mask>
<path d="M480 96V95H0V96V97H480V96Z" fill="#DCDCDC" mask="url(#path-7-inside-2_1184_2233)"/>
<rect x="16" y="60" width="68" height="24" rx="4" fill="#FFF0E2"/>
<path d="M33.9961 74.7461V75.6836H24.3867V74.7461H33.9961ZM33.1172 67.5039V68.418H31.5117V71.9219H33.082V72.8125H25.2305V71.9219H26.8008V68.418H25.207V67.5039H33.1172ZM27.9023 71.9219H30.4219V68.418H27.9023V71.9219ZM44.3555 72.4258V73.3398H34.7461V72.4258H39V71.3828H35.9766V68.6992H42.0352V67.6797H35.9531V66.8008H43.1484V69.5078H37.0781V70.5273H43.3594V71.3828H40.1016V72.4258H44.3555ZM43.3711 76.0352V76.9375H36V73.9844H37.1133V76.0352H43.3711ZM53.6484 72.0859V72.9766H46.3359V67.3633H53.543V68.2656H47.4609V69.6836H53.3203V70.5625H47.4609V72.0859H53.6484ZM54.7383 74.7578V75.6719H45.1289V74.7578H54.7383ZM57.9961 67.3047C59.2559 67.3047 60.2109 68.1543 60.3867 69.4492H61.3594V66.6836H62.4023V74.0312H61.3594V70.375H60.375C60.1758 71.623 59.2324 72.4609 57.9961 72.4492C56.5898 72.4609 55.582 71.3945 55.5938 69.8828C55.582 68.3477 56.5898 67.3047 57.9961 67.3047ZM57.9961 68.2539C57.1758 68.2539 56.5898 68.9102 56.5898 69.8828C56.5898 70.8555 57.1758 71.5 57.9961 71.5C58.8047 71.5 59.4023 70.8555 59.4141 69.8828C59.4023 68.9102 58.8047 68.2539 57.9961 68.2539ZM64.4531 66.4961V74.3477H63.3984V66.4961H64.4531ZM64.7578 75.8711V76.7734H57.4922V73.3281H58.5938V75.8711H64.7578ZM74.3789 71.4766V72.3906H67.0664V67.4336H74.2852V68.3477H68.168V71.4766H74.3789ZM75.4805 74.6875V75.6133H65.8711V74.6875H75.4805Z" fill="#E56612"/>
<path d="M105.328 76.4062V77.6562H92.5156V76.4062H98.1562V73.9531H94.0781V69.5H102.297V67.5312H94.0469V66.3125H103.766V70.6875H95.5469V72.7344H104.094V73.9531H99.625V76.4062H105.328ZM117.438 66.75V68.25C117.438 70.0625 117.438 72.0312 116.922 75.0156L115.406 74.875C115.969 72.0781 115.969 70.0156 115.969 68.25V67.9688H107.719V66.75H117.438ZM119.109 76.1094V77.3438H106.344V76.1094H119.109ZM131.781 65.3438V75.5156H130.297V65.3438H131.781ZM132.203 77.8281V79.0312H122.625V74.4844H124.125V77.8281H132.203ZM124.188 66.2812C126.297 66.2812 127.906 67.7188 127.906 69.75C127.906 71.8125 126.297 73.2344 124.188 73.2344C122.078 73.2344 120.453 71.8125 120.453 69.75C120.453 67.7188 122.078 66.2812 124.188 66.2812ZM124.188 67.5781C122.875 67.5781 121.906 68.4688 121.906 69.75C121.906 71.0625 122.875 71.9375 124.188 71.9375C125.469 71.9375 126.453 71.0625 126.453 69.75C126.453 68.4688 125.469 67.5781 124.188 67.5781ZM149.5 65.3281V79.3594H148.016V65.3281H149.5ZM142.016 66.375C144.094 66.375 145.625 68.2812 145.625 71.2812C145.625 74.2969 144.094 76.2031 142.016 76.2031C139.906 76.2031 138.391 74.2969 138.391 71.2812C138.391 68.2812 139.906 66.375 142.016 66.375ZM142.016 67.7031C140.719 67.7031 139.828 69.0781 139.828 71.2812C139.828 73.5 140.719 74.875 142.016 74.875C143.297 74.875 144.188 73.5 144.188 71.2812C144.188 69.0781 143.297 67.7031 142.016 67.7031ZM159.078 66.6719V75.875H152.516V66.6719H159.078ZM153.984 67.8438V74.6719H157.641V67.8438H153.984ZM163.328 65.3281V79.3594H161.844V65.3281H163.328ZM170.719 69.4531C170.719 71.7969 172.25 74.2188 174.406 75.1406L173.594 76.2969C171.945 75.5703 170.633 74.0312 169.984 72.1562C169.336 74.1562 168.016 75.8594 166.391 76.6562L165.531 75.4844C167.641 74.5 169.203 71.8594 169.219 69.4531V67.9688H166.016V66.7344H173.906V67.9688H170.719V69.4531ZM177.156 65.3281V79.3281H175.672V65.3281H177.156ZM188.719 72.7656V75.1875C190 75.1172 191.297 75.0078 192.516 74.8281L192.625 75.9219C189.453 76.5 186.062 76.5312 183.562 76.5312L183.375 75.3125C184.5 75.3047 185.828 75.2969 187.234 75.25V72.7656H188.719ZM191.859 67.1094V68.3125H188.719C188.797 69.9531 190.125 71.375 192.219 71.9375L191.531 73.0938C189.859 72.6172 188.609 71.6016 187.984 70.2656C187.367 71.6719 186.141 72.7344 184.453 73.2188L183.75 72.0938C185.836 71.5 187.148 70.0312 187.219 68.3125H184.125V67.1094H187.234V65.4375H188.719V67.1094H191.859ZM194.875 65.3281V79.3594H193.391V65.3281H194.875ZM202.141 67.8125C202.141 69.5781 203.406 71.3125 205.516 72.0312L204.75 73.1875C203.18 72.6406 202.016 71.5234 201.406 70.1406C200.797 71.6797 199.57 72.9141 197.906 73.5L197.141 72.3281C199.297 71.5938 200.625 69.7188 200.625 67.8281V67.4375H197.594V66.2344H205.141V67.4375H202.141V67.8125ZM208.797 74.4062V79.3281H207.312V75.6094H199.312V74.4062H208.797ZM208.797 65.3281V73.7031H207.312V70.1094H204.719V68.8906H207.312V65.3281H208.797ZM221.922 65.3281V71.1875H224.031V72.4375H221.922V79.3281H220.438V65.3281H221.922ZM210.781 75.5156C211.883 75.5156 213.164 75.5156 214.5 75.4688V74.0469C212.922 73.8281 211.891 72.875 211.906 71.5156C211.891 69.9375 213.25 68.8906 215.25 68.8906C217.234 68.8906 218.609 69.9375 218.625 71.5156C218.609 72.875 217.562 73.8359 215.984 74.0625V75.4062C217.227 75.3594 218.477 75.2578 219.641 75.0938L219.734 76.1875C216.703 76.7344 213.422 76.75 211.016 76.75L210.781 75.5156ZM219.438 66.9844V68.1719H211.047V66.9844H214.5V65.3594H215.984V66.9844H219.438ZM215.25 70.0469C214.078 70.0469 213.297 70.625 213.297 71.5156C213.297 72.4062 214.078 72.9531 215.25 72.9531C216.422 72.9531 217.203 72.4062 217.203 71.5156C217.203 70.625 216.422 70.0469 215.25 70.0469Z" fill="#0F0F0F"/>
<path d="M459 67L449 77M449 67L459 77" stroke="#2A2A2A" stroke-width="1.5" stroke-linecap="round" stroke-linejoin="round"/>
<mask id="path-13-inside-3_1184_2233" fill="white">
<path d="M0 96H480V144H0V96Z"/>
</mask>
<path d="M480 144V143H0V144V145H480V144Z" fill="#DCDCDC" mask="url(#path-13-inside-3_1184_2233)"/>
<rect x="16" y="108" width="68" height="24" rx="4" fill="#FFF0E2"/>
<path d="M33.9961 122.746V123.684H24.3867V122.746H33.9961ZM33.1172 115.504V116.418H31.5117V119.922H33.082V120.812H25.2305V119.922H26.8008V116.418H25.207V115.504H33.1172ZM27.9023 119.922H30.4219V116.418H27.9023V119.922ZM44.3555 120.426V121.34H34.7461V120.426H39V119.383H35.9766V116.699H42.0352V115.68H35.9531V114.801H43.1484V117.508H37.0781V118.527H43.3594V119.383H40.1016V120.426H44.3555ZM43.3711 124.035V124.938H36V121.984H37.1133V124.035H43.3711ZM53.6484 120.086V120.977H46.3359V115.363H53.543V116.266H47.4609V117.684H53.3203V118.562H47.4609V120.086H53.6484ZM54.7383 122.758V123.672H45.1289V122.758H54.7383ZM57.9961 115.305C59.2559 115.305 60.2109 116.154 60.3867 117.449H61.3594V114.684H62.4023V122.031H61.3594V118.375H60.375C60.1758 119.623 59.2324 120.461 57.9961 120.449C56.5898 120.461 55.582 119.395 55.5938 117.883C55.582 116.348 56.5898 115.305 57.9961 115.305ZM57.9961 116.254C57.1758 116.254 56.5898 116.91 56.5898 117.883C56.5898 118.855 57.1758 119.5 57.9961 119.5C58.8047 119.5 59.4023 118.855 59.4141 117.883C59.4023 116.91 58.8047 116.254 57.9961 116.254ZM64.4531 114.496V122.348H63.3984V114.496H64.4531ZM64.7578 123.871V124.773H57.4922V121.328H58.5938V123.871H64.7578ZM74.3789 119.477V120.391H67.0664V115.434H74.2852V116.348H68.168V119.477H74.3789ZM75.4805 122.688V123.613H65.8711V122.688H75.4805Z" fill="#E56612"/>
<path d="M105.281 121.766V122.984H99.625V127.344H98.1562V122.984H92.5156V121.766H105.281ZM104.062 115.016V116.219H99.6406C99.7266 117.766 101.836 119.273 104.5 119.609L103.969 120.797C101.719 120.484 99.8047 119.43 98.9062 118C97.9922 119.445 96.0625 120.484 93.8125 120.797L93.2656 119.609C95.9297 119.273 98.0547 117.797 98.1562 116.219H93.7188V115.016H98.1562V113.328H99.625V115.016H104.062ZM111.25 116.656C111.25 118.422 112.562 120.047 114.719 120.719L114 121.891C112.391 121.383 111.172 120.32 110.547 118.953C109.922 120.422 108.711 121.562 107.062 122.109L106.344 120.953C108.484 120.266 109.781 118.547 109.781 116.656V116.328H106.734V115.125H109.781V113.422H111.266V115.125H114.297V116.328H111.25V116.656ZM118.016 113.344V123.766H116.531V118.781H113.812V117.578H116.531V113.344H118.016ZM118.391 125.828V127.031H108.922V122.844H110.406V125.828H118.391ZM135.75 113.328V120.453H134.266V119.109H130.719V117.953H134.266V116.438H130.891C130.023 118.609 127.914 120.039 124.812 120.766L124.297 119.547C127.656 118.805 129.477 117.25 129.719 115.188H125.031V113.969H131.344C131.344 114.422 131.305 114.852 131.234 115.266H134.266V113.328H135.75ZM135.75 121.047V124.594H128.094V126H136.172V127.188H126.625V123.469H134.266V122.219H126.594V121.047H135.75ZM145.703 114.828V115.688C145.703 116.859 145.703 118.672 145.297 121.172L143.828 121.062C144.18 118.82 144.219 117.203 144.234 116.031H138.547V114.828H145.703ZM142.109 118.828V123.016C143.602 122.969 145.117 122.867 146.516 122.688L146.594 123.797C143.672 124.266 140.422 124.328 137.938 124.312L137.766 123.109C138.641 123.102 139.617 123.094 140.641 123.062V118.828H142.109ZM148.812 113.328V119.109H150.953V120.375H148.812V127.328H147.312V113.328H148.812ZM163.547 114.688H165.266V122.125C165.266 124.5 163.484 126.188 160.781 126.188C158.047 126.188 156.281 124.5 156.281 122.125V114.688H158V121.984C158 123.516 159.062 124.625 160.781 124.625C162.484 124.625 163.547 123.516 163.547 121.984V114.688ZM169.297 114.688V126H167.578V114.688H169.297ZM182.141 114.75C182.125 118.875 180.859 122.547 175.75 125.062L174.938 123.953C177.469 122.711 178.977 121.203 179.812 119.422L175.234 119.859L175.016 118.578L180.266 118.219C180.477 117.508 180.602 116.75 180.656 115.953H175.75V114.75H182.141ZM185.766 113.328V118.922H187.938V120.141H185.766V127.312H184.281V113.328H185.766ZM200.031 119.969V121.188H190.281V114.578H199.906V115.797H191.75V119.969H200.031ZM201.5 124.25V125.484H188.688V124.25H201.5ZM214.312 114.797V115.984H206.438V114.797H209.719V113.203H211.188V114.797H214.312ZM210.438 116.625C212.328 116.625 213.656 117.672 213.672 119.234C213.656 120.797 212.328 121.828 210.438 121.828C208.531 121.828 207.219 120.797 207.219 119.234C207.219 117.672 208.531 116.625 210.438 116.625ZM210.438 117.75C209.328 117.75 208.609 118.328 208.609 119.234C208.609 120.141 209.328 120.703 210.438 120.703C211.531 120.703 212.281 120.141 212.297 119.234C212.281 118.328 211.531 117.75 210.438 117.75ZM218.094 113.328V122.344H216.609V120.547H214.344V119.344H216.609V117.797H214.359V116.594H216.609V113.328H218.094ZM213.438 122.484C216.375 122.484 218.172 123.359 218.172 124.891C218.172 126.406 216.375 127.312 213.438 127.297C210.484 127.312 208.688 126.406 208.688 124.891C208.688 123.359 210.484 122.484 213.438 122.484ZM213.438 123.625C211.422 123.625 210.234 124.062 210.234 124.891C210.234 125.703 211.422 126.172 213.438 126.156C215.406 126.172 216.594 125.703 216.594 124.891C216.594 124.062 215.406 123.625 213.438 123.625ZM226.391 114.891V116.078H222.203V118.578H226.156V119.75H222.203V122.703C224.094 122.695 225.344 122.617 226.828 122.375L226.953 123.594C225.312 123.891 223.953 123.953 221.719 123.953H220.781V114.891H226.391ZM232.297 113.328V127.328H230.875V120.094H229.188V126.641H227.766V113.594H229.188V118.891H230.875V113.328H232.297ZM246.891 124.406V125.656H234.078V124.406H239.719V121.953H235.641V117.5H243.859V115.531H235.609V114.312H245.328V118.688H237.109V120.734H245.656V121.953H241.188V124.406H246.891ZM263.484 113.344V123.688H262V120.047H258.938V121.359H252.484V114.266H253.969V116.641H257.469V114.266H258.938V115.828H262V113.344H263.484ZM263.797 125.828V127.031H254.344V122.672H255.844V125.828H263.797ZM253.969 120.156H257.469V117.781H253.969V120.156ZM258.938 118.844H262V117.047H258.938V118.844ZM277.312 113.344V121.625H275.828V119.922H272.297V118.703H275.828V117H272.438C271.539 119.25 269.438 120.836 266.406 121.703L265.812 120.547C269.125 119.594 271.062 117.82 271.328 115.562H266.531V114.344H272.938C272.938 114.859 272.883 115.359 272.797 115.828H275.828V113.344H277.312ZM272.703 121.781C275.531 121.781 277.391 122.812 277.406 124.516C277.391 126.219 275.531 127.266 272.703 127.266C269.828 127.266 267.984 126.219 267.984 124.516C267.984 122.812 269.828 121.781 272.703 121.781ZM272.703 122.953C270.703 122.953 269.453 123.516 269.453 124.516C269.453 125.5 270.703 126.078 272.703 126.078C274.672 126.078 275.906 125.5 275.922 124.516C275.906 123.516 274.672 122.953 272.703 122.953Z" fill="#0F0F0F"/>
<path d="M459 115L449 125M449 115L459 125" stroke="#2A2A2A" stroke-width="1.5" stroke-linecap="round" stroke-linejoin="round"/>
<path d="M26.0003 158.167V169.833M20.167 164H31.8337" stroke="#737373" stroke-width="1.5" stroke-linecap="round" stroke-linejoin="round"/>
<path d="M46.125 170H44.2969L48.3594 158.688H50.3438L54.4219 170H52.5938L51.5625 167.016H47.1562L46.125 170ZM47.6562 165.578H51.0625L49.3906 160.75H49.3125L47.6562 165.578ZM58.75 170.172C56.7031 170.172 55.2031 168.516 55.2031 165.781C55.2031 163.016 56.7188 161.406 58.7656 161.406C60.3438 161.406 60.9219 162.359 61.2188 162.891H61.2969V158.688H62.9688V170H61.3438V168.672H61.2188C60.9062 169.234 60.2969 170.172 58.75 170.172ZM59.125 168.75C60.5469 168.75 61.3438 167.531 61.3438 165.75C61.3438 163.984 60.5625 162.828 59.125 162.828C57.6406 162.828 56.9062 164.078 56.9062 165.75C56.9062 167.453 57.6719 168.75 59.125 168.75ZM68.3125 170.172C66.2656 170.172 64.7656 168.516 64.7656 165.781C64.7656 163.016 66.2812 161.406 68.3281 161.406C69.9062 161.406 70.4844 162.359 70.7812 162.891H70.8594V158.688H72.5312V170H70.9062V168.672H70.7812C70.4688 169.234 69.8594 170.172 68.3125 170.172ZM68.6875 168.75C70.1094 168.75 70.9062 167.531 70.9062 165.75C70.9062 163.984 70.125 162.828 68.6875 162.828C67.2031 162.828 66.4688 164.078 66.4688 165.75C66.4688 167.453 67.2344 168.75 68.6875 168.75Z" fill="#0F0F0F"/>
</svg>
