<svg width="736" height="218" viewBox="0 0 736 218" fill="none" xmlns="http://www.w3.org/2000/svg">
<rect x="0.5" y="0.5" width="735" height="217" rx="7.5" stroke="#DCDCDC"/>
<mask id="path-2-inside-1_1182_2177" fill="white">
<path d="M1 13.8C1 9.31958 1 7.07937 1.87195 5.36808C2.63893 3.86278 3.86278 2.63893 5.36808 1.87195C7.07937 1 9.31958 1 13.8 1H121V37H1V13.8Z"/>
</mask>
<path d="M1 13.8C1 9.31958 1 7.07937 1.87195 5.36808C2.63893 3.86278 3.86278 2.63893 5.36808 1.87195C7.07937 1 9.31958 1 13.8 1H121V37H1V13.8Z" fill="#F7F7F7"/>
<path d="M1 1H121H1ZM122 38H1V36H120L122 38ZM1 37V1V37ZM122 1V38L120 36V1H122Z" fill="#DCDCDC" mask="url(#path-2-inside-1_1182_2177)"/>
<path d="M27.8281 12.8164V25.2578H26.0645V12.8164H27.8281ZM24.0957 14.1152C24.0957 17.8887 22.7695 21.0195 18.3262 23.125L17.4102 21.7305C20.623 20.2129 22.0381 18.2441 22.3184 15.4824H18.0801V14.1152H24.0957ZM39.5586 15.9336V17.3281H30.9043V13.0078H32.6406V15.9336H39.5586ZM40.8438 18.3945V19.8164H29.4688V18.3945H40.8438ZM35.1289 20.5957C37.8223 20.6094 39.4492 21.4434 39.4629 22.9062C39.4492 24.3828 37.8223 25.2168 35.1289 25.2168C32.4082 25.2168 30.7676 24.3828 30.7676 22.9062C30.7676 21.4434 32.4082 20.6094 35.1289 20.5957ZM35.1289 21.9492C33.4062 21.9629 32.5312 22.25 32.5449 22.9062C32.5312 23.5488 33.4062 23.8906 35.1289 23.8906C36.8105 23.8906 37.6992 23.5488 37.7129 22.9062C37.6992 22.25 36.8105 21.9629 35.1289 21.9492ZM52.0547 12.8164V20.1035H50.3184V18.5176H47.9941V19.4199H42.0879V13.7324H47.9941V14.6348H50.3184V12.8164H52.0547ZM43.8242 15.1133V18.0391H46.2852V15.1133H43.8242ZM47.8027 20.4316C50.4551 20.4316 52.082 21.3203 52.0957 22.8516C52.082 24.3828 50.4551 25.2578 47.8027 25.2578C45.1504 25.2578 43.5234 24.3828 43.5234 22.8516C43.5234 21.3203 45.1504 20.4316 47.8027 20.4316ZM47.8027 21.7578C46.1484 21.7578 45.2598 22.1133 45.2598 22.8516C45.2598 23.5625 46.1484 23.9316 47.8027 23.9316C49.457 23.9316 50.3594 23.5625 50.3594 22.8516C50.3594 22.1133 49.457 21.7578 47.8027 21.7578ZM47.9941 17.1094H50.3184V16.0156H47.9941V17.1094Z" fill="#2A2A2A"/>
<mask id="path-5-inside-2_1182_2177" fill="white">
<path d="M121 1H395V37H121V1Z"/>
</mask>
<path d="M121 1H395V37H121V1Z" fill="#F7F7F7"/>
<path d="M395 37V38H396V37H395ZM395 1H394V37H395H396V1H395ZM395 37V36H121V37V38H395V37Z" fill="#DCDCDC" mask="url(#path-5-inside-2_1182_2177)"/>
<path d="M147.855 12.8164V19.1465H146.119V16.0566H143.781V14.6758H146.119V12.8164H147.855ZM147.855 19.666V22.9883H141.32V23.7539H148.211V25.1211H139.598V21.7168H146.133V21.0059H139.584V19.666H147.855ZM142.031 14.1289C142.018 15.6191 142.893 17.0547 144.875 17.6426L143.959 18.9824C142.626 18.5518 141.696 17.7178 141.156 16.6445C140.616 17.8408 139.632 18.7842 138.176 19.2422L137.273 17.8613C139.338 17.2598 140.254 15.7422 140.268 14.1289V13.2266H142.031V14.1289ZM159.955 12.8164V20.1035H158.219V18.5176H155.895V19.4199H149.988V13.7324H155.895V14.6348H158.219V12.8164H159.955ZM151.725 15.1133V18.0391H154.186V15.1133H151.725ZM155.703 20.4316C158.355 20.4316 159.982 21.3203 159.996 22.8516C159.982 24.3828 158.355 25.2578 155.703 25.2578C153.051 25.2578 151.424 24.3828 151.424 22.8516C151.424 21.3203 153.051 20.4316 155.703 20.4316ZM155.703 21.7578C154.049 21.7578 153.16 22.1133 153.16 22.8516C153.16 23.5625 154.049 23.9316 155.703 23.9316C157.357 23.9316 158.26 23.5625 158.26 22.8516C158.26 22.1133 157.357 21.7578 155.703 21.7578ZM155.895 17.1094H158.219V16.0156H155.895V17.1094Z" fill="#2A2A2A"/>
<mask id="path-8-inside-3_1182_2177" fill="white">
<path d="M395 1H575V37H395V1Z"/>
</mask>
<path d="M395 1H575V37H395V1Z" fill="#F7F7F7"/>
<path d="M575 37V38H576V37H575ZM575 1H574V37H575H576V1H575ZM575 37V36H395V37V38H575V37Z" fill="#DCDCDC" mask="url(#path-8-inside-3_1182_2177)"/>
<path d="M421.787 12.8164V19.502H420.037V12.8164H421.787ZM415.184 20.0488V21.2109H420.051V20.0488H421.787V25.1211H413.461V20.0488H415.184ZM415.184 23.7129H420.051V22.5645H415.184V23.7129ZM414.965 13.3359C416.906 13.3223 418.369 14.5391 418.369 16.2891C418.369 17.9844 416.906 19.2012 414.965 19.2012C413.023 19.2012 411.561 17.9844 411.561 16.2891C411.561 14.5391 413.023 13.3223 414.965 13.3359ZM414.965 14.7852C413.967 14.7852 413.256 15.3457 413.27 16.2891C413.256 17.2188 413.967 17.7656 414.965 17.7656C415.936 17.7656 416.646 17.2188 416.646 16.2891C416.646 15.3457 415.936 14.7852 414.965 14.7852ZM429.443 13.541V17.4238H425.684V18.75C427.536 18.75 428.63 18.6885 429.895 18.4492L430.059 19.8438C428.609 20.1035 427.297 20.1445 424.891 20.1445H423.961V16.125H427.693V14.9082H423.934V13.541H429.443ZM433.955 12.8301V20.4863H432.219V18.5723H430.154V17.1914H432.219V15.9336H430.154V14.5527H432.219V12.8301H433.955ZM433.955 21.0469V25.2578H432.219V22.4414H425.383V21.0469H433.955ZM445.439 12.8164V15.4004H447.121V16.8496H445.439V19.5703H443.689V12.8164H445.439ZM441.98 13.459C441.98 16.7812 439.943 18.873 436.143 19.7207L435.514 18.3125C438.419 17.6973 439.841 16.3848 440.053 14.8535H436.102V13.459H441.98ZM438.398 20.1855V21.375H439.738V20.1855H441.311V23.7949C442.609 23.166 443.143 22.0518 443.156 20.9922V20.0352H444.824V20.9512C444.824 22.1543 445.398 23.3301 446.834 23.8906L445.932 25.2031C444.988 24.8135 444.359 24.1572 443.99 23.3438C443.594 24.1436 442.958 24.8135 442.035 25.2031L441.311 24.1641V25.0801H436.799V20.1855H438.398ZM438.398 23.7539H439.738V22.6602H438.398V23.7539Z" fill="#2A2A2A"/>
<mask id="path-11-inside-4_1182_2177" fill="white">
<path d="M575 1H722.2C726.68 1 728.921 1 730.632 1.87195C732.137 2.63893 733.361 3.86278 734.128 5.36808C735 7.07937 735 9.31958 735 13.8V37H575V1Z"/>
</mask>
<path d="M575 1H722.2C726.68 1 728.921 1 730.632 1.87195C732.137 2.63893 733.361 3.86278 734.128 5.36808C735 7.07937 735 9.31958 735 13.8V37H575V1Z" fill="#F7F7F7"/>
<path d="M575 1H735H575ZM735 38H575V36H735V38ZM575 37V1V37ZM735 1V37V1Z" fill="#DCDCDC" mask="url(#path-11-inside-4_1182_2177)"/>
<path d="M602.689 18.1211V19.3926H597.904V20.1719H601.336V23.207H594.404V23.8906H601.664V25.1758H592.695V22.0312H599.613V21.416H592.682V20.1719H596.168V19.3926H591.396V18.1211H602.689ZM597.891 12.8027V13.7871H601.623V15.0723H598.109C598.451 15.7969 599.723 16.3916 602.238 16.4941L601.732 17.7793C599.422 17.6699 597.822 17.082 597.029 16.1387C596.243 17.082 594.637 17.6699 592.312 17.7793L591.834 16.4941C594.329 16.3916 595.594 15.7969 595.949 15.0723H592.463V13.7871H596.168V12.8027H597.891ZM609.443 13.541V17.4238H605.684V18.75C607.536 18.75 608.63 18.6885 609.895 18.4492L610.059 19.8438C608.609 20.1035 607.297 20.1445 604.891 20.1445H603.961V16.125H607.693V14.9082H603.934V13.541H609.443ZM613.955 12.8301V20.4863H612.219V18.5723H610.154V17.1914H612.219V15.9336H610.154V14.5527H612.219V12.8301H613.955ZM613.955 21.0469V25.2578H612.219V22.4414H605.383V21.0469H613.955ZM625.439 12.8164V15.4004H627.121V16.8496H625.439V19.5703H623.689V12.8164H625.439ZM621.98 13.459C621.98 16.7812 619.943 18.873 616.143 19.7207L615.514 18.3125C618.419 17.6973 619.841 16.3848 620.053 14.8535H616.102V13.459H621.98ZM618.398 20.1855V21.375H619.738V20.1855H621.311V23.7949C622.609 23.166 623.143 22.0518 623.156 20.9922V20.0352H624.824V20.9512C624.824 22.1543 625.398 23.3301 626.834 23.8906L625.932 25.2031C624.988 24.8135 624.359 24.1572 623.99 23.3438C623.594 24.1436 622.958 24.8135 622.035 25.2031L621.311 24.1641V25.0801H616.799V20.1855H618.398ZM618.398 23.7539H619.738V22.6602H618.398V23.7539Z" fill="#2A2A2A"/>
<mask id="path-14-inside-5_1182_2177" fill="white">
<path d="M1 37H121V73H1V37Z"/>
</mask>
<path d="M1 37H121V73H1V37Z" fill="white"/>
<path d="M121 73V74H122V73H121ZM121 37H120V73H121H122V37H121ZM121 73V72H1V73V74H121V73Z" fill="#DCDCDC" mask="url(#path-14-inside-5_1182_2177)"/>
<path d="M27.582 48.9121V61.1621H26.2832V48.9121H27.582ZM17.5195 57.8262C18.5244 57.8193 19.6797 57.8125 20.8828 57.7715V56.5547C19.4473 56.3701 18.5176 55.5293 18.5312 54.3262C18.5176 52.9453 19.7207 52.0293 21.498 52.0293C23.2891 52.0293 24.5195 52.9453 24.5195 54.3262C24.5195 55.5156 23.5898 56.3496 22.168 56.541V57.7305C23.3027 57.6826 24.4512 57.5938 25.5312 57.457L25.627 58.4277C22.9062 58.8789 19.9395 58.9062 17.6973 58.9062L17.5195 57.8262ZM25.2578 50.375V51.4141H17.7793V50.375H20.8828V48.9395H22.1816V50.375H25.2578ZM21.498 53.041C20.4727 53.041 19.748 53.5469 19.7617 54.3262C19.748 55.1055 20.4727 55.584 21.498 55.584C22.5508 55.584 23.2754 55.1055 23.2754 54.3262C23.2754 53.5469 22.5508 53.041 21.498 53.041ZM39.7363 48.9258V58.209H38.4375V57.0332H35.9766V56.1172H38.4375V48.9258H39.7363ZM40.0371 59.8496V60.9023H31.1914V57.3066H32.4766V59.8496H40.0371ZM29.4961 54.5176C31.7656 54.5039 34.8145 54.4766 37.4258 54.1484L37.5078 55.0781C36.4619 55.249 35.3613 55.3652 34.2812 55.4336V57.8262H32.9824V55.502C31.793 55.5566 30.6514 55.5635 29.6602 55.5566L29.4961 54.5176ZM33.502 49.3906C35.293 49.3906 36.5371 50.252 36.5371 51.5508C36.5371 52.8496 35.293 53.6836 33.502 53.6836C31.6836 53.6836 30.4531 52.8496 30.4531 51.5508C30.4531 50.252 31.6836 49.3906 33.502 49.3906ZM33.502 50.3613C32.4082 50.3477 31.6699 50.8125 31.6836 51.5508C31.6699 52.2754 32.4082 52.7266 33.502 52.7266C34.5547 52.7266 35.293 52.2754 35.3066 51.5508C35.293 50.8125 34.5547 50.3477 33.502 50.3613ZM51.1934 48.9121V53.793H53.0938V54.873H51.1934V61.1484H49.8945V48.9121H51.1934ZM47.9941 50.1973C47.9805 53.7383 46.4219 56.8965 42.3887 58.8926L41.6641 57.8809C44.7334 56.3496 46.4014 54.1348 46.668 51.2773H42.2793V50.1973H47.9941ZM63.9082 48.9121V55.4883H62.6094V48.9121H63.9082ZM57.168 56.0762V57.457H62.623V56.0762H63.9082V61.0117H55.8965V56.0762H57.168ZM57.168 59.9453H62.623V58.4824H57.168V59.9453ZM57.2637 49.4727C59.1367 49.4727 60.5176 50.6348 60.5176 52.3164C60.5176 53.998 59.1367 55.1602 57.2637 55.1465C55.3906 55.1602 53.9961 53.998 53.9961 52.3164C53.9961 50.6348 55.3906 49.4727 57.2637 49.4727ZM57.2637 50.5664C56.1016 50.5527 55.2676 51.2773 55.2676 52.3164C55.2676 53.3691 56.1016 54.0801 57.2637 54.0801C58.4121 54.0801 59.2461 53.3691 59.2461 52.3164C59.2461 51.2773 58.4121 50.5527 57.2637 50.5664Z" fill="#0F0F0F"/>
<mask id="path-17-inside-6_1182_2177" fill="white">
<path d="M121 37H395V73H121V37Z"/>
</mask>
<path d="M121 37H395V73H121V37Z" fill="white"/>
<path d="M395 73V74H396V73H395ZM395 37H394V73H395H396V37H395ZM395 73V72H121V73V74H395V73Z" fill="#DCDCDC" mask="url(#path-17-inside-6_1182_2177)"/>
<path d="M141.703 52.0293C141.689 54.2031 142.947 56.418 144.779 57.3066L143.973 58.3457C142.64 57.6553 141.607 56.2812 141.074 54.6406C140.521 56.3906 139.447 57.8535 138.053 58.5781L137.246 57.5254C139.133 56.623 140.404 54.2715 140.404 52.0293V49.9375H141.703V52.0293ZM146.994 48.9121V53.793H148.963V54.9004H146.994V61.1621H145.695V48.9121H146.994ZM160.721 54.8867V55.9395H149.551V54.8867H152.23V53.2324C151.287 52.8496 150.754 52.2344 150.754 51.4277C150.754 49.9785 152.436 49.1309 155.129 49.1309C157.809 49.1309 159.504 49.9785 159.504 51.4277C159.504 52.2344 158.964 52.8564 158.014 53.2324V54.8867H160.721ZM155.129 56.7734C157.768 56.7734 159.354 57.5527 159.354 58.9473C159.354 60.3691 157.768 61.1348 155.129 61.1348C152.463 61.1348 150.877 60.3691 150.877 58.9473C150.877 57.5527 152.463 56.7734 155.129 56.7734ZM155.129 57.7715C153.256 57.7715 152.189 58.1953 152.189 58.9473C152.189 59.7129 153.256 60.1504 155.129 60.1367C156.975 60.1504 158.055 59.7129 158.055 58.9473C158.055 58.1953 156.975 57.7715 155.129 57.7715ZM155.129 50.1289C153.229 50.1289 152.08 50.6074 152.094 51.4277C152.08 52.248 153.229 52.7129 155.129 52.7129C157.029 52.7129 158.164 52.248 158.164 51.4277C158.164 50.6074 157.029 50.1289 155.129 50.1289ZM153.543 54.8867H156.729V53.5742C156.25 53.6562 155.71 53.6973 155.129 53.6973C154.555 53.6973 154.021 53.6562 153.543 53.5879V54.8867ZM165.916 52.5215C165.916 54.4629 167.188 56.623 169.047 57.498L168.309 58.5098C166.935 57.8467 165.848 56.4658 165.301 54.8594C164.733 56.6162 163.585 58.127 162.184 58.8242L161.418 57.7988C163.277 56.9102 164.631 54.5996 164.631 52.5215V51.2227H161.869V50.1426H168.582V51.2227H165.916V52.5215ZM171.193 48.9121V53.7656H173.162V54.8594H171.193V61.1621H169.895V48.9121H171.193ZM183.293 48.9121V53.793H185.193V54.873H183.293V61.1484H181.994V48.9121H183.293ZM180.094 50.1973C180.08 53.7383 178.521 56.8965 174.488 58.8926L173.764 57.8809C176.833 56.3496 178.501 54.1348 178.768 51.2773H174.379V50.1973H180.094ZM199.412 48.9121V61.1895H198.113V48.9121H199.412ZM192.863 49.8281C194.682 49.8281 196.021 51.4961 196.021 54.1211C196.021 56.7598 194.682 58.4277 192.863 58.4277C191.018 58.4277 189.691 56.7598 189.691 54.1211C189.691 51.4961 191.018 49.8281 192.863 49.8281ZM192.863 50.9902C191.729 50.9902 190.949 52.1934 190.949 54.1211C190.949 56.0625 191.729 57.2656 192.863 57.2656C193.984 57.2656 194.764 56.0625 194.764 54.1211C194.764 52.1934 193.984 50.9902 192.863 50.9902ZM206.535 50.293V53.4785H208.176V49.1445H209.42V60.5605H208.176V54.5449H206.535V57.9355H201.777V50.293H206.535ZM203.008 51.3184V56.8965H205.318V51.3184H203.008ZM211.908 48.9121V61.1621H210.664V48.9121H211.908ZM216.939 49.3223C218.785 49.3359 220.139 50.4707 220.152 52.0703C220.139 53.6836 218.785 54.8047 216.939 54.8047C215.08 54.8047 213.713 53.6836 213.713 52.0703C213.713 50.4707 215.08 49.3359 216.939 49.3223ZM216.939 50.416C215.805 50.4023 214.971 51.0723 214.984 52.0703C214.971 53.082 215.805 53.752 216.939 53.752C218.061 53.752 218.895 53.082 218.895 52.0703C218.895 51.0723 218.061 50.4023 216.939 50.416ZM223.625 48.9121V55.1465H222.326V48.9121H223.625ZM223.625 55.707V58.7969H216.871V59.9727H224.035V61.0117H215.613V57.8262H222.34V56.7461H215.572V55.707H223.625ZM239.334 54.4629V55.502H234.904V50.0195H239.211V51.0723H236.203V54.4629H239.334ZM240.195 58.5781V59.6309H228.984V58.5781H233.906V56.0898H235.178V58.5781H240.195ZM234.139 50.0332V51.0859H231.213V54.4355C232.231 54.4219 233.188 54.3398 234.248 54.1074L234.357 55.1875C233.045 55.4746 231.938 55.502 230.639 55.502H229.914V50.0332H234.139ZM250.996 52.4941V53.5332H242.561V49.3496H243.846V52.4941H250.996ZM252.281 55.0781V56.1172H241.07V55.0781H252.281ZM251.078 59.8086V60.875H242.465V57.2793H243.764V59.8086H251.078ZM262.549 52.7129C262.453 51.7969 261.646 51.2637 260.512 51.2637C259.295 51.2637 258.529 51.8789 258.529 52.7266C258.529 53.6699 259.555 54.0254 260.334 54.2168L261.291 54.4766C262.562 54.7773 264.135 55.4746 264.148 57.2656C264.135 58.9336 262.809 60.1641 260.471 60.1641C258.256 60.1641 256.861 59.0566 256.766 57.252H258.27C258.365 58.332 259.309 58.8516 260.471 58.8516C261.729 58.8516 262.645 58.209 262.658 57.2383C262.645 56.377 261.838 56.0215 260.785 55.748L259.609 55.4336C258.023 54.9961 257.025 54.1895 257.025 52.8086C257.025 51.0996 258.557 49.9648 260.553 49.9648C262.562 49.9648 263.971 51.1133 264.012 52.7129H262.549ZM273.746 50.1016V60H272.365L267.348 52.7676H267.266V60H265.762V50.1016H267.156L272.174 57.3477H272.27V50.1016H273.746ZM281.156 52.7129C281.061 51.7969 280.254 51.2637 279.119 51.2637C277.902 51.2637 277.137 51.8789 277.137 52.7266C277.137 53.6699 278.162 54.0254 278.941 54.2168L279.898 54.4766C281.17 54.7773 282.742 55.4746 282.756 57.2656C282.742 58.9336 281.416 60.1641 279.078 60.1641C276.863 60.1641 275.469 59.0566 275.373 57.252H276.877C276.973 58.332 277.916 58.8516 279.078 58.8516C280.336 58.8516 281.252 58.209 281.266 57.2383C281.252 56.377 280.445 56.0215 279.393 55.748L278.217 55.4336C276.631 54.9961 275.633 54.1895 275.633 52.8086C275.633 51.0996 277.164 49.9648 279.16 49.9648C281.17 49.9648 282.578 51.1133 282.619 52.7129H281.156ZM297.754 48.9121V61.1621H296.523V48.9121H297.754ZM295.252 49.2266V60.5605H294.021V56.3906H291.93V55.3242H294.021V53.3281H292.135C291.54 55.3857 290.234 57.1699 287.924 58.5508L287.158 57.6211C289.756 56.0762 291.007 54.0186 291.232 51.4961H287.76V50.4297H292.518C292.518 51.0586 292.47 51.667 292.367 52.2617H294.021V49.2266H295.252ZM309.539 48.9121V56.1992H308.24V53.0957H305.957V52.0293H308.24V48.9121H309.539ZM305.438 56.541C308.008 56.541 309.58 57.3887 309.58 58.8516C309.58 60.3145 308.008 61.1484 305.438 61.1621C302.867 61.1484 301.281 60.3145 301.295 58.8516C301.281 57.3887 302.867 56.541 305.438 56.541ZM305.438 57.5527C303.646 57.5527 302.58 58.0176 302.58 58.8516C302.58 59.6719 303.646 60.1504 305.438 60.1367C307.229 60.1504 308.295 59.6719 308.295 58.8516C308.295 58.0176 307.229 57.5527 305.438 57.5527ZM303.715 51.0723C303.715 52.6309 304.822 54.1348 306.668 54.7637L305.998 55.7891C304.624 55.3105 303.612 54.333 303.086 53.123C302.546 54.4971 301.473 55.5977 300.01 56.1309L299.326 55.0918C301.227 54.4355 302.389 52.7812 302.389 51.0859V50.8125H299.736V49.7598H306.34V50.8125H303.715V51.0723ZM317.004 49.1172C319.766 49.1172 321.379 49.8555 321.379 51.2227C321.379 52.5898 319.766 53.3418 317.004 53.3418C314.242 53.3418 312.629 52.5898 312.629 51.2227C312.629 49.8555 314.242 49.1172 317.004 49.1172ZM317.004 50.0742C315.049 50.0742 313.969 50.498 313.982 51.2227C313.969 51.9746 315.049 52.3711 317.004 52.3711C318.959 52.3711 320.039 51.9746 320.039 51.2227C320.039 50.498 318.959 50.0742 317.004 50.0742ZM322.596 54.0938V55.1328H311.426V54.0938H322.596ZM321.188 56.0762V58.9473H314.051V60.041H321.529V61.0391H312.779V58.0039H319.902V57.0469H312.766V56.0762H321.188ZM338.113 55.3516V56.377H326.916V55.3516H331.865V54.2852H328.379V49.2402H336.746V50.2656H329.691V51.2637H336.432V52.2344H329.691V53.2734H336.828V54.2852H333.164V55.3516H338.113ZM332.521 57.1836C335.215 57.1699 336.746 57.8809 336.746 59.166C336.746 60.4648 335.215 61.1484 332.521 61.1348C329.801 61.1484 328.27 60.4648 328.27 59.166C328.27 57.8809 329.801 57.1699 332.521 57.1836ZM332.521 58.1543C330.594 58.1543 329.555 58.5098 329.568 59.166C329.555 59.8223 330.594 60.1641 332.521 60.1504C334.422 60.1641 335.447 59.8223 335.447 59.166C335.447 58.5098 334.422 58.1543 332.521 58.1543ZM345.1 50.9355V51.9883H339.016V50.9355H341.422V49.2676H342.707V50.9355H345.1ZM342.064 52.7266C343.623 52.7266 344.717 53.8887 344.73 55.543C344.717 57.2109 343.623 58.3867 342.064 58.3867C340.533 58.3867 339.398 57.2109 339.412 55.543C339.398 53.8887 340.533 52.7266 342.064 52.7266ZM342.064 53.8066C341.176 53.8066 340.561 54.5312 340.561 55.543C340.561 56.582 341.176 57.2793 342.064 57.2793C342.939 57.2793 343.582 56.582 343.582 55.543C343.582 54.5312 342.939 53.8066 342.064 53.8066ZM349.529 48.9121V61.1621H348.299V55.0781H346.891V60.5879H345.66V49.1855H346.891V54.0117H348.299V48.9121H349.529ZM364.104 48.9121V53.793H366.004V54.873H364.104V61.1484H362.805V48.9121H364.104ZM360.904 50.1973C360.891 53.7383 359.332 56.8965 355.299 58.8926L354.574 57.8809C357.644 56.3496 359.312 54.1348 359.578 51.2773H355.189V50.1973H360.904ZM376.818 48.9121V55.4883H375.52V48.9121H376.818ZM370.078 56.0762V57.457H375.533V56.0762H376.818V61.0117H368.807V56.0762H370.078ZM370.078 59.9453H375.533V58.4824H370.078V59.9453ZM370.174 49.4727C372.047 49.4727 373.428 50.6348 373.428 52.3164C373.428 53.998 372.047 55.1602 370.174 55.1465C368.301 55.1602 366.906 53.998 366.906 52.3164C366.906 50.6348 368.301 49.4727 370.174 49.4727ZM370.174 50.5664C369.012 50.5527 368.178 51.2773 368.178 52.3164C368.178 53.3691 369.012 54.0801 370.174 54.0801C371.322 54.0801 372.156 53.3691 372.156 52.3164C372.156 51.2773 371.322 50.5527 370.174 50.5664Z" fill="#0F0F0F"/>
<mask id="path-20-inside-7_1182_2177" fill="white">
<path d="M395 37H575V73H395V37Z"/>
</mask>
<path d="M395 37H575V73H395V37Z" fill="white"/>
<path d="M575 73V74H576V73H575ZM575 37H574V73H575H576V37H575ZM575 73V72H395V73V74H575V73Z" fill="#DCDCDC" mask="url(#path-20-inside-7_1182_2177)"/>
<path d="M421.596 48.9121V61.1895H420.297V48.9121H421.596ZM415.047 49.8281C416.865 49.8281 418.205 51.4961 418.205 54.1211C418.205 56.7598 416.865 58.4277 415.047 58.4277C413.201 58.4277 411.875 56.7598 411.875 54.1211C411.875 51.4961 413.201 49.8281 415.047 49.8281ZM415.047 50.9902C413.912 50.9902 413.133 52.1934 413.133 54.1211C413.133 56.0625 413.912 57.2656 415.047 57.2656C416.168 57.2656 416.947 56.0625 416.947 54.1211C416.947 52.1934 416.168 50.9902 415.047 50.9902ZM428.719 50.293V53.4785H430.359V49.1445H431.604V60.5605H430.359V54.5449H428.719V57.9355H423.961V50.293H428.719ZM425.191 51.3184V56.8965H427.502V51.3184H425.191ZM434.092 48.9121V61.1621H432.848V48.9121H434.092ZM439.123 49.3223C440.969 49.3359 442.322 50.4707 442.336 52.0703C442.322 53.6836 440.969 54.8047 439.123 54.8047C437.264 54.8047 435.896 53.6836 435.896 52.0703C435.896 50.4707 437.264 49.3359 439.123 49.3223ZM439.123 50.416C437.988 50.4023 437.154 51.0723 437.168 52.0703C437.154 53.082 437.988 53.752 439.123 53.752C440.244 53.752 441.078 53.082 441.078 52.0703C441.078 51.0723 440.244 50.4023 439.123 50.416ZM445.809 48.9121V55.1465H444.51V48.9121H445.809ZM445.809 55.707V58.7969H439.055V59.9727H446.219V61.0117H437.797V57.8262H444.523V56.7461H437.756V55.707H445.809ZM449.951 59.0566L448.857 62.8301H447.695L448.42 59.0566H449.951ZM464.895 48.9121V61.1895H463.596V48.9121H464.895ZM456.732 49.9375V53.082H460.027V49.9375H461.312V58.25H455.434V49.9375H456.732ZM456.732 57.1836H460.027V54.1074H456.732V57.1836ZM473.316 49.5684V54.6133H467.492V49.5684H473.316ZM468.764 50.6211V53.6016H472.031V50.6211H468.764ZM476.994 48.9121V55.1875H475.709V48.9121H476.994ZM476.994 55.7754V58.8242H470.254V60H477.391V61.0391H468.982V57.8809H475.723V56.7871H468.955V55.7754H476.994ZM489.162 48.9258V57.9766H487.863V53.3555H485.184V55.9395H479.537V49.7324H480.836V51.8105H483.898V49.7324H485.184V52.3027H487.863V48.9258H489.162ZM489.436 59.8496V60.9023H481.164V57.0879H482.477V59.8496H489.436ZM480.836 54.8867H483.898V52.8086H480.836V54.8867ZM501.658 50.6348V51.6875H491.582V50.6348H495.984V49.0898H497.27V50.6348H501.658ZM502.26 58.7285V59.7812H491.049V58.7285H495.984V57.1016C493.838 56.9717 492.539 56.124 492.539 54.7637C492.539 53.2871 494.098 52.4258 496.627 52.4258C499.129 52.4258 500.701 53.2871 500.701 54.7637C500.701 56.124 499.396 56.9717 497.27 57.1016V58.7285H502.26ZM496.627 53.4512C494.877 53.4512 493.852 53.916 493.865 54.7637C493.852 55.6113 494.877 56.0762 496.627 56.0898C498.35 56.0762 499.375 55.6113 499.375 54.7637C499.375 53.916 498.35 53.4512 496.627 53.4512ZM505.35 59.0566L504.256 62.8301H503.094L503.818 59.0566H505.35ZM520.307 56.541V61.1895H519.008V57.6211H512.008V56.541H520.307ZM520.307 48.9258V55.9668H519.008V48.9258H520.307ZM512.199 49.5957V54.0117C513.949 53.998 515.795 53.8545 517.75 53.4648L517.928 54.5312C515.781 54.9551 513.826 55.0918 511.912 55.0918H510.9V49.5957H512.199ZM524.107 50.1836V56.9922C525.365 56.9717 526.555 56.8896 527.908 56.6094L528.086 57.7168C526.486 58.0449 525.133 58.1133 523.615 58.1133H522.809V50.1836H524.107ZM532.775 48.9121V61.1621H531.545V48.9121H532.775ZM530.15 49.1855V60.5605H528.92V54.0117H526.24V52.9453H528.92V49.1855H530.15ZM544.506 48.9258V55.8984H543.207V48.9258H544.506ZM544.506 56.5137V61.0117H536.453V56.5137H544.506ZM537.738 57.5527V59.959H543.234V57.5527H537.738ZM537.861 49.541C539.734 49.541 541.115 50.7168 541.115 52.4395C541.115 54.1211 539.734 55.3105 537.861 55.3105C535.988 55.3105 534.594 54.1211 534.594 52.4395C534.594 50.7168 535.988 49.541 537.861 49.541ZM537.861 50.6348C536.699 50.6348 535.865 51.3457 535.865 52.4395C535.865 53.4922 536.699 54.2168 537.861 54.2168C539.01 54.2168 539.844 53.4922 539.844 52.4395C539.844 51.3457 539.01 50.6348 537.861 50.6348Z" fill="#0F0F0F"/>
<mask id="path-23-inside-8_1182_2177" fill="white">
<path d="M575 37H735V73H575V37Z"/>
</mask>
<path d="M575 37H735V73H575V37Z" fill="white"/>
<path d="M735 73V72H575V73V74H735V73Z" fill="#DCDCDC" mask="url(#path-23-inside-8_1182_2177)"/>
<path d="M601.582 48.9121V61.1621H600.283V48.9121H601.582ZM591.52 57.8262C592.524 57.8193 593.68 57.8125 594.883 57.7715V56.5547C593.447 56.3701 592.518 55.5293 592.531 54.3262C592.518 52.9453 593.721 52.0293 595.498 52.0293C597.289 52.0293 598.52 52.9453 598.52 54.3262C598.52 55.5156 597.59 56.3496 596.168 56.541V57.7305C597.303 57.6826 598.451 57.5938 599.531 57.457L599.627 58.4277C596.906 58.8789 593.939 58.9062 591.697 58.9062L591.52 57.8262ZM599.258 50.375V51.4141H591.779V50.375H594.883V48.9395H596.182V50.375H599.258ZM595.498 53.041C594.473 53.041 593.748 53.5469 593.762 54.3262C593.748 55.1055 594.473 55.584 595.498 55.584C596.551 55.584 597.275 55.1055 597.275 54.3262C597.275 53.5469 596.551 53.041 595.498 53.041ZM613.736 48.9258V58.209H612.438V57.0332H609.977V56.1172H612.438V48.9258H613.736ZM614.037 59.8496V60.9023H605.191V57.3066H606.477V59.8496H614.037ZM603.496 54.5176C605.766 54.5039 608.814 54.4766 611.426 54.1484L611.508 55.0781C610.462 55.249 609.361 55.3652 608.281 55.4336V57.8262H606.982V55.502C605.793 55.5566 604.651 55.5635 603.66 55.5566L603.496 54.5176ZM607.502 49.3906C609.293 49.3906 610.537 50.252 610.537 51.5508C610.537 52.8496 609.293 53.6836 607.502 53.6836C605.684 53.6836 604.453 52.8496 604.453 51.5508C604.453 50.252 605.684 49.3906 607.502 49.3906ZM607.502 50.3613C606.408 50.3477 605.67 50.8125 605.684 51.5508C605.67 52.2754 606.408 52.7266 607.502 52.7266C608.555 52.7266 609.293 52.2754 609.307 51.5508C609.293 50.8125 608.555 50.3477 607.502 50.3613ZM621.133 50.1016V60H619.629V50.1016H621.133ZM626.355 60H623.143V50.1016H626.451C629.363 50.1016 631.113 51.9609 631.113 55.0371C631.113 58.127 629.363 60 626.355 60ZM624.646 58.6875H626.273C628.516 58.6875 629.623 57.375 629.623 55.0371C629.623 52.7129 628.516 51.4141 626.355 51.4141H624.646V58.6875ZM633.82 59.0566L632.727 62.8301H631.564L632.289 59.0566H633.82ZM649.83 58.5371V59.6309H638.619V58.5371H649.83ZM648.805 50.0879V51.1543H646.932V55.2422H648.764V56.2812H639.604V55.2422H641.436V51.1543H639.576V50.0879H648.805ZM642.721 55.2422H645.66V51.1543H642.721V55.2422ZM661.93 58.6055V59.6992H650.719V58.6055H655.654V56.459H652.086V52.5625H659.277V50.8398H652.059V49.7734H660.562V53.6016H653.371V55.3926H660.85V56.459H656.939V58.6055H661.93ZM673.004 48.9121V55.2422H671.691V48.9121H673.004ZM673.004 55.8027V58.8379H666.182V60H673.428V61.0391H664.91V57.8945H671.719V56.8281H664.869V55.8027H673.004ZM670.01 49.7188V50.7441H668.834V53.6426C669.429 53.6016 670.017 53.5469 670.57 53.4785L670.625 54.4219C668.178 54.791 665.32 54.873 663.174 54.873L663.023 53.834L664.514 53.8203V50.7441H663.352V49.7188H670.01ZM665.758 53.793C666.359 53.7725 666.975 53.752 667.59 53.7109V50.7441H665.758V53.793ZM688.863 48.9121V61.1621H687.605V48.9121H688.863ZM686.334 49.1719V60.5469H685.104V54.5996H682.588V53.5195H685.104V49.1719H686.334ZM683.422 50.375V51.4414H680.045V57.1973C681.651 57.1836 682.731 57.1152 683.996 56.8418L684.105 57.9355C682.697 58.2227 681.494 58.2773 679.58 58.2773H678.773V50.375H683.422ZM700.58 48.9121V61.1895H699.281V48.9121H700.58ZM694.031 49.8281C695.85 49.8281 697.189 51.4961 697.189 54.1211C697.189 56.7598 695.85 58.4277 694.031 58.4277C692.186 58.4277 690.859 56.7598 690.859 54.1211C690.859 51.4961 692.186 49.8281 694.031 49.8281ZM694.031 50.9902C692.896 50.9902 692.117 52.1934 692.117 54.1211C692.117 56.0625 692.896 57.2656 694.031 57.2656C695.152 57.2656 695.932 56.0625 695.932 54.1211C695.932 52.1934 695.152 50.9902 694.031 50.9902ZM712.748 48.9121V61.1895H711.463V54.5039H709.029V53.4375H711.463V48.9121H712.748ZM708.824 50.0059V51.0586H704.408V53.4375H708.305V54.4766H704.408V57.2109C706.459 57.2041 707.881 57.1562 709.508 56.8691L709.645 57.9219C707.867 58.209 706.322 58.2773 704.053 58.291H703.096V50.0059H708.824Z" fill="#0F0F0F"/>
<mask id="path-26-inside-9_1182_2177" fill="white">
<path d="M1 73H121V109H1V73Z"/>
</mask>
<path d="M1 73H121V109H1V73Z" fill="white"/>
<path d="M121 109V110H122V109H121ZM121 73H120V109H121H122V73H121ZM121 109V108H1V109V110H121V109Z" fill="#DCDCDC" mask="url(#path-26-inside-9_1182_2177)"/>
<path d="M28.6621 94.6055V95.6992H17.4512V94.6055H22.3867V92.459H18.8184V88.5625H26.0098V86.8398H18.791V85.7734H27.2949V89.6016H20.1035V91.3926H27.582V92.459H23.6719V94.6055H28.6621ZM39.2578 86.1562V87.4688C39.2578 89.0547 39.2578 90.7773 38.8066 93.3887L37.4805 93.2656C37.9727 90.8184 37.9727 89.0137 37.9727 87.4688V87.2227H30.7539V86.1562H39.2578ZM40.7207 94.3457V95.4258H29.5508V94.3457H40.7207ZM51.8086 84.9258V93.8262H50.5098V84.9258H51.8086ZM52.1777 95.8496V96.9023H43.7969V92.9238H45.1094V95.8496H52.1777ZM45.1641 85.7461C47.0098 85.7461 48.418 87.0039 48.418 88.7812C48.418 90.5859 47.0098 91.8301 45.1641 91.8301C43.3184 91.8301 41.8965 90.5859 41.8965 88.7812C41.8965 87.0039 43.3184 85.7461 45.1641 85.7461ZM45.1641 86.8809C44.0156 86.8809 43.168 87.6602 43.168 88.7812C43.168 89.9297 44.0156 90.6953 45.1641 90.6953C46.2852 90.6953 47.1465 89.9297 47.1465 88.7812C47.1465 87.6602 46.2852 86.8809 45.1641 86.8809Z" fill="#0F0F0F"/>
<mask id="path-29-inside-10_1182_2177" fill="white">
<path d="M121 73H395V109H121V73Z"/>
</mask>
<path d="M121 73H395V109H121V73Z" fill="white"/>
<path d="M395 109V110H396V109H395ZM395 73H394V109H395H396V73H395ZM395 109V108H121V109V110H395V109Z" fill="#DCDCDC" mask="url(#path-29-inside-10_1182_2177)"/>
<path d="M141.703 88.0293C141.689 90.2031 142.947 92.418 144.779 93.3066L143.973 94.3457C142.64 93.6553 141.607 92.2812 141.074 90.6406C140.521 92.3906 139.447 93.8535 138.053 94.5781L137.246 93.5254C139.133 92.623 140.404 90.2715 140.404 88.0293V85.9375H141.703V88.0293ZM146.994 84.9121V89.793H148.963V90.9004H146.994V97.1621H145.695V84.9121H146.994ZM160.721 90.8867V91.9395H149.551V90.8867H152.23V89.2324C151.287 88.8496 150.754 88.2344 150.754 87.4277C150.754 85.9785 152.436 85.1309 155.129 85.1309C157.809 85.1309 159.504 85.9785 159.504 87.4277C159.504 88.2344 158.964 88.8564 158.014 89.2324V90.8867H160.721ZM155.129 92.7734C157.768 92.7734 159.354 93.5527 159.354 94.9473C159.354 96.3691 157.768 97.1348 155.129 97.1348C152.463 97.1348 150.877 96.3691 150.877 94.9473C150.877 93.5527 152.463 92.7734 155.129 92.7734ZM155.129 93.7715C153.256 93.7715 152.189 94.1953 152.189 94.9473C152.189 95.7129 153.256 96.1504 155.129 96.1367C156.975 96.1504 158.055 95.7129 158.055 94.9473C158.055 94.1953 156.975 93.7715 155.129 93.7715ZM155.129 86.1289C153.229 86.1289 152.08 86.6074 152.094 87.4277C152.08 88.248 153.229 88.7129 155.129 88.7129C157.029 88.7129 158.164 88.248 158.164 87.4277C158.164 86.6074 157.029 86.1289 155.129 86.1289ZM153.543 90.8867H156.729V89.5742C156.25 89.6562 155.71 89.6973 155.129 89.6973C154.555 89.6973 154.021 89.6562 153.543 89.5879V90.8867ZM165.916 88.5215C165.916 90.4629 167.188 92.623 169.047 93.498L168.309 94.5098C166.935 93.8467 165.848 92.4658 165.301 90.8594C164.733 92.6162 163.585 94.127 162.184 94.8242L161.418 93.7988C163.277 92.9102 164.631 90.5996 164.631 88.5215V87.2227H161.869V86.1426H168.582V87.2227H165.916V88.5215ZM171.193 84.9121V89.7656H173.162V90.8594H171.193V97.1621H169.895V84.9121H171.193ZM183.293 84.9121V89.793H185.193V90.873H183.293V97.1484H181.994V84.9121H183.293ZM180.094 86.1973C180.08 89.7383 178.521 92.8965 174.488 94.8926L173.764 93.8809C176.833 92.3496 178.501 90.1348 178.768 87.2773H174.379V86.1973H180.094ZM199.795 84.9121V97.1621H198.564V84.9121H199.795ZM197.293 85.2266V96.5605H196.062V92.3906H193.971V91.3242H196.062V89.3281H194.176C193.581 91.3857 192.275 93.1699 189.965 94.5508L189.199 93.6211C191.797 92.0762 193.048 90.0186 193.273 87.4961H189.801V86.4297H194.559C194.559 87.0586 194.511 87.667 194.408 88.2617H196.062V85.2266H197.293ZM211.58 84.9121V92.1992H210.281V89.0957H207.998V88.0293H210.281V84.9121H211.58ZM207.479 92.541C210.049 92.541 211.621 93.3887 211.621 94.8516C211.621 96.3145 210.049 97.1484 207.479 97.1621C204.908 97.1484 203.322 96.3145 203.336 94.8516C203.322 93.3887 204.908 92.541 207.479 92.541ZM207.479 93.5527C205.688 93.5527 204.621 94.0176 204.621 94.8516C204.621 95.6719 205.688 96.1504 207.479 96.1367C209.27 96.1504 210.336 95.6719 210.336 94.8516C210.336 94.0176 209.27 93.5527 207.479 93.5527ZM205.756 87.0723C205.756 88.6309 206.863 90.1348 208.709 90.7637L208.039 91.7891C206.665 91.3105 205.653 90.333 205.127 89.123C204.587 90.4971 203.514 91.5977 202.051 92.1309L201.367 91.0918C203.268 90.4355 204.43 88.7812 204.43 87.0859V86.8125H201.777V85.7598H208.381V86.8125H205.756V87.0723ZM227.098 84.9121V92.1992H225.799V89.0957H223.516V88.0293H225.799V84.9121H227.098ZM222.996 92.541C225.566 92.541 227.139 93.3887 227.139 94.8516C227.139 96.3145 225.566 97.1484 222.996 97.1621C220.426 97.1484 218.84 96.3145 218.854 94.8516C218.84 93.3887 220.426 92.541 222.996 92.541ZM222.996 93.5527C221.205 93.5527 220.139 94.0176 220.139 94.8516C220.139 95.6719 221.205 96.1504 222.996 96.1367C224.787 96.1504 225.854 95.6719 225.854 94.8516C225.854 94.0176 224.787 93.5527 222.996 93.5527ZM221.273 87.0723C221.273 88.6309 222.381 90.1348 224.227 90.7637L223.557 91.7891C222.183 91.3105 221.171 90.333 220.645 89.123C220.104 90.4971 219.031 91.5977 217.568 92.1309L216.885 91.0918C218.785 90.4355 219.947 88.7812 219.947 87.0859V86.8125H217.295V85.7598H223.898V86.8125H221.273V87.0723ZM240.195 94.5645V95.6445H228.984V94.5645H233.92V92.0488H230.27V85.7461H231.568V87.8516H237.584V85.7461H238.869V92.0488H235.205V94.5645H240.195ZM231.568 90.9961H237.584V88.9043H231.568V90.9961ZM252.281 90.5312V91.5293H241.07V90.5312H252.281ZM250.9 92.3906V95.084H243.709V96.0957H251.283V97.0117H242.41V94.2227H249.615V93.3203H242.396V92.3906H250.9ZM250.873 85.2266V87.8789H243.791V88.8086H251.078V89.7246H242.506V87.0176H249.574V86.1426H242.479V85.2266H250.873ZM266.76 84.9121V91.4883H265.461V84.9121H266.76ZM260.02 92.0762V93.457H265.475V92.0762H266.76V97.0117H258.748V92.0762H260.02ZM260.02 95.9453H265.475V94.4824H260.02V95.9453ZM260.115 85.4727C261.988 85.4727 263.369 86.6348 263.369 88.3164C263.369 89.998 261.988 91.1602 260.115 91.1465C258.242 91.1602 256.848 89.998 256.848 88.3164C256.848 86.6348 258.242 85.4727 260.115 85.4727ZM260.115 86.5664C258.953 86.5527 258.119 87.2773 258.119 88.3164C258.119 89.3691 258.953 90.0801 260.115 90.0801C261.264 90.0801 262.098 89.3691 262.098 88.3164C262.098 87.2773 261.264 86.5527 260.115 86.5664ZM274.539 85.6504V89.2188H270.492V90.9141C272.625 90.9209 273.787 90.873 275.168 90.6133L275.291 91.666C273.801 91.9258 272.543 91.9668 270.096 91.9668H269.207V88.2344H273.24V86.6895H269.193V85.6504H274.539ZM278.914 84.9258V92.459H277.615V90.2988H275.318V89.2598H277.615V87.7422H275.318V86.7031H277.615V84.9258H278.914ZM278.914 93.0742V97.1758H277.615V94.127H270.602V93.0742H278.914ZM290.344 84.9121V89.875H292.312V90.9551H290.344V97.1621H289.059V84.9121H290.344ZM287.992 86.8262V87.8926H280.732V86.8262H283.754V85.0762H285.053V86.8262H287.992ZM284.41 88.7949C286.16 88.7949 287.445 89.9707 287.459 91.6387C287.445 93.3203 286.16 94.4824 284.41 94.4961C282.646 94.4824 281.361 93.3203 281.361 91.6387C281.361 89.9707 282.646 88.7949 284.41 88.7949ZM284.41 89.8613C283.371 89.8613 282.592 90.5859 282.605 91.6387C282.592 92.7051 283.371 93.416 284.41 93.4023C285.449 93.416 286.215 92.7051 286.215 91.6387C286.215 90.5859 285.449 89.8613 284.41 89.8613ZM302.812 86.0879V87.291C302.812 88.8086 302.812 90.5039 302.348 93.0059L301.035 92.8691C301.514 90.5039 301.514 88.7676 301.514 87.291V87.1406H294.076V86.0879H302.812ZM304.07 94.4277V95.5078H292.9V94.4277H297.152V90.1074H298.438V94.4277H304.07ZM319.629 94.6055V95.6992H308.418V94.6055H313.354V92.459H309.785V88.5625H316.977V86.8398H309.758V85.7734H318.262V89.6016H311.07V91.3926H318.549V92.459H314.639V94.6055H319.629ZM330.225 86.1562V87.4688C330.225 89.0547 330.225 90.7773 329.773 93.3887L328.447 93.2656C328.939 90.8184 328.939 89.0137 328.939 87.4688V87.2227H321.721V86.1562H330.225ZM331.688 94.3457V95.4258H320.518V94.3457H331.688ZM342.775 84.9258V93.8262H341.477V84.9258H342.775ZM343.145 95.8496V96.9023H334.764V92.9238H336.076V95.8496H343.145ZM336.131 85.7461C337.977 85.7461 339.385 87.0039 339.385 88.7812C339.385 90.5859 337.977 91.8301 336.131 91.8301C334.285 91.8301 332.863 90.5859 332.863 88.7812C332.863 87.0039 334.285 85.7461 336.131 85.7461ZM336.131 86.8809C334.982 86.8809 334.135 87.6602 334.135 88.7812C334.135 89.9297 334.982 90.6953 336.131 90.6953C337.252 90.6953 338.113 89.9297 338.113 88.7812C338.113 87.6602 337.252 86.8809 336.131 86.8809Z" fill="#0F0F0F"/>
<mask id="path-32-inside-11_1182_2177" fill="white">
<path d="M395 73H575V109H395V73Z"/>
</mask>
<path d="M395 73H575V109H395V73Z" fill="white"/>
<path d="M575 109V110H576V109H575ZM575 73H574V109H575H576V73H575ZM575 109V108H395V109V110H575V109Z" fill="#DCDCDC" mask="url(#path-32-inside-11_1182_2177)"/>
<path d="M421.596 84.9121V97.1895H420.297V84.9121H421.596ZM415.047 85.8281C416.865 85.8281 418.205 87.4961 418.205 90.1211C418.205 92.7598 416.865 94.4277 415.047 94.4277C413.201 94.4277 411.875 92.7598 411.875 90.1211C411.875 87.4961 413.201 85.8281 415.047 85.8281ZM415.047 86.9902C413.912 86.9902 413.133 88.1934 413.133 90.1211C413.133 92.0625 413.912 93.2656 415.047 93.2656C416.168 93.2656 416.947 92.0625 416.947 90.1211C416.947 88.1934 416.168 86.9902 415.047 86.9902ZM428.719 86.293V89.4785H430.359V85.1445H431.604V96.5605H430.359V90.5449H428.719V93.9355H423.961V86.293H428.719ZM425.191 87.3184V92.8965H427.502V87.3184H425.191ZM434.092 84.9121V97.1621H432.848V84.9121H434.092ZM439.123 85.3223C440.969 85.3359 442.322 86.4707 442.336 88.0703C442.322 89.6836 440.969 90.8047 439.123 90.8047C437.264 90.8047 435.896 89.6836 435.896 88.0703C435.896 86.4707 437.264 85.3359 439.123 85.3223ZM439.123 86.416C437.988 86.4023 437.154 87.0723 437.168 88.0703C437.154 89.082 437.988 89.752 439.123 89.752C440.244 89.752 441.078 89.082 441.078 88.0703C441.078 87.0723 440.244 86.4023 439.123 86.416ZM445.809 84.9121V91.1465H444.51V84.9121H445.809ZM445.809 91.707V94.7969H439.055V95.9727H446.219V97.0117H437.797V93.8262H444.523V92.7461H437.756V91.707H445.809ZM449.951 95.0566L448.857 98.8301H447.695L448.42 95.0566H449.951ZM464.895 84.9121V97.1895H463.596V84.9121H464.895ZM456.732 85.9375V89.082H460.027V85.9375H461.312V94.25H455.434V85.9375H456.732ZM456.732 93.1836H460.027V90.1074H456.732V93.1836ZM473.316 85.5684V90.6133H467.492V85.5684H473.316ZM468.764 86.6211V89.6016H472.031V86.6211H468.764ZM476.994 84.9121V91.1875H475.709V84.9121H476.994ZM476.994 91.7754V94.8242H470.254V96H477.391V97.0391H468.982V93.8809H475.723V92.7871H468.955V91.7754H476.994ZM489.162 84.9258V93.9766H487.863V89.3555H485.184V91.9395H479.537V85.7324H480.836V87.8105H483.898V85.7324H485.184V88.3027H487.863V84.9258H489.162ZM489.436 95.8496V96.9023H481.164V93.0879H482.477V95.8496H489.436ZM480.836 90.8867H483.898V88.8086H480.836V90.8867ZM501.658 86.6348V87.6875H491.582V86.6348H495.984V85.0898H497.27V86.6348H501.658ZM502.26 94.7285V95.7812H491.049V94.7285H495.984V93.1016C493.838 92.9717 492.539 92.124 492.539 90.7637C492.539 89.2871 494.098 88.4258 496.627 88.4258C499.129 88.4258 500.701 89.2871 500.701 90.7637C500.701 92.124 499.396 92.9717 497.27 93.1016V94.7285H502.26ZM496.627 89.4512C494.877 89.4512 493.852 89.916 493.865 90.7637C493.852 91.6113 494.877 92.0762 496.627 92.0898C498.35 92.0762 499.375 91.6113 499.375 90.7637C499.375 89.916 498.35 89.4512 496.627 89.4512Z" fill="#0F0F0F"/>
<mask id="path-35-inside-12_1182_2177" fill="white">
<path d="M575 73H735V109H575V73Z"/>
</mask>
<path d="M575 73H735V109H575V73Z" fill="white"/>
<path d="M735 109V108H575V109V110H735V109Z" fill="#DCDCDC" mask="url(#path-35-inside-12_1182_2177)"/>
<path d="M601.609 84.9258V93.8262H600.311V84.9258H601.609ZM601.979 95.8496V96.9023H593.598V92.9238H594.91V95.8496H601.979ZM594.965 85.7461C596.811 85.7461 598.219 87.0039 598.219 88.7812C598.219 90.5859 596.811 91.8301 594.965 91.8301C593.119 91.8301 591.697 90.5859 591.697 88.7812C591.697 87.0039 593.119 85.7461 594.965 85.7461ZM594.965 86.8809C593.816 86.8809 592.969 87.6602 592.969 88.7812C592.969 89.9297 593.816 90.6953 594.965 90.6953C596.086 90.6953 596.947 89.9297 596.947 88.7812C596.947 87.6602 596.086 86.8809 594.965 86.8809ZM614.721 90.6816V91.7344H603.551V90.6816H614.721ZM609.129 92.6777C611.768 92.6777 613.354 93.498 613.354 94.9199C613.354 96.3418 611.768 97.1484 609.129 97.1348C606.477 97.1484 604.877 96.3418 604.877 94.9199C604.877 93.498 606.477 92.6777 609.129 92.6777ZM609.129 93.6895C607.256 93.7031 606.189 94.127 606.189 94.9199C606.189 95.6992 607.256 96.1094 609.129 96.1094C610.975 96.1094 612.055 95.6992 612.055 94.9199C612.055 94.127 610.975 93.7031 609.129 93.6895ZM613.723 85.5137V86.5801H610.004C610.147 87.7695 611.884 88.7812 614.146 89.0137L613.682 90.0391C611.562 89.793 609.806 88.8975 609.143 87.6055C608.459 88.8975 606.709 89.793 604.59 90.0391L604.139 89.0137C606.36 88.7812 608.11 87.7764 608.268 86.5801H604.576V85.5137H613.723ZM629.008 91.1875V92.2266H625.303V94.6191H630.279V95.6855H619.068V94.6191H624.004V92.2266H620.477V85.8555H628.885V86.9219H621.789V88.4941H628.625V89.5195H621.789V91.1875H629.008ZM640.957 85.5273V86.6074C640.957 87.79 640.957 89.082 640.615 90.8867H642.365V91.9395H631.168V90.8867H639.303C639.453 90.1758 639.542 89.54 639.59 88.9453L632.426 89.2734L632.262 88.1934L639.658 87.9883C639.672 87.4961 639.672 87.0381 639.672 86.6074V86.5938H632.576V85.5273H640.957ZM641.203 95.8496V96.9023H632.549V93.0605H633.848V95.8496H641.203ZM645.469 95.0566L644.375 98.8301H643.213L643.938 95.0566H645.469ZM654.52 88.0293C654.506 90.2031 655.764 92.418 657.596 93.3066L656.789 94.3457C655.456 93.6553 654.424 92.2812 653.891 90.6406C653.337 92.3906 652.264 93.8535 650.869 94.5781L650.062 93.5254C651.949 92.623 653.221 90.2715 653.221 88.0293V85.9375H654.52V88.0293ZM659.811 84.9121V89.793H661.779V90.9004H659.811V97.1621H658.512V84.9121H659.811ZM673.537 90.8867V91.9395H662.367V90.8867H665.047V89.2324C664.104 88.8496 663.57 88.2344 663.57 87.4277C663.57 85.9785 665.252 85.1309 667.945 85.1309C670.625 85.1309 672.32 85.9785 672.32 87.4277C672.32 88.2344 671.78 88.8564 670.83 89.2324V90.8867H673.537ZM667.945 92.7734C670.584 92.7734 672.17 93.5527 672.17 94.9473C672.17 96.3691 670.584 97.1348 667.945 97.1348C665.279 97.1348 663.693 96.3691 663.693 94.9473C663.693 93.5527 665.279 92.7734 667.945 92.7734ZM667.945 93.7715C666.072 93.7715 665.006 94.1953 665.006 94.9473C665.006 95.7129 666.072 96.1504 667.945 96.1367C669.791 96.1504 670.871 95.7129 670.871 94.9473C670.871 94.1953 669.791 93.7715 667.945 93.7715ZM667.945 86.1289C666.045 86.1289 664.896 86.6074 664.91 87.4277C664.896 88.248 666.045 88.7129 667.945 88.7129C669.846 88.7129 670.98 88.248 670.98 87.4277C670.98 86.6074 669.846 86.1289 667.945 86.1289ZM666.359 90.8867H669.545V89.5742C669.066 89.6562 668.526 89.6973 667.945 89.6973C667.371 89.6973 666.838 89.6562 666.359 89.5879V90.8867ZM678.732 88.5215C678.732 90.4629 680.004 92.623 681.863 93.498L681.125 94.5098C679.751 93.8467 678.664 92.4658 678.117 90.8594C677.55 92.6162 676.401 94.127 675 94.8242L674.234 93.7988C676.094 92.9102 677.447 90.5996 677.447 88.5215V87.2227H674.686V86.1426H681.398V87.2227H678.732V88.5215ZM684.01 84.9121V89.7656H685.979V90.8594H684.01V97.1621H682.711V84.9121H684.01ZM700.197 84.9121V92.1992H698.898V89.0957H696.615V88.0293H698.898V84.9121H700.197ZM696.096 92.541C698.666 92.541 700.238 93.3887 700.238 94.8516C700.238 96.3145 698.666 97.1484 696.096 97.1621C693.525 97.1484 691.939 96.3145 691.953 94.8516C691.939 93.3887 693.525 92.541 696.096 92.541ZM696.096 93.5527C694.305 93.5527 693.238 94.0176 693.238 94.8516C693.238 95.6719 694.305 96.1504 696.096 96.1367C697.887 96.1504 698.953 95.6719 698.953 94.8516C698.953 94.0176 697.887 93.5527 696.096 93.5527ZM694.373 87.0723C694.373 88.6309 695.48 90.1348 697.326 90.7637L696.656 91.7891C695.282 91.3105 694.271 90.333 693.744 89.123C693.204 90.4971 692.131 91.5977 690.668 92.1309L689.984 91.0918C691.885 90.4355 693.047 88.7812 693.047 87.0859V86.8125H690.395V85.7598H696.998V86.8125H694.373V87.0723ZM713.295 94.5645V95.6445H702.084V94.5645H707.02V92.0488H703.369V85.7461H704.668V87.8516H710.684V85.7461H711.969V92.0488H708.305V94.5645H713.295ZM704.668 90.9961H710.684V88.9043H704.668V90.9961Z" fill="#0F0F0F"/>
<mask id="path-38-inside-13_1182_2177" fill="white">
<path d="M1 109H121V145H1V109Z"/>
</mask>
<path d="M1 109H121V145H1V109Z" fill="white"/>
<path d="M121 145V146H122V145H121ZM121 109H120V145H121H122V109H121ZM121 145V144H1V145V146H121V145Z" fill="#DCDCDC" mask="url(#path-38-inside-13_1182_2177)"/>
<path d="M23.6719 122.648C23.6719 124.645 25.8047 126.531 28.1562 126.955L27.5547 128.035C25.5996 127.611 23.7949 126.326 23.002 124.604C22.1953 126.312 20.3975 127.598 18.4355 128.035L17.8613 126.955C20.1855 126.518 22.3047 124.645 22.3047 122.648V121.719H23.6719V122.648ZM28.6621 130.469V131.549H17.4512V130.469H28.6621ZM39.7637 120.912V133.189H38.4785V126.504H36.0449V125.438H38.4785V120.912H39.7637ZM35.8398 122.006V123.059H31.4238V125.438H35.3203V126.477H31.4238V129.211C33.4746 129.204 34.8965 129.156 36.5234 128.869L36.6602 129.922C34.8828 130.209 33.3379 130.277 31.0684 130.291H30.1113V122.006H35.8398ZM51.7949 120.912V133.189H50.4961V120.912H51.7949ZM48.2949 122.047V123.127H43.7422V129.074C46.0664 129.067 47.5498 129.006 49.2793 128.691L49.416 129.771C47.584 130.1 45.9844 130.182 43.4414 130.182H42.4297V122.047H48.2949ZM60.9141 123.264C60.9141 124.604 61.7754 125.957 63.3613 126.559L62.6777 127.557C61.5361 127.119 60.7363 126.285 60.2988 125.273C59.8477 126.415 59.0068 127.406 57.8242 127.912L57.1133 126.9C58.7676 126.176 59.6562 124.631 59.6562 123.264V121.678H60.9141V123.264ZM67.6133 120.926V128.459H66.3828V125.178H64.9473V128.076H63.7441V121.145H64.9473V124.111H66.3828V120.926H67.6133ZM63.5117 128.691C66.0684 128.691 67.668 129.525 67.6816 130.92C67.668 132.314 66.0684 133.148 63.5117 133.135C60.9551 133.148 59.3555 132.314 59.3691 130.92C59.3555 129.525 60.9551 128.691 63.5117 128.691ZM63.5117 129.689C61.7344 129.689 60.6406 130.141 60.6543 130.92C60.6406 131.699 61.7344 132.15 63.5117 132.137C65.2891 132.15 66.3691 131.699 66.3828 130.92C66.3691 130.141 65.2891 129.689 63.5117 129.689ZM73.6152 122.744C73.6152 124.467 74.7227 125.998 76.582 126.6L75.8711 127.611C74.5244 127.126 73.5332 126.183 73 124.959C72.4668 126.36 71.4004 127.447 69.9238 127.98L69.2266 126.941C71.1816 126.271 72.3164 124.645 72.3301 122.799V121.596H73.6152V122.744ZM79.4805 120.912V128.145H78.1816V124.467H75.5977V123.4H78.1816V120.912H79.4805ZM75.3789 128.486C77.9492 128.486 79.5215 129.334 79.5215 130.824C79.5215 132.301 77.9492 133.148 75.3789 133.135C72.8086 133.148 71.2227 132.301 71.2363 130.824C71.2227 129.334 72.8086 128.486 75.3789 128.486ZM75.3789 129.498C73.5879 129.498 72.5215 129.977 72.5215 130.824C72.5215 131.645 73.5879 132.109 75.3789 132.109C77.1699 132.109 78.2363 131.645 78.2363 130.824C78.2363 129.977 77.1699 129.498 75.3789 129.498Z" fill="#0F0F0F"/>
<mask id="path-41-inside-14_1182_2177" fill="white">
<path d="M121 109H395V145H121V109Z"/>
</mask>
<path d="M121 109H395V145H121V109Z" fill="white"/>
<path d="M395 145V146H396V145H395ZM395 109H394V145H395H396V109H395ZM395 145V144H121V145V146H395V145Z" fill="#DCDCDC" mask="url(#path-41-inside-14_1182_2177)"/>
<path d="M141.703 124.029C141.689 126.203 142.947 128.418 144.779 129.307L143.973 130.346C142.64 129.655 141.607 128.281 141.074 126.641C140.521 128.391 139.447 129.854 138.053 130.578L137.246 129.525C139.133 128.623 140.404 126.271 140.404 124.029V121.938H141.703V124.029ZM146.994 120.912V125.793H148.963V126.9H146.994V133.162H145.695V120.912H146.994ZM160.721 126.887V127.939H149.551V126.887H152.23V125.232C151.287 124.85 150.754 124.234 150.754 123.428C150.754 121.979 152.436 121.131 155.129 121.131C157.809 121.131 159.504 121.979 159.504 123.428C159.504 124.234 158.964 124.856 158.014 125.232V126.887H160.721ZM155.129 128.773C157.768 128.773 159.354 129.553 159.354 130.947C159.354 132.369 157.768 133.135 155.129 133.135C152.463 133.135 150.877 132.369 150.877 130.947C150.877 129.553 152.463 128.773 155.129 128.773ZM155.129 129.771C153.256 129.771 152.189 130.195 152.189 130.947C152.189 131.713 153.256 132.15 155.129 132.137C156.975 132.15 158.055 131.713 158.055 130.947C158.055 130.195 156.975 129.771 155.129 129.771ZM155.129 122.129C153.229 122.129 152.08 122.607 152.094 123.428C152.08 124.248 153.229 124.713 155.129 124.713C157.029 124.713 158.164 124.248 158.164 123.428C158.164 122.607 157.029 122.129 155.129 122.129ZM153.543 126.887H156.729V125.574C156.25 125.656 155.71 125.697 155.129 125.697C154.555 125.697 154.021 125.656 153.543 125.588V126.887ZM165.916 124.521C165.916 126.463 167.188 128.623 169.047 129.498L168.309 130.51C166.935 129.847 165.848 128.466 165.301 126.859C164.733 128.616 163.585 130.127 162.184 130.824L161.418 129.799C163.277 128.91 164.631 126.6 164.631 124.521V123.223H161.869V122.143H168.582V123.223H165.916V124.521ZM171.193 120.912V125.766H173.162V126.859H171.193V133.162H169.895V120.912H171.193ZM183.293 120.912V125.793H185.193V126.873H183.293V133.148H181.994V120.912H183.293ZM180.094 122.197C180.08 125.738 178.521 128.896 174.488 130.893L173.764 129.881C176.833 128.35 178.501 126.135 178.768 123.277H174.379V122.197H180.094ZM193.041 124.234C193.041 126.271 193.875 128.322 195.543 129.211L194.777 130.236C193.622 129.587 192.836 128.425 192.412 127.037C191.954 128.555 191.113 129.854 189.924 130.551L189.104 129.607C190.854 128.582 191.783 126.408 191.783 124.316V122.033H193.041V124.234ZM199.809 120.912V133.162H198.564V126.846H197.088V132.561H195.844V121.145H197.088V125.793H198.564V120.912H199.809ZM212.578 130.605V131.699H201.367V130.605H206.303V128.459H202.734V124.562H209.926V122.84H202.707V121.773H211.211V125.602H204.02V127.393H211.498V128.459H207.588V130.605H212.578ZM224.664 127.051V128.104H219.811V130.482H218.498V128.104H213.453V127.051H224.664ZM223.42 131.836V132.902H214.861V129.307H216.16V131.836H223.42ZM219.045 121.199C221.684 121.199 223.393 122.156 223.393 123.688C223.393 125.219 221.684 126.162 219.045 126.162C216.42 126.162 214.684 125.219 214.684 123.688C214.684 122.156 216.42 121.199 219.045 121.199ZM219.045 122.238C217.254 122.238 216.064 122.785 216.078 123.688C216.064 124.576 217.254 125.109 219.045 125.109C220.85 125.109 222.025 124.576 222.025 123.688C222.025 122.785 220.85 122.238 219.045 122.238ZM235.205 122.648C235.205 124.645 237.338 126.531 239.689 126.955L239.088 128.035C237.133 127.611 235.328 126.326 234.535 124.604C233.729 126.312 231.931 127.598 229.969 128.035L229.395 126.955C231.719 126.518 233.838 124.645 233.838 122.648V121.719H235.205V122.648ZM240.195 130.469V131.549H228.984V130.469H240.195ZM251.297 120.912V133.189H250.012V126.504H247.578V125.438H250.012V120.912H251.297ZM247.373 122.006V123.059H242.957V125.438H246.854V126.477H242.957V129.211C245.008 129.204 246.43 129.156 248.057 128.869L248.193 129.922C246.416 130.209 244.871 130.277 242.602 130.291H241.645V122.006H247.373ZM263.328 120.912V133.189H262.029V120.912H263.328ZM259.828 122.047V123.127H255.275V129.074C257.6 129.067 259.083 129.006 260.812 128.691L260.949 129.771C259.117 130.1 257.518 130.182 254.975 130.182H253.963V122.047H259.828ZM278.408 122.156V123.469C278.408 125.055 278.408 126.777 277.957 129.389L276.631 129.266C277.123 126.818 277.123 125.014 277.123 123.469V123.223H269.904V122.156H278.408ZM279.871 130.346V131.426H268.701V130.346H279.871ZM291.998 126.928V127.967H287.021V129.348H285.736V127.967H280.787V126.928H291.998ZM283.535 128.678V129.922H289.305V128.678H290.59V133.012H282.25V128.678H283.535ZM283.535 132H289.305V130.906H283.535V132ZM290.59 121.145V124.057H283.508V125.082H290.836V126.066H282.223V123.113H289.291V122.143H282.195V121.145H290.59ZM298.479 121.117C301.24 121.117 302.854 121.855 302.854 123.223C302.854 124.59 301.24 125.342 298.479 125.342C295.717 125.342 294.104 124.59 294.104 123.223C294.104 121.855 295.717 121.117 298.479 121.117ZM298.479 122.074C296.523 122.074 295.443 122.498 295.457 123.223C295.443 123.975 296.523 124.371 298.479 124.371C300.434 124.371 301.514 123.975 301.514 123.223C301.514 122.498 300.434 122.074 298.479 122.074ZM304.07 126.094V127.133H292.9V126.094H304.07ZM302.662 128.076V130.947H295.525V132.041H303.004V133.039H294.254V130.004H301.377V129.047H294.24V128.076H302.662ZM318.904 120.912V133.162H317.66V126.805H316.143V132.574H314.926V121.24H316.143V125.752H317.66V120.912H318.904ZM313.709 122.471C313.695 125.697 312.629 128.582 309.129 130.564L308.377 129.662C311.098 128.124 312.246 126.039 312.451 123.537H308.896V122.471H313.709ZM330.73 120.912V127.215H329.432V124.07H326.848V123.018H329.432V120.912H330.73ZM330.73 127.789V130.838H324.018V131.973H331.154V133.012H322.746V129.854H329.445V128.814H322.719V127.789H330.73ZM324.824 122.375C324.824 123.934 325.945 125.383 327.791 125.971L327.107 126.982C325.761 126.518 324.742 125.595 324.209 124.426C323.669 125.738 322.616 126.771 321.174 127.27L320.477 126.23C322.391 125.615 323.525 124.098 323.539 122.375V121.309H324.824V122.375Z" fill="#0F0F0F"/>
<mask id="path-44-inside-15_1182_2177" fill="white">
<path d="M395 109H575V145H395V109Z"/>
</mask>
<path d="M395 109H575V145H395V109Z" fill="white"/>
<path d="M575 145V146H576V145H575ZM575 109H574V145H575H576V109H575ZM575 145V144H395V145V146H575V145Z" fill="#DCDCDC" mask="url(#path-44-inside-15_1182_2177)"/>
<path d="M417.672 122.648C417.672 124.645 419.805 126.531 422.156 126.955L421.555 128.035C419.6 127.611 417.795 126.326 417.002 124.604C416.195 126.312 414.397 127.598 412.436 128.035L411.861 126.955C414.186 126.518 416.305 124.645 416.305 122.648V121.719H417.672V122.648ZM422.662 130.469V131.549H411.451V130.469H422.662ZM433.764 120.912V133.189H432.479V126.504H430.045V125.438H432.479V120.912H433.764ZM429.84 122.006V123.059H425.424V125.438H429.32V126.477H425.424V129.211C427.475 129.204 428.896 129.156 430.523 128.869L430.66 129.922C428.883 130.209 427.338 130.277 425.068 130.291H424.111V122.006H429.84ZM445.795 120.912V133.189H444.496V120.912H445.795ZM442.295 122.047V123.127H437.742V129.074C440.066 129.067 441.55 129.006 443.279 128.691L443.416 129.771C441.584 130.1 439.984 130.182 437.441 130.182H436.43V122.047H442.295ZM457.963 120.912V128.145H456.664V126.326H453.998V127.324H448.311V121.828H453.998V122.84H456.664V120.912H457.963ZM449.596 122.867V126.285H452.727V122.867H449.596ZM453.861 128.486C456.432 128.486 458.004 129.334 458.004 130.824C458.004 132.301 456.432 133.148 453.861 133.135C451.291 133.148 449.705 132.301 449.719 130.824C449.705 129.334 451.291 128.486 453.861 128.486ZM453.861 129.484C452.07 129.498 451.004 129.963 451.004 130.824C451.004 131.645 452.07 132.137 453.861 132.137C455.652 132.137 456.719 131.645 456.719 130.824C456.719 129.963 455.652 129.498 453.861 129.484ZM453.998 125.273H456.664V123.879H453.998V125.273ZM462.051 131.057L460.957 134.83H459.795L460.52 131.057H462.051ZM476.598 121.418V125.615H473.07V127.037H478.02V128.09H466.85V127.037H471.785V125.615H468.271V121.418H476.598ZM469.543 122.443V124.576H475.312V122.443H469.543ZM476.652 129.252V133.162H475.34V130.277H468.094V129.252H476.652ZM490.16 130.646V131.713H478.949V130.646H481.957V127.926H479.934V126.873H481.766V123.059H479.906V121.992H489.135V123.059H487.262V126.873H489.094V127.926H487.084V130.646H490.16ZM483.051 126.873H485.99V123.059H483.051V126.873ZM483.256 130.646H485.785V127.926H483.256V130.646ZM493.25 131.057L492.156 134.83H490.994L491.719 131.057H493.25ZM509.26 130.551V131.631H498.049V130.551H502.984V127.721H499.334V121.896H507.92V127.721H504.27V130.551H509.26ZM500.592 122.936V126.695H506.648V122.936H500.592ZM514.688 122.867C514.688 124.385 515.877 125.807 517.764 126.354L517.107 127.365C515.679 126.935 514.599 125.998 514.045 124.795C513.491 126.08 512.397 127.099 510.928 127.584L510.271 126.559C512.172 125.971 513.361 124.48 513.375 122.867V122.73H510.627V121.678H517.381V122.73H514.688V122.867ZM520.307 120.912V127.543H519.008V120.912H520.307ZM513.566 128.117V129.484H519.021V128.117H520.307V133.012H512.295V128.117H513.566ZM513.566 131.959H519.021V130.51H513.566V131.959ZM532.406 120.926V129.826H531.107V120.926H532.406ZM532.775 131.85V132.902H524.395V128.924H525.707V131.85H532.775ZM525.762 121.746C527.607 121.746 529.016 123.004 529.016 124.781C529.016 126.586 527.607 127.83 525.762 127.83C523.916 127.83 522.494 126.586 522.494 124.781C522.494 123.004 523.916 121.746 525.762 121.746ZM525.762 122.881C524.613 122.881 523.766 123.66 523.766 124.781C523.766 125.93 524.613 126.695 525.762 126.695C526.883 126.695 527.744 125.93 527.744 124.781C527.744 123.66 526.883 122.881 525.762 122.881ZM544.533 120.926V130.209H543.234V129.033H540.773V128.117H543.234V120.926H544.533ZM544.834 131.85V132.902H535.988V129.307H537.273V131.85H544.834ZM534.293 126.518C536.562 126.504 539.611 126.477 542.223 126.148L542.305 127.078C541.259 127.249 540.158 127.365 539.078 127.434V129.826H537.779V127.502C536.59 127.557 535.448 127.563 534.457 127.557L534.293 126.518ZM538.299 121.391C540.09 121.391 541.334 122.252 541.334 123.551C541.334 124.85 540.09 125.684 538.299 125.684C536.48 125.684 535.25 124.85 535.25 123.551C535.25 122.252 536.48 121.391 538.299 121.391ZM538.299 122.361C537.205 122.348 536.467 122.812 536.48 123.551C536.467 124.275 537.205 124.727 538.299 124.727C539.352 124.727 540.09 124.275 540.104 123.551C540.09 122.812 539.352 122.348 538.299 122.361Z" fill="#0F0F0F"/>
<mask id="path-47-inside-16_1182_2177" fill="white">
<path d="M575 109H735V145H575V109Z"/>
</mask>
<path d="M575 109H735V145H575V109Z" fill="white"/>
<path d="M735 145V144H575V145V146H735V145Z" fill="#DCDCDC" mask="url(#path-47-inside-16_1182_2177)"/>
<path d="M597.672 122.648C597.672 124.645 599.805 126.531 602.156 126.955L601.555 128.035C599.6 127.611 597.795 126.326 597.002 124.604C596.195 126.312 594.397 127.598 592.436 128.035L591.861 126.955C594.186 126.518 596.305 124.645 596.305 122.648V121.719H597.672V122.648ZM602.662 130.469V131.549H591.451V130.469H602.662ZM613.764 120.912V133.189H612.479V126.504H610.045V125.438H612.479V120.912H613.764ZM609.84 122.006V123.059H605.424V125.438H609.32V126.477H605.424V129.211C607.475 129.204 608.896 129.156 610.523 128.869L610.66 129.922C608.883 130.209 607.338 130.277 605.068 130.291H604.111V122.006H609.84ZM625.795 120.912V133.189H624.496V120.912H625.795ZM622.295 122.047V123.127H617.742V129.074C620.066 129.067 621.55 129.006 623.279 128.691L623.416 129.771C621.584 130.1 619.984 130.182 617.441 130.182H616.43V122.047H622.295ZM633.232 122.102V132H631.729V122.102H633.232ZM638.455 132H635.242V122.102H638.551C641.463 122.102 643.213 123.961 643.213 127.037C643.213 130.127 641.463 132 638.455 132ZM636.746 130.688H638.373C640.615 130.688 641.723 129.375 641.723 127.037C641.723 124.713 640.615 123.414 638.455 123.414H636.746V130.688ZM645.92 131.057L644.826 134.83H643.664L644.389 131.057H645.92ZM660.426 122.156V123.469C660.426 125.055 660.426 126.777 659.975 129.389L658.648 129.266C659.141 126.818 659.141 125.014 659.141 123.469V123.223H651.922V122.156H660.426ZM661.889 130.346V131.426H650.719V130.346H661.889ZM674.016 126.928V127.967H669.039V129.348H667.754V127.967H662.805V126.928H674.016ZM665.553 128.678V129.922H671.322V128.678H672.607V133.012H664.268V128.678H665.553ZM665.553 132H671.322V130.906H665.553V132ZM672.607 121.145V124.057H665.525V125.082H672.854V126.066H664.24V123.113H671.309V122.143H664.213V121.145H672.607ZM688.549 120.912V128.199H687.25V125.096H684.967V124.029H687.25V120.912H688.549ZM684.447 128.541C687.018 128.541 688.59 129.389 688.59 130.852C688.59 132.314 687.018 133.148 684.447 133.162C681.877 133.148 680.291 132.314 680.305 130.852C680.291 129.389 681.877 128.541 684.447 128.541ZM684.447 129.553C682.656 129.553 681.59 130.018 681.59 130.852C681.59 131.672 682.656 132.15 684.447 132.137C686.238 132.15 687.305 131.672 687.305 130.852C687.305 130.018 686.238 129.553 684.447 129.553ZM682.725 123.072C682.725 124.631 683.832 126.135 685.678 126.764L685.008 127.789C683.634 127.311 682.622 126.333 682.096 125.123C681.556 126.497 680.482 127.598 679.02 128.131L678.336 127.092C680.236 126.436 681.398 124.781 681.398 123.086V122.812H678.746V121.76H685.35V122.812H682.725V123.072ZM701.646 130.564V131.645H690.436V130.564H695.371V128.049H691.721V121.746H693.02V123.852H699.035V121.746H700.32V128.049H696.656V130.564H701.646ZM693.02 126.996H699.035V124.904H693.02V126.996Z" fill="#0F0F0F"/>
<mask id="path-50-inside-17_1182_2177" fill="white">
<path d="M1 145H121V181H1V145Z"/>
</mask>
<path d="M1 145H121V181H1V145Z" fill="white"/>
<path d="M121 181V182H122V181H121ZM121 145H120V181H121H122V145H121ZM121 181V180H1V181V182H121V181Z" fill="#DCDCDC" mask="url(#path-50-inside-17_1182_2177)"/>
<path d="M23.6719 158.648C23.6719 160.645 25.8047 162.531 28.1562 162.955L27.5547 164.035C25.5996 163.611 23.7949 162.326 23.002 160.604C22.1953 162.312 20.3975 163.598 18.4355 164.035L17.8613 162.955C20.1855 162.518 22.3047 160.645 22.3047 158.648V157.719H23.6719V158.648ZM28.6621 166.469V167.549H17.4512V166.469H28.6621ZM39.7637 156.912V169.189H38.4785V162.504H36.0449V161.438H38.4785V156.912H39.7637ZM35.8398 158.006V159.059H31.4238V161.438H35.3203V162.477H31.4238V165.211C33.4746 165.204 34.8965 165.156 36.5234 164.869L36.6602 165.922C34.8828 166.209 33.3379 166.277 31.0684 166.291H30.1113V158.006H35.8398ZM51.7949 156.912V169.189H50.4961V156.912H51.7949ZM48.2949 158.047V159.127H43.7422V165.074C46.0664 165.067 47.5498 165.006 49.2793 164.691L49.416 165.771C47.584 166.1 45.9844 166.182 43.4414 166.182H42.4297V158.047H48.2949ZM63.498 157.678C63.498 160.795 61.3652 163.01 57.8105 164.008L57.2773 162.996C60.1006 162.203 61.8574 160.672 62.1172 158.744H57.9199V157.678H63.498ZM67.3809 156.926V163.857H66.082V161.068H63.5527V159.988H66.082V156.926H67.3809ZM67.3809 164.363V168.998H59.3691V164.363H67.3809ZM60.6406 165.402V167.959H66.0957V165.402H60.6406ZM73.0137 159.223C73.0137 160.604 73.8613 161.984 75.4473 162.6L74.75 163.598C73.6289 163.146 72.8359 162.299 72.3984 161.273C71.9404 162.415 71.1064 163.399 69.9238 163.912L69.2129 162.914C70.8672 162.189 71.7559 160.604 71.7559 159.223V157.65H73.0137V159.223ZM79.7129 156.926V164.322H78.4824V161.123H77.0469V164.254H75.8438V157.131H77.0469V160.043H78.4824V156.926H79.7129ZM79.7129 164.965V169.162H78.4277V166.018H71.3867V164.965H79.7129Z" fill="#0F0F0F"/>
<mask id="path-53-inside-18_1182_2177" fill="white">
<path d="M121 145H395V181H121V145Z"/>
</mask>
<path d="M121 145H395V181H121V145Z" fill="white"/>
<path d="M395 181V182H396V181H395ZM395 145H394V181H395H396V145H395ZM395 181V180H121V181V182H395V181Z" fill="#DCDCDC" mask="url(#path-53-inside-18_1182_2177)"/>
<path d="M141.703 160.029C141.689 162.203 142.947 164.418 144.779 165.307L143.973 166.346C142.64 165.655 141.607 164.281 141.074 162.641C140.521 164.391 139.447 165.854 138.053 166.578L137.246 165.525C139.133 164.623 140.404 162.271 140.404 160.029V157.938H141.703V160.029ZM146.994 156.912V161.793H148.963V162.9H146.994V169.162H145.695V156.912H146.994ZM160.721 162.887V163.939H149.551V162.887H152.23V161.232C151.287 160.85 150.754 160.234 150.754 159.428C150.754 157.979 152.436 157.131 155.129 157.131C157.809 157.131 159.504 157.979 159.504 159.428C159.504 160.234 158.964 160.856 158.014 161.232V162.887H160.721ZM155.129 164.773C157.768 164.773 159.354 165.553 159.354 166.947C159.354 168.369 157.768 169.135 155.129 169.135C152.463 169.135 150.877 168.369 150.877 166.947C150.877 165.553 152.463 164.773 155.129 164.773ZM155.129 165.771C153.256 165.771 152.189 166.195 152.189 166.947C152.189 167.713 153.256 168.15 155.129 168.137C156.975 168.15 158.055 167.713 158.055 166.947C158.055 166.195 156.975 165.771 155.129 165.771ZM155.129 158.129C153.229 158.129 152.08 158.607 152.094 159.428C152.08 160.248 153.229 160.713 155.129 160.713C157.029 160.713 158.164 160.248 158.164 159.428C158.164 158.607 157.029 158.129 155.129 158.129ZM153.543 162.887H156.729V161.574C156.25 161.656 155.71 161.697 155.129 161.697C154.555 161.697 154.021 161.656 153.543 161.588V162.887ZM165.916 160.521C165.916 162.463 167.188 164.623 169.047 165.498L168.309 166.51C166.935 165.847 165.848 164.466 165.301 162.859C164.733 164.616 163.585 166.127 162.184 166.824L161.418 165.799C163.277 164.91 164.631 162.6 164.631 160.521V159.223H161.869V158.143H168.582V159.223H165.916V160.521ZM171.193 156.912V161.766H173.162V162.859H171.193V169.162H169.895V156.912H171.193ZM183.293 156.912V161.793H185.193V162.873H183.293V169.148H181.994V156.912H183.293ZM180.094 158.197C180.08 161.738 178.521 164.896 174.488 166.893L173.764 165.881C176.833 164.35 178.501 162.135 178.768 159.277H174.379V158.197H180.094ZM196.09 157.842V158.525C196.076 159.346 196.076 160.562 195.775 162.148L194.49 162.025C194.757 160.665 194.798 159.681 194.818 158.908H189.91V157.842H196.09ZM192.959 160.59V163.119C194.271 163.078 195.625 162.982 196.855 162.805L196.938 163.748C194.381 164.199 191.455 164.24 189.295 164.254L189.172 163.201C189.924 163.194 190.778 163.188 191.674 163.16V160.59H192.959ZM198.961 156.912V160.809H200.643V161.902H198.961V166.113H197.635V156.912H198.961ZM199.357 167.85V168.902H191.031V165.279H192.33V167.85H199.357ZM211.525 156.926V163.857H210.227V156.926H211.525ZM211.525 164.514V169.012H203.473V164.514H211.525ZM204.758 165.553V167.959H210.254V165.553H204.758ZM205.824 158.58C205.811 160.234 207 161.725 208.859 162.354L208.217 163.352C206.795 162.88 205.729 161.909 205.168 160.645C204.621 161.991 203.534 163.064 202.064 163.584L201.422 162.559C203.336 161.916 204.498 160.289 204.498 158.58V157.391H205.824V158.58ZM221.137 165.006C221.137 166.059 221.656 167.173 222.764 167.836C223.892 167.118 224.445 165.942 224.445 165.006V164.418H225.717V165.006C225.717 166.277 226.551 167.508 228.15 168.027L227.508 168.984C226.298 168.567 225.478 167.754 225.047 166.742C224.657 167.733 223.926 168.629 222.805 169.094C221.629 168.649 220.884 167.781 220.508 166.783C220.063 167.747 219.257 168.561 218.102 168.984L217.445 168.027C219.018 167.467 219.865 166.195 219.879 165.006V164.418H221.137V165.006ZM227.043 156.926V163.898H225.744V156.926H227.043ZM220.398 157.596C222.271 157.596 223.652 158.785 223.652 160.494C223.652 162.189 222.271 163.365 220.398 163.365C218.525 163.365 217.131 162.189 217.131 160.494C217.131 158.785 218.525 157.596 220.398 157.596ZM220.398 158.703C219.236 158.689 218.402 159.414 218.402 160.494C218.402 161.561 219.236 162.285 220.398 162.285C221.547 162.285 222.381 161.561 222.381 160.494C222.381 159.414 221.547 158.689 220.398 158.703ZM238.896 160.494V161.533H230.461V157.35H231.746V160.494H238.896ZM240.182 163.078V164.117H228.971V163.078H240.182ZM238.979 167.809V168.875H230.365V165.279H231.664V167.809H238.979ZM250.723 158.648C250.723 160.645 252.855 162.531 255.207 162.955L254.605 164.035C252.65 163.611 250.846 162.326 250.053 160.604C249.246 162.312 247.448 163.598 245.486 164.035L244.912 162.955C247.236 162.518 249.355 160.645 249.355 158.648V157.719H250.723V158.648ZM255.713 166.469V167.549H244.502V166.469H255.713ZM266.814 156.912V169.189H265.529V162.504H263.096V161.438H265.529V156.912H266.814ZM262.891 158.006V159.059H258.475V161.438H262.371V162.477H258.475V165.211C260.525 165.204 261.947 165.156 263.574 164.869L263.711 165.922C261.934 166.209 260.389 166.277 258.119 166.291H257.162V158.006H262.891ZM278.846 156.912V169.189H277.547V156.912H278.846ZM275.346 158.047V159.127H270.793V165.074C273.117 165.067 274.601 165.006 276.33 164.691L276.467 165.771C274.635 166.1 273.035 166.182 270.492 166.182H269.48V158.047H275.346ZM291.998 162.531V163.529H280.787V162.531H291.998ZM290.617 164.391V167.084H283.426V168.096H291V169.012H282.127V166.223H289.332V165.32H282.113V164.391H290.617ZM290.59 157.227V159.879H283.508V160.809H290.795V161.725H282.223V159.018H289.291V158.143H282.195V157.227H290.59ZM302.648 157.678C302.648 160.795 300.516 163.01 296.961 164.008L296.428 162.996C299.251 162.203 301.008 160.672 301.268 158.744H297.07V157.678H302.648ZM306.531 156.926V163.857H305.232V161.068H302.703V159.988H305.232V156.926H306.531ZM306.531 164.363V168.998H298.52V164.363H306.531ZM299.791 165.402V167.959H305.246V165.402H299.791ZM312.164 159.223C312.164 160.604 313.012 161.984 314.598 162.6L313.9 163.598C312.779 163.146 311.986 162.299 311.549 161.273C311.091 162.415 310.257 163.399 309.074 163.912L308.363 162.914C310.018 162.189 310.906 160.604 310.906 159.223V157.65H312.164V159.223ZM318.863 156.926V164.322H317.633V161.123H316.197V164.254H314.994V157.131H316.197V160.043H317.633V156.926H318.863ZM318.863 164.965V169.162H317.578V166.018H310.537V164.965H318.863Z" fill="#0F0F0F"/>
<mask id="path-56-inside-19_1182_2177" fill="white">
<path d="M395 145H575V181H395V145Z"/>
</mask>
<path d="M395 145H575V181H395V145Z" fill="white"/>
<path d="M575 181V182H576V181H575ZM575 145H574V181H575H576V145H575ZM575 181V180H395V181V182H575V181Z" fill="#DCDCDC" mask="url(#path-56-inside-19_1182_2177)"/>
<path d="M417.781 157.678C417.781 160.795 415.648 163.01 412.094 164.008L411.561 162.996C414.384 162.203 416.141 160.672 416.4 158.744H412.203V157.678H417.781ZM421.664 156.926V163.857H420.365V161.068H417.836V159.988H420.365V156.926H421.664ZM421.664 164.363V168.998H413.652V164.363H421.664ZM414.924 165.402V167.959H420.379V165.402H414.924ZM427.297 159.223C427.297 160.604 428.145 161.984 429.73 162.6L429.033 163.598C427.912 163.146 427.119 162.299 426.682 161.273C426.224 162.415 425.39 163.399 424.207 163.912L423.496 162.914C425.15 162.189 426.039 160.604 426.039 159.223V157.65H427.297V159.223ZM433.996 156.926V164.322H432.766V161.123H431.33V164.254H430.127V157.131H431.33V160.043H432.766V156.926H433.996ZM433.996 164.965V169.162H432.711V166.018H425.67V164.965H433.996ZM438.973 157.828C440.634 157.828 441.851 159.236 442.049 161.506H444.578V156.912H445.863V169.189H444.578V162.559H442.062C441.919 164.944 440.675 166.428 438.973 166.428C437.141 166.428 435.855 164.76 435.869 162.121C435.855 159.496 437.141 157.828 438.973 157.828ZM438.973 158.99C437.865 158.99 437.1 160.193 437.1 162.121C437.1 164.062 437.865 165.266 438.973 165.266C440.08 165.266 440.846 164.062 440.846 162.121C440.846 160.193 440.08 158.99 438.973 158.99ZM449.951 167.057L448.857 170.83H447.695L448.42 167.057H449.951ZM464.936 156.912V163.242H463.623V156.912H464.936ZM464.936 163.803V166.838H458.113V168H465.359V169.039H456.842V165.895H463.65V164.828H456.801V163.803H464.936ZM461.941 157.719V158.744H460.766V161.643C461.36 161.602 461.948 161.547 462.502 161.479L462.557 162.422C460.109 162.791 457.252 162.873 455.105 162.873L454.955 161.834L456.445 161.82V158.744H455.283V157.719H461.941ZM457.689 161.793C458.291 161.772 458.906 161.752 459.521 161.711V158.744H457.689V161.793ZM477.062 156.912V169.189H475.777V162.504H473.344V161.438H475.777V156.912H477.062ZM473.139 158.006V159.059H468.723V161.438H472.619V162.477H468.723V165.211C470.773 165.204 472.195 165.156 473.822 164.869L473.959 165.922C472.182 166.209 470.637 166.277 468.367 166.291H467.41V158.006H473.139ZM493.578 166.564V167.631H482.367V166.564H487.316V163.666H488.615V166.564H493.578ZM488.629 159.141C488.629 161.014 490.748 162.682 493.086 163.051L492.566 164.076C490.591 163.7 488.766 162.552 487.973 160.945C487.173 162.572 485.361 163.755 483.42 164.131L482.887 163.105C485.17 162.723 487.275 161.014 487.275 159.141V159.031H483.297V157.965H492.607V159.031H488.629V159.141ZM504.68 156.926V165.949H503.381V161.697H500.838V160.617H503.381V156.926H504.68ZM500.92 157.842C500.906 161.041 498.705 163.447 495.191 164.582L494.645 163.543C497.372 162.661 499.225 160.993 499.498 158.922H495.273V157.842H500.92ZM504.994 167.85V168.902H496.791V165.02H498.104V167.85H504.994Z" fill="#0F0F0F"/>
<mask id="path-59-inside-20_1182_2177" fill="white">
<path d="M575 145H735V181H575V145Z"/>
</mask>
<path d="M575 145H735V181H575V145Z" fill="white"/>
<path d="M735 181V180H575V181V182H735V181Z" fill="#DCDCDC" mask="url(#path-59-inside-20_1182_2177)"/>
<path d="M597.781 157.678C597.781 160.795 595.648 163.01 592.094 164.008L591.561 162.996C594.384 162.203 596.141 160.672 596.4 158.744H592.203V157.678H597.781ZM601.664 156.926V163.857H600.365V161.068H597.836V159.988H600.365V156.926H601.664ZM601.664 164.363V168.998H593.652V164.363H601.664ZM594.924 165.402V167.959H600.379V165.402H594.924ZM607.297 159.223C607.297 160.604 608.145 161.984 609.73 162.6L609.033 163.598C607.912 163.146 607.119 162.299 606.682 161.273C606.224 162.415 605.39 163.399 604.207 163.912L603.496 162.914C605.15 162.189 606.039 160.604 606.039 159.223V157.65H607.297V159.223ZM613.996 156.926V164.322H612.766V161.123H611.33V164.254H610.127V157.131H611.33V160.043H612.766V156.926H613.996ZM613.996 164.965V169.162H612.711V166.018H605.67V164.965H613.996ZM629.281 156.912V163.146H627.982V161.971H624.879V160.959H627.982V159.633H625.029C624.271 161.533 622.425 162.784 619.711 163.42L619.26 162.354C622.199 161.704 623.792 160.344 624.004 158.539H619.902V157.473H625.426C625.426 157.869 625.392 158.245 625.33 158.607H627.982V156.912H629.281ZM629.281 163.666V166.77H622.582V168H629.65V169.039H621.297V165.785H627.982V164.691H621.27V163.666H629.281ZM637.99 158.225V158.977C637.99 160.002 637.99 161.588 637.635 163.775L636.35 163.68C636.657 161.718 636.691 160.303 636.705 159.277H631.729V158.225H637.99ZM634.846 161.725V165.389C636.151 165.348 637.478 165.259 638.701 165.102L638.77 166.072C636.213 166.482 633.369 166.537 631.195 166.523L631.045 165.471C631.811 165.464 632.665 165.457 633.561 165.43V161.725H634.846ZM640.711 156.912V161.971H642.584V163.078H640.711V169.162H639.398V156.912H640.711ZM656.857 156.912V169.189H655.559V156.912H656.857ZM653.111 158.02V162.49H648.709V165.17C650.691 165.163 652.428 165.074 654.479 164.732L654.602 165.799C652.428 166.168 650.582 166.25 648.422 166.25H647.383V161.451H651.785V159.072H647.369V158.02H653.111ZM665.006 158.648C665.006 160.645 667.139 162.531 669.49 162.955L668.889 164.035C666.934 163.611 665.129 162.326 664.336 160.604C663.529 162.312 661.731 163.598 659.77 164.035L659.195 162.955C661.52 162.518 663.639 160.645 663.639 158.648V157.719H665.006V158.648ZM669.996 166.469V167.549H658.785V166.469H669.996ZM680.824 163.434V164.473H672.293V157.924H680.701V158.977H673.605V160.631H680.441V161.656H673.605V163.434H680.824ZM682.096 166.551V167.617H670.885V166.551H682.096Z" fill="#0F0F0F"/>
<mask id="path-62-inside-21_1182_2177" fill="white">
<path d="M1 181H121V217H13.8C9.31958 217 7.07937 217 5.36808 216.128C3.86278 215.361 2.63893 214.137 1.87195 212.632C1 210.921 1 208.68 1 204.2V181Z"/>
</mask>
<path d="M1 181H121V217H13.8C9.31958 217 7.07937 217 5.36808 216.128C3.86278 215.361 2.63893 214.137 1.87195 212.632C1 210.921 1 208.68 1 204.2V181Z" fill="white"/>
<path d="M1 181H121H1ZM121 217H1H121ZM1 217V181V217ZM122 181V217H120V181H122Z" fill="#DCDCDC" mask="url(#path-62-inside-21_1182_2177)"/>
<path d="M23.6719 194.648C23.6719 196.645 25.8047 198.531 28.1562 198.955L27.5547 200.035C25.5996 199.611 23.7949 198.326 23.002 196.604C22.1953 198.312 20.3975 199.598 18.4355 200.035L17.8613 198.955C20.1855 198.518 22.3047 196.645 22.3047 194.648V193.719H23.6719V194.648ZM28.6621 202.469V203.549H17.4512V202.469H28.6621ZM39.7637 192.912V205.189H38.4785V198.504H36.0449V197.438H38.4785V192.912H39.7637ZM35.8398 194.006V195.059H31.4238V197.438H35.3203V198.477H31.4238V201.211C33.4746 201.204 34.8965 201.156 36.5234 200.869L36.6602 201.922C34.8828 202.209 33.3379 202.277 31.0684 202.291H30.1113V194.006H35.8398ZM51.7949 192.912V205.189H50.4961V192.912H51.7949ZM48.2949 194.047V195.127H43.7422V201.074C46.0664 201.067 47.5498 201.006 49.2793 200.691L49.416 201.771C47.584 202.1 45.9844 202.182 43.4414 202.182H42.4297V194.047H48.2949ZM67.3262 192.926V201.895H66.0273V192.926H67.3262ZM67.6953 203.85V204.902H59.3145V201.047H60.627V203.85H67.6953ZM61.625 194.812C61.6113 196.604 62.7598 198.244 64.6465 198.9L63.9766 199.939C62.5615 199.413 61.5156 198.374 60.9688 197.041C60.4287 198.463 59.3691 199.604 57.9336 200.158L57.2363 199.133C59.1641 198.422 60.2988 196.658 60.2988 194.812V193.596H61.625V194.812ZM73.5605 195.523C73.5605 196.959 74.75 198.312 76.6094 198.832L75.9941 199.844C74.5791 199.44 73.5059 198.565 72.9453 197.438C72.4121 198.702 71.3457 199.7 69.8828 200.158L69.2676 199.16C71.127 198.559 72.2754 197.096 72.2754 195.523V195.373H69.6094V194.334H72.2754V192.857H73.5742V194.334H76.2266V195.373H73.5605V195.523ZM79.4805 192.912V200.336H78.1816V197.41H75.8438V196.344H78.1816V192.912H79.4805ZM75.3789 200.609C77.9355 200.609 79.5215 201.43 79.5215 202.865C79.5215 204.314 77.9355 205.148 75.3789 205.135C72.8086 205.148 71.2227 204.314 71.2363 202.865C71.2227 201.43 72.8086 200.609 75.3789 200.609ZM75.3789 201.621C73.5879 201.621 72.5215 202.072 72.5215 202.865C72.5215 203.658 73.5879 204.137 75.3789 204.137C77.1836 204.137 78.2363 203.658 78.2363 202.865C78.2363 202.072 77.1836 201.621 75.3789 201.621Z" fill="#0F0F0F"/>
<mask id="path-65-inside-22_1182_2177" fill="white">
<path d="M121 181H395V217H121V181Z"/>
</mask>
<path d="M121 181H395V217H121V181Z" fill="white"/>
<path d="M395 181H394V217H395H396V181H395Z" fill="#DCDCDC" mask="url(#path-65-inside-22_1182_2177)"/>
<path d="M141.703 196.029C141.689 198.203 142.947 200.418 144.779 201.307L143.973 202.346C142.64 201.655 141.607 200.281 141.074 198.641C140.521 200.391 139.447 201.854 138.053 202.578L137.246 201.525C139.133 200.623 140.404 198.271 140.404 196.029V193.938H141.703V196.029ZM146.994 192.912V197.793H148.963V198.9H146.994V205.162H145.695V192.912H146.994ZM160.721 198.887V199.939H149.551V198.887H152.23V197.232C151.287 196.85 150.754 196.234 150.754 195.428C150.754 193.979 152.436 193.131 155.129 193.131C157.809 193.131 159.504 193.979 159.504 195.428C159.504 196.234 158.964 196.856 158.014 197.232V198.887H160.721ZM155.129 200.773C157.768 200.773 159.354 201.553 159.354 202.947C159.354 204.369 157.768 205.135 155.129 205.135C152.463 205.135 150.877 204.369 150.877 202.947C150.877 201.553 152.463 200.773 155.129 200.773ZM155.129 201.771C153.256 201.771 152.189 202.195 152.189 202.947C152.189 203.713 153.256 204.15 155.129 204.137C156.975 204.15 158.055 203.713 158.055 202.947C158.055 202.195 156.975 201.771 155.129 201.771ZM155.129 194.129C153.229 194.129 152.08 194.607 152.094 195.428C152.08 196.248 153.229 196.713 155.129 196.713C157.029 196.713 158.164 196.248 158.164 195.428C158.164 194.607 157.029 194.129 155.129 194.129ZM153.543 198.887H156.729V197.574C156.25 197.656 155.71 197.697 155.129 197.697C154.555 197.697 154.021 197.656 153.543 197.588V198.887ZM165.916 196.521C165.916 198.463 167.188 200.623 169.047 201.498L168.309 202.51C166.935 201.847 165.848 200.466 165.301 198.859C164.733 200.616 163.585 202.127 162.184 202.824L161.418 201.799C163.277 200.91 164.631 198.6 164.631 196.521V195.223H161.869V194.143H168.582V195.223H165.916V196.521ZM171.193 192.912V197.766H173.162V198.859H171.193V205.162H169.895V192.912H171.193ZM183.293 192.912V197.793H185.193V198.873H183.293V205.148H181.994V192.912H183.293ZM180.094 194.197C180.08 197.738 178.521 200.896 174.488 202.893L173.764 201.881C176.833 200.35 178.501 198.135 178.768 195.277H174.379V194.197H180.094ZM199.453 192.926V202.209H198.154V201.033H195.693V200.117H198.154V192.926H199.453ZM199.754 203.85V204.902H190.908V201.307H192.193V203.85H199.754ZM189.213 198.518C191.482 198.504 194.531 198.477 197.143 198.148L197.225 199.078C196.179 199.249 195.078 199.365 193.998 199.434V201.826H192.699V199.502C191.51 199.557 190.368 199.563 189.377 199.557L189.213 198.518ZM193.219 193.391C195.01 193.391 196.254 194.252 196.254 195.551C196.254 196.85 195.01 197.684 193.219 197.684C191.4 197.684 190.17 196.85 190.17 195.551C190.17 194.252 191.4 193.391 193.219 193.391ZM193.219 194.361C192.125 194.348 191.387 194.812 191.4 195.551C191.387 196.275 192.125 196.727 193.219 196.727C194.271 196.727 195.01 196.275 195.023 195.551C195.01 194.812 194.271 194.348 193.219 194.361ZM210.91 192.912V197.875H212.879V198.955H210.91V205.162H209.625V192.912H210.91ZM208.559 194.826V195.893H201.299V194.826H204.32V193.076H205.619V194.826H208.559ZM204.977 196.795C206.727 196.795 208.012 197.971 208.025 199.639C208.012 201.32 206.727 202.482 204.977 202.496C203.213 202.482 201.928 201.32 201.928 199.639C201.928 197.971 203.213 196.795 204.977 196.795ZM204.977 197.861C203.938 197.861 203.158 198.586 203.172 199.639C203.158 200.705 203.938 201.416 204.977 201.402C206.016 201.416 206.781 200.705 206.781 199.639C206.781 198.586 206.016 197.861 204.977 197.861ZM223.379 196.494V197.533H214.943V193.35H216.229V196.494H223.379ZM224.664 199.078V200.117H213.453V199.078H224.664ZM223.461 203.809V204.875H214.848V201.279H216.146V203.809H223.461ZM235.205 194.648C235.205 196.645 237.338 198.531 239.689 198.955L239.088 200.035C237.133 199.611 235.328 198.326 234.535 196.604C233.729 198.312 231.931 199.598 229.969 200.035L229.395 198.955C231.719 198.518 233.838 196.645 233.838 194.648V193.719H235.205V194.648ZM240.195 202.469V203.549H228.984V202.469H240.195ZM251.297 192.912V205.189H250.012V198.504H247.578V197.438H250.012V192.912H251.297ZM247.373 194.006V195.059H242.957V197.438H246.854V198.477H242.957V201.211C245.008 201.204 246.43 201.156 248.057 200.869L248.193 201.922C246.416 202.209 244.871 202.277 242.602 202.291H241.645V194.006H247.373ZM263.328 192.912V205.189H262.029V192.912H263.328ZM259.828 194.047V195.127H255.275V201.074C257.6 201.067 259.083 201.006 260.812 200.691L260.949 201.771C259.117 202.1 257.518 202.182 254.975 202.182H253.963V194.047H259.828ZM275.824 192.912V205.162H274.58V192.912H275.824ZM273.336 193.145V204.561H272.092V198.654H270.711C270.602 201.047 269.576 202.537 268.059 202.523C266.459 202.537 265.42 200.855 265.42 198.203C265.42 195.551 266.459 193.883 268.059 193.896C269.549 193.883 270.561 195.298 270.711 197.602H272.092V193.145H273.336ZM268.059 195.113C267.17 195.113 266.623 196.248 266.623 198.203C266.623 200.158 267.17 201.293 268.059 201.293C268.961 201.293 269.521 200.158 269.521 198.203C269.521 196.248 268.961 195.113 268.059 195.113ZM290.344 192.912V197.793H292.244V198.873H290.344V205.148H289.045V192.912H290.344ZM287.145 194.197C287.131 197.738 285.572 200.896 281.539 202.893L280.814 201.881C283.884 200.35 285.552 198.135 285.818 195.277H281.43V194.197H287.145ZM303.059 192.912V199.488H301.76V192.912H303.059ZM296.318 200.076V201.457H301.773V200.076H303.059V205.012H295.047V200.076H296.318ZM296.318 203.945H301.773V202.482H296.318V203.945ZM296.414 193.473C298.287 193.473 299.668 194.635 299.668 196.316C299.668 197.998 298.287 199.16 296.414 199.146C294.541 199.16 293.146 197.998 293.146 196.316C293.146 194.635 294.541 193.473 296.414 193.473ZM296.414 194.566C295.252 194.553 294.418 195.277 294.418 196.316C294.418 197.369 295.252 198.08 296.414 198.08C297.562 198.08 298.396 197.369 298.396 196.316C298.396 195.277 297.562 194.553 296.414 194.566ZM319.629 202.551V203.631H308.418V202.551H311.098V199.352C310.093 198.798 309.484 197.916 309.484 196.822C309.484 194.895 311.371 193.623 313.996 193.623C316.635 193.623 318.521 194.895 318.521 196.822C318.521 197.902 317.934 198.771 316.949 199.324V202.551H319.629ZM313.996 194.662C312.068 194.662 310.742 195.496 310.742 196.822C310.742 198.135 312.068 198.996 313.996 198.996C315.91 198.996 317.264 198.135 317.264 196.822C317.264 195.496 315.91 194.662 313.996 194.662ZM312.383 202.551H315.637V199.816C315.138 199.946 314.584 200.008 313.996 200.008C313.422 200.008 312.875 199.946 312.383 199.83V202.551ZM324.811 195.523C324.811 196.959 326 198.312 327.859 198.832L327.244 199.844C325.829 199.44 324.756 198.565 324.195 197.438C323.662 198.702 322.596 199.7 321.133 200.158L320.518 199.16C322.377 198.559 323.525 197.096 323.525 195.523V195.373H320.859V194.334H323.525V192.857H324.824V194.334H327.477V195.373H324.811V195.523ZM330.73 192.912V200.336H329.432V197.41H327.094V196.344H329.432V192.912H330.73ZM326.629 200.609C329.186 200.609 330.771 201.43 330.771 202.865C330.771 204.314 329.186 205.148 326.629 205.135C324.059 205.148 322.473 204.314 322.486 202.865C322.473 201.43 324.059 200.609 326.629 200.609ZM326.629 201.621C324.838 201.621 323.771 202.072 323.771 202.865C323.771 203.658 324.838 204.137 326.629 204.137C328.434 204.137 329.486 203.658 329.486 202.865C329.486 202.072 328.434 201.621 326.629 201.621Z" fill="#0F0F0F"/>
<mask id="path-68-inside-23_1182_2177" fill="white">
<path d="M395 181H575V217H395V181Z"/>
</mask>
<path d="M395 181H575V217H395V181Z" fill="white"/>
<path d="M575 181H574V217H575H576V181H575Z" fill="#DCDCDC" mask="url(#path-68-inside-23_1182_2177)"/>
<path d="M415.703 196.029C415.689 198.203 416.947 200.418 418.779 201.307L417.973 202.346C416.64 201.655 415.607 200.281 415.074 198.641C414.521 200.391 413.447 201.854 412.053 202.578L411.246 201.525C413.133 200.623 414.404 198.271 414.404 196.029V193.938H415.703V196.029ZM420.994 192.912V197.793H422.963V198.9H420.994V205.162H419.695V192.912H420.994ZM434.721 198.887V199.939H423.551V198.887H426.23V197.232C425.287 196.85 424.754 196.234 424.754 195.428C424.754 193.979 426.436 193.131 429.129 193.131C431.809 193.131 433.504 193.979 433.504 195.428C433.504 196.234 432.964 196.856 432.014 197.232V198.887H434.721ZM429.129 200.773C431.768 200.773 433.354 201.553 433.354 202.947C433.354 204.369 431.768 205.135 429.129 205.135C426.463 205.135 424.877 204.369 424.877 202.947C424.877 201.553 426.463 200.773 429.129 200.773ZM429.129 201.771C427.256 201.771 426.189 202.195 426.189 202.947C426.189 203.713 427.256 204.15 429.129 204.137C430.975 204.15 432.055 203.713 432.055 202.947C432.055 202.195 430.975 201.771 429.129 201.771ZM429.129 194.129C427.229 194.129 426.08 194.607 426.094 195.428C426.08 196.248 427.229 196.713 429.129 196.713C431.029 196.713 432.164 196.248 432.164 195.428C432.164 194.607 431.029 194.129 429.129 194.129ZM427.543 198.887H430.729V197.574C430.25 197.656 429.71 197.697 429.129 197.697C428.555 197.697 428.021 197.656 427.543 197.588V198.887ZM439.916 196.521C439.916 198.463 441.188 200.623 443.047 201.498L442.309 202.51C440.935 201.847 439.848 200.466 439.301 198.859C438.733 200.616 437.585 202.127 436.184 202.824L435.418 201.799C437.277 200.91 438.631 198.6 438.631 196.521V195.223H435.869V194.143H442.582V195.223H439.916V196.521ZM445.193 192.912V197.766H447.162V198.859H445.193V205.162H443.895V192.912H445.193ZM453.232 194.102V204H451.729V194.102H453.232ZM458.455 204H455.242V194.102H458.551C461.463 194.102 463.213 195.961 463.213 199.037C463.213 202.127 461.463 204 458.455 204ZM456.746 202.688H458.373C460.615 202.688 461.723 201.375 461.723 199.037C461.723 196.713 460.615 195.414 458.455 195.414H456.746V202.688ZM465.92 203.057L464.826 206.83H463.664L464.389 203.057H465.92ZM476.939 194.648C476.939 196.645 479.072 198.531 481.424 198.955L480.822 200.035C478.867 199.611 477.062 198.326 476.27 196.604C475.463 198.312 473.665 199.598 471.703 200.035L471.129 198.955C473.453 198.518 475.572 196.645 475.572 194.648V193.719H476.939V194.648ZM481.93 202.469V203.549H470.719V202.469H481.93ZM493.031 192.912V205.189H491.746V198.504H489.312V197.438H491.746V192.912H493.031ZM489.107 194.006V195.059H484.691V197.438H488.588V198.477H484.691V201.211C486.742 201.204 488.164 201.156 489.791 200.869L489.928 201.922C488.15 202.209 486.605 202.277 484.336 202.291H483.379V194.006H489.107ZM505.062 192.912V205.189H503.764V192.912H505.062ZM501.562 194.047V195.127H497.01V201.074C499.334 201.067 500.817 201.006 502.547 200.691L502.684 201.771C500.852 202.1 499.252 202.182 496.709 202.182H495.697V194.047H501.562ZM512.5 194.102V204H510.996V194.102H512.5ZM517.723 204H514.51V194.102H517.818C520.73 194.102 522.48 195.961 522.48 199.037C522.48 202.127 520.73 204 517.723 204ZM516.014 202.688H517.641C519.883 202.688 520.99 201.375 520.99 199.037C520.99 196.713 519.883 195.414 517.723 195.414H516.014V202.688Z" fill="#0F0F0F"/>
<path d="M575 181H735V204.2C735 208.68 735 210.921 734.128 212.632C733.361 214.137 732.137 215.361 730.632 216.128C728.921 217 726.68 217 722.2 217H575V181Z" fill="white"/>
<path d="M601.609 192.926V201.895H600.311V192.926H601.609ZM601.979 203.85V204.902H593.598V201.047H594.91V203.85H601.979ZM595.908 194.812C595.895 196.604 597.043 198.244 598.93 198.9L598.26 199.939C596.845 199.413 595.799 198.374 595.252 197.041C594.712 198.463 593.652 199.604 592.217 200.158L591.52 199.133C593.447 198.422 594.582 196.658 594.582 194.812V193.596H595.908V194.812ZM607.844 195.523C607.844 196.959 609.033 198.312 610.893 198.832L610.277 199.844C608.862 199.44 607.789 198.565 607.229 197.438C606.695 198.702 605.629 199.7 604.166 200.158L603.551 199.16C605.41 198.559 606.559 197.096 606.559 195.523V195.373H603.893V194.334H606.559V192.857H607.857V194.334H610.51V195.373H607.844V195.523ZM613.764 192.912V200.336H612.465V197.41H610.127V196.344H612.465V192.912H613.764ZM609.662 200.609C612.219 200.609 613.805 201.43 613.805 202.865C613.805 204.314 612.219 205.148 609.662 205.135C607.092 205.148 605.506 204.314 605.52 202.865C605.506 201.43 607.092 200.609 609.662 200.609ZM609.662 201.621C607.871 201.621 606.805 202.072 606.805 202.865C606.805 203.658 607.871 204.137 609.662 204.137C611.467 204.137 612.52 203.658 612.52 202.865C612.52 202.072 611.467 201.621 609.662 201.621ZM629.281 192.912V199.146H627.982V197.971H624.879V196.959H627.982V195.633H625.029C624.271 197.533 622.425 198.784 619.711 199.42L619.26 198.354C622.199 197.704 623.792 196.344 624.004 194.539H619.902V193.473H625.426C625.426 193.869 625.392 194.245 625.33 194.607H627.982V192.912H629.281ZM629.281 199.666V202.77H622.582V204H629.65V205.039H621.297V201.785H627.982V200.691H621.27V199.666H629.281ZM637.99 194.225V194.977C637.99 196.002 637.99 197.588 637.635 199.775L636.35 199.68C636.657 197.718 636.691 196.303 636.705 195.277H631.729V194.225H637.99ZM634.846 197.725V201.389C636.151 201.348 637.478 201.259 638.701 201.102L638.77 202.072C636.213 202.482 633.369 202.537 631.195 202.523L631.045 201.471C631.811 201.464 632.665 201.457 633.561 201.43V197.725H634.846ZM640.711 192.912V197.971H642.584V199.078H640.711V205.162H639.398V192.912H640.711ZM644.006 200.227C644.02 197.656 644.744 195.51 646.029 193.678H647.369C646.426 195.031 645.523 197.793 645.523 200.227C645.523 202.674 646.426 205.422 647.369 206.789H646.029C644.744 204.957 644.02 202.811 644.006 200.227ZM654.52 193.623C654.52 195.086 656.488 196.494 658.812 196.781L658.334 197.807C656.379 197.52 654.649 196.562 653.863 195.236C653.077 196.569 651.354 197.52 649.393 197.807L648.887 196.781C651.238 196.494 653.193 195.113 653.193 193.623V193.117H654.52V193.623ZM659.441 198.695V199.734H648.271V198.695H659.441ZM653.85 200.773C656.488 200.773 658.074 201.553 658.074 202.961C658.074 204.369 656.488 205.148 653.85 205.162C651.184 205.148 649.598 204.369 649.598 202.961C649.598 201.553 651.184 200.773 653.85 200.773ZM653.85 201.771C651.977 201.771 650.91 202.195 650.91 202.961C650.91 203.74 651.977 204.15 653.85 204.137C655.695 204.15 656.775 203.74 656.775 202.961C656.775 202.195 655.695 201.771 653.85 201.771ZM670.529 192.926V201.826H669.23V192.926H670.529ZM670.898 203.85V204.902H662.518V200.924H663.83V203.85H670.898ZM663.885 193.746C665.73 193.746 667.139 195.004 667.139 196.781C667.139 198.586 665.73 199.83 663.885 199.83C662.039 199.83 660.617 198.586 660.617 196.781C660.617 195.004 662.039 193.746 663.885 193.746ZM663.885 194.881C662.736 194.881 661.889 195.66 661.889 196.781C661.889 197.93 662.736 198.695 663.885 198.695C665.006 198.695 665.867 197.93 665.867 196.781C665.867 195.66 665.006 194.881 663.885 194.881ZM676.682 193.637L673.496 205.49H672.197L675.383 193.637H676.682ZM687.838 192.912V205.162H686.594V198.832H685.008V204.533H683.818V193.158H685.008V197.766H686.594V192.912H687.838ZM682.328 194.389V195.441H679.033V201.115C680.537 201.102 681.672 201.033 682.984 200.787L683.08 201.854C681.604 202.154 680.346 202.209 678.555 202.223H677.734V194.389H682.328ZM699.609 192.912V205.162H698.297V192.912H699.609ZM695.959 194.225C695.959 197.807 694.428 200.924 690.23 202.934L689.547 201.881C692.808 200.329 694.394 198.121 694.646 195.264H690.135V194.225H695.959ZM704.887 200.227C704.873 202.811 704.148 204.957 702.863 206.789H701.523C702.467 205.422 703.369 202.674 703.369 200.227C703.369 197.793 702.467 195.031 701.523 193.678H702.863C704.148 195.51 704.873 197.656 704.887 200.227Z" fill="#0F0F0F"/>
</svg>
