<svg width="509" height="180" viewBox="0 0 509 180" fill="none" xmlns="http://www.w3.org/2000/svg">
<rect width="509" height="180" rx="8" fill="white"/>
<rect x="16" y="12" width="53" height="29" rx="4" fill="#F7F7F7"/>
<path d="M25.0117 31V21.1016H31.2188V22.4004H26.5156V25.3945H30.8906V26.6797H26.5156V29.7012H31.2734V31H25.0117ZM32.9414 33.7891V23.5762H34.3633V24.7793H34.4863C34.7461 24.3145 35.252 23.4805 36.6191 23.4805C38.4102 23.4805 39.7363 24.8887 39.7363 27.3086C39.7363 29.7012 38.4375 31.1504 36.6328 31.1504C35.2793 31.1504 34.7461 30.3301 34.4863 29.8379H34.4043V33.7891H32.9414ZM34.377 27.2812C34.377 28.8398 35.0605 29.9062 36.3047 29.9062C37.5898 29.9062 38.2598 28.7715 38.2598 27.2812C38.2598 25.8184 37.6035 24.7246 36.3047 24.7246C35.0469 24.7246 34.377 25.7363 34.377 27.2812ZM41.1855 31V23.5762H42.6484V31H41.1855ZM41.9238 22.4277C41.418 22.4277 40.9941 22.0449 40.9941 21.5664C40.9941 21.0879 41.418 20.7051 41.9238 20.7051C42.416 20.7051 42.8398 21.0879 42.8398 21.5664C42.8398 22.0449 42.416 22.4277 41.9238 22.4277ZM47.5703 31.1504C45.4102 31.1504 44.0977 29.5508 44.0977 27.3223C44.0977 25.0527 45.4512 23.4805 47.543 23.4805C49.2383 23.4805 50.4688 24.4785 50.6191 25.9824H49.1973C49.0469 25.2852 48.4863 24.6973 47.5703 24.6973C46.3672 24.6973 45.5605 25.6953 45.5605 27.2812C45.5605 28.9082 46.3535 29.9062 47.5703 29.9062C48.3906 29.9062 49.0195 29.4551 49.1973 28.6484H50.6191C50.4551 30.084 49.3203 31.1504 47.5703 31.1504ZM59.1641 21.1016V31H57.6465V22.6055H57.5918L55.2266 24.1504V22.7148L57.6875 21.1016H59.1641Z" fill="#0F0F0F"/>
<path d="M92.7969 21.0312V22.7344C92.7969 24.6875 92.7969 26.625 92.2812 29.5625L90.2656 29.3906C90.7969 26.6562 90.7969 24.625 90.8125 22.7344V22.625H82.7656V21.0312H92.7969ZM94.3906 30.4375V32.0781H81.4219V30.4375H94.3906ZM108.25 26.5938V28.1719H102.703V29.4062H100.734V28.1719H95.2344V26.5938H108.25ZM98.8281 28.7812V29.9531H104.719V28.7812H106.688V33.7812H96.8594V28.7812H98.8281ZM98.8281 32.2656H104.719V31.4062H98.8281V32.2656ZM106.672 19.9219V23.5781H98.8438V24.4062H106.938V25.875H96.8594V22.1875H104.672V21.4219H96.8281V19.9219H106.672ZM125.094 19.7188V33.9375H123.188V26.7656H121.906V33.2812H120.016V19.9219H121.906V25.1406H123.188V19.7188H125.094ZM118.828 21.1875V30.3594H113.172V21.1875H118.828ZM115.031 22.7656V28.7969H116.969V22.7656H115.031ZM135.031 21.2031V22.7812H132.125C132.172 24.2266 133.266 25.7031 135.547 26.2969L134.625 27.8281C132.984 27.4062 131.828 26.4922 131.172 25.3125C130.531 26.625 129.367 27.6641 127.672 28.1406L126.719 26.5938C128.984 25.9688 130.055 24.3672 130.109 22.7812H127.203V21.2031H130.109V19.7344H132.141V21.2031H135.031ZM138.5 19.7344V28.3125H136.5V19.7344H138.5ZM133.656 28.5312C136.672 28.5312 138.531 29.5312 138.547 31.2344C138.531 32.9531 136.672 33.9375 133.656 33.9375C130.625 33.9375 128.766 32.9531 128.766 31.2344C128.766 29.5312 130.625 28.5312 133.656 28.5312ZM133.656 30.0781C131.75 30.0781 130.766 30.4688 130.766 31.2344C130.766 32.0156 131.75 32.4219 133.656 32.4219C135.562 32.4219 136.578 32.0156 136.578 31.2344C136.578 30.4688 135.562 30.0781 133.656 30.0781ZM149.641 22.9375C149.641 25.5469 150.828 28.1719 153.234 29.1875L152.062 30.7812C150.438 30.0469 149.312 28.6328 148.672 26.875C148.023 28.7891 146.859 30.3359 145.125 31.125L143.922 29.4688C146.406 28.4219 147.609 25.7031 147.625 22.9375V20.8125H149.641V22.9375ZM156.016 19.7188V33.9688H154V19.7188H156.016ZM165.422 21.5938C165.422 23.6719 167.266 25.9062 170.484 26.4531L169.609 28.1094C167.133 27.6172 165.289 26.2266 164.375 24.3906C163.43 26.2109 161.586 27.6094 159.125 28.1094L158.266 26.4531C161.422 25.8906 163.281 23.6562 163.297 21.5938V20.5625H165.422V21.5938ZM170.953 30.5469V32.1875H157.938V30.5469H170.953ZM177.75 20.5625V22.1719H174.234V23.2969H177.219V24.8281H174.234V26.0625C175.789 26.0391 176.922 25.9766 178.234 25.7656L178.438 27.3125C176.797 27.5938 175.438 27.6406 173.297 27.6406H172.328V20.5625H177.75ZM183.984 19.7188V28.2031H182.094V19.7188H183.984ZM181.156 19.9375V28.1094H179.266V24.7344H177.828V23.1406H179.266V19.9375H181.156ZM183.984 28.7656V33.7812H174.281V28.7656H183.984ZM176.266 30.3281V32.1875H182.016V30.3281H176.266Z" fill="#0F0F0F"/>
<path d="M197.703 30.6172C195.734 30.6172 194.586 29.0352 194.586 26.2578C194.586 23.5039 195.758 21.8984 197.703 21.8984C199.648 21.8984 200.82 23.5039 200.82 26.2578C200.82 29.0352 199.66 30.6172 197.703 30.6172ZM197.703 29.5039C198.852 29.5039 199.531 28.3789 199.531 26.2578C199.531 24.1484 198.84 22.9883 197.703 22.9883C196.566 22.9883 195.875 24.1484 195.875 26.2578C195.875 28.3789 196.555 29.5039 197.703 29.5039ZM201.969 28.8477V27.8047L205.719 22.0156H207.312V27.7578H208.473V28.8477H207.312V30.5H206.094V28.8477H201.969ZM203.328 27.7578H206.094V23.5508H206L203.328 27.6875V27.7578ZM210.289 30.582C209.832 30.582 209.445 30.207 209.457 29.75C209.445 29.293 209.832 28.918 210.289 28.918C210.734 28.918 211.121 29.293 211.121 29.75C211.121 30.207 210.734 30.582 210.289 30.582ZM218.363 30.6172C216.395 30.6172 215.246 29.0352 215.246 26.2578C215.246 23.5039 216.418 21.8984 218.363 21.8984C220.309 21.8984 221.48 23.5039 221.48 26.2578C221.48 29.0352 220.32 30.6172 218.363 30.6172ZM218.363 29.5039C219.512 29.5039 220.191 28.3789 220.191 26.2578C220.191 24.1484 219.5 22.9883 218.363 22.9883C217.227 22.9883 216.535 24.1484 216.535 26.2578C216.535 28.3789 217.215 29.5039 218.363 29.5039ZM226.039 22.0156V30.5H224.738V23.3047H224.691L222.664 24.6289V23.3984L224.773 22.0156H226.039ZM231.5 26.0352C231.887 25.6016 232.367 25.3789 232.895 25.3789C233.809 25.3789 234.617 26.0469 235.508 26.0469C236.047 26.0469 236.516 25.8125 236.879 25.3438V26.4688C236.48 26.9023 236.012 27.125 235.484 27.125C234.57 27.125 233.75 26.457 232.859 26.457C232.332 26.457 231.875 26.6914 231.5 27.1602V26.0352ZM244.637 30.6172C242.668 30.6172 241.52 29.0352 241.52 26.2578C241.52 23.5039 242.691 21.8984 244.637 21.8984C246.582 21.8984 247.754 23.5039 247.754 26.2578C247.754 29.0352 246.594 30.6172 244.637 30.6172ZM244.637 29.5039C245.785 29.5039 246.465 28.3789 246.465 26.2578C246.465 24.1484 245.773 22.9883 244.637 22.9883C243.5 22.9883 242.809 24.1484 242.809 26.2578C242.809 28.3789 243.488 29.5039 244.637 29.5039ZM248.902 28.8477V27.8047L252.652 22.0156H254.246V27.7578H255.406V28.8477H254.246V30.5H253.027V28.8477H248.902ZM250.262 27.7578H253.027V23.5508H252.934L250.262 27.6875V27.7578ZM257.223 30.582C256.766 30.582 256.379 30.207 256.391 29.75C256.379 29.293 256.766 28.918 257.223 28.918C257.668 28.918 258.055 29.293 258.055 29.75C258.055 30.207 257.668 30.582 257.223 30.582ZM265.566 22.0156V30.5H264.266V23.3047H264.219L262.191 24.6289V23.3984L264.301 22.0156H265.566ZM267.535 28.8477V27.8047L271.285 22.0156H272.879V27.7578H274.039V28.8477H272.879V30.5H271.66V28.8477H267.535ZM268.895 27.7578H271.66V23.5508H271.566L268.895 27.6875V27.7578Z" fill="#737373"/>
<mask id="path-6-inside-1_1181_2132" fill="white">
<path d="M16 57H493V81H16V57Z"/>
</mask>
<path d="M493 81V80H16V81V82H493V81Z" fill="#DCDCDC" mask="url(#path-6-inside-1_1181_2132)"/>
<path d="M36.0547 65.3828C36.0547 66.7188 36.9805 67.9961 38.5859 68.5352L38.0234 69.4023C36.834 68.9922 35.9609 68.1719 35.5039 67.1406C35.0469 68.2773 34.1387 69.168 32.9023 69.6016L32.3047 68.7344C33.9453 68.1719 34.9297 66.8242 34.9414 65.3711V65.0898H32.6328V64.1875H38.3164V65.0898H36.0547V65.3828ZM40.6367 63.4961V66.1914H42.1602V67.1289H40.6367V69.8242H39.5234V63.4961H40.6367ZM40.6367 70.3398V73.9961H39.5234V71.2422H33.6992V70.3398H40.6367ZM45.6641 63.9766C47.0469 63.9648 48.1133 64.7676 48.3477 65.9453H50.3984V63.4961H51.5117V69.1328H50.3984V66.8594H48.3594C48.1309 68.0664 47.0586 68.875 45.6641 68.875C44.0586 68.875 42.9102 67.8672 42.9102 66.4141C42.9102 64.9844 44.0586 63.9648 45.6641 63.9766ZM45.6641 64.9023C44.668 64.9023 43.9766 65.5117 43.9766 66.4141C43.9766 67.3164 44.668 67.9375 45.6641 67.9375C46.6367 67.9375 47.3281 67.3164 47.3281 66.4141C47.3281 65.5117 46.6367 64.9023 45.6641 64.9023ZM45.7695 69.6367V70.8555H50.3984V69.6367H51.5117V73.8672H44.668V69.6367H45.7695ZM45.7695 72.9531H50.3984V71.7344H45.7695V72.9531Z" fill="#9B9B9B"/>
<path d="M197.008 65.1719C197.008 66.5547 197.969 67.832 199.539 68.3477L198.941 69.2266C197.793 68.8223 196.932 68.002 196.48 66.9648C196.018 68.1426 195.127 69.0625 193.902 69.5195L193.305 68.6289C194.945 68.043 195.895 66.6484 195.906 65.0781V64.0469H197.008V65.1719ZM201.637 63.4961V66.1328H203.16V67.0703H201.637V69.8359H200.523V63.4961H201.637ZM198.25 70.082C200.406 70.082 201.73 70.7969 201.73 72.0273C201.73 73.2695 200.406 73.9844 198.25 73.9727C196.07 73.9844 194.723 73.2695 194.723 72.0273C194.723 70.7969 196.07 70.082 198.25 70.082ZM198.25 70.9609C196.727 70.9609 195.824 71.3594 195.836 72.0273C195.824 72.7188 196.727 73.0938 198.25 73.1055C199.762 73.0938 200.641 72.7188 200.641 72.0273C200.641 71.3594 199.762 70.9609 198.25 70.9609ZM208.363 64.668V65.5586H205.223V67.4336H208.188V68.3125H205.223V70.5273C206.641 70.5215 207.578 70.4629 208.691 70.2812L208.785 71.1953C207.555 71.418 206.535 71.4648 204.859 71.4648H204.156V64.668H208.363ZM212.793 63.4961V73.9961H211.727V68.5703H210.461V73.4805H209.395V63.6953H210.461V67.668H211.727V63.4961H212.793Z" fill="#9B9B9B"/>
<path d="M293.637 63.4961V65.9922H295.16V66.918H293.637V69.4258H292.523V63.4961H293.637ZM290.52 64.1875V65.0898H286.957V67.9844C289.002 67.9785 290.156 67.9023 291.469 67.6445L291.598 68.5352C290.18 68.8398 288.938 68.8867 286.688 68.8867H285.855V64.1875H290.52ZM293.637 69.9414V73.8555H286.934V69.9414H293.637ZM288.023 70.832V72.9648H292.535V70.832H288.023ZM304.02 63.4961V66.1562H305.531V67.0703H304.02V69.6953H302.895V63.4961H304.02ZM300.621 69.8945C302.766 69.8945 304.102 70.6445 304.102 71.9336C304.102 73.2227 302.766 73.9844 300.621 73.9727C298.453 73.9844 297.094 73.2227 297.094 71.9336C297.094 70.6445 298.453 69.8945 300.621 69.8945ZM300.621 70.7969C299.098 70.7852 298.184 71.207 298.195 71.9336C298.184 72.6602 299.098 73.082 300.621 73.082C302.109 73.082 303.023 72.6602 303.035 71.9336C303.023 71.207 302.109 70.7852 300.621 70.7969ZM300.891 64.2695V65.1719H297.305V68.0312C299.373 68.0254 300.539 67.9609 301.863 67.6914L301.969 68.5938C300.562 68.8867 299.309 68.9336 297.035 68.9336H296.203V64.2695H300.891ZM309.785 66.5898C309.785 68.2539 310.875 70.1055 312.469 70.8555L311.836 71.7227C310.658 71.1543 309.727 69.9707 309.258 68.5938C308.771 70.0996 307.787 71.3945 306.586 71.9922L305.93 71.1133C307.523 70.3516 308.684 68.3711 308.684 66.5898V65.4766H306.316V64.5508H312.07V65.4766H309.785V66.5898ZM314.309 63.4961V67.6562H315.996V68.5938H314.309V73.9961H313.195V63.4961H314.309Z" fill="#9B9B9B"/>
<path d="M386.117 63.4961V73.9961H384.992V63.4961H386.117ZM382.988 64.6211C382.988 67.6914 381.676 70.3633 378.078 72.0859L377.492 71.1836C380.287 69.8535 381.646 67.9609 381.863 65.5117H377.996V64.6211H382.988ZM396.008 63.5078V66.8828H397.531V67.8086H396.008V71.3594H394.895V63.5078H396.008ZM394.027 64.7266V65.6289H387.77V64.7266H390.348V63.4961H391.461V64.7266H394.027ZM390.898 66.1328C392.41 66.1328 393.441 66.918 393.441 68.1133C393.441 69.3086 392.41 70.082 390.898 70.082C389.375 70.082 388.344 69.3086 388.344 68.1133C388.344 66.918 389.375 66.1328 390.898 66.1328ZM390.898 66.9883C390.008 66.9883 389.41 67.4219 389.422 68.1133C389.41 68.793 390.008 69.2148 390.898 69.2148C391.789 69.2148 392.387 68.793 392.398 68.1133C392.387 67.4219 391.789 66.9883 390.898 66.9883ZM396.453 72.8711V73.7734H389.352V70.7383H390.465V72.8711H396.453Z" fill="#9B9B9B"/>
<mask id="path-12-inside-2_1181_2132" fill="white">
<path d="M16 81H493V121H16V81Z"/>
</mask>
<path d="M493 121V120H16V121V122H493V121Z" fill="#DCDCDC" mask="url(#path-12-inside-2_1181_2132)"/>
<path d="M42.1582 96.1562V97.4688C42.1582 99.0547 42.1582 100.777 41.707 103.389L40.3809 103.266C40.873 100.818 40.873 99.0137 40.873 97.4688V97.2227H33.6543V96.1562H42.1582ZM43.6211 104.346V105.426H32.4512V104.346H43.6211ZM55.748 100.928V101.967H50.7715V103.348H49.4863V101.967H44.5371V100.928H55.748ZM47.2852 102.678V103.922H53.0547V102.678H54.3398V107.012H46V102.678H47.2852ZM47.2852 106H53.0547V104.906H47.2852V106ZM54.3398 95.1445V98.0566H47.2578V99.082H54.5859V100.066H45.9727V97.1133H53.041V96.1426H45.9453V95.1445H54.3398ZM70.6094 94.9121V107.162H69.3652V100.777H67.8477V106.561H66.6172V95.1445H67.8477V99.7109H69.3652V94.9121H70.6094ZM65.2363 96.293V103.936H60.4785V96.293H65.2363ZM61.709 97.3184V102.896H64.0195V97.3184H61.709ZM76.7207 97.4551C76.7207 98.918 77.9238 100.285 79.8242 100.805L79.209 101.816C77.7734 101.42 76.6797 100.531 76.1055 99.3691C75.5586 100.647 74.4785 101.652 73.002 102.117L72.3594 101.092C74.2461 100.518 75.4219 99.041 75.4219 97.4551V97.3867H72.7012V96.3477H75.4219V94.9121H76.7344V96.3477H79.4277V97.3867H76.7207V97.4551ZM82.3262 94.9258V102.391H81.0273V94.9258H82.3262ZM78.2109 102.623C80.7812 102.623 82.3672 103.457 82.3672 104.879C82.3672 106.314 80.7812 107.148 78.2109 107.135C75.627 107.148 74.041 106.314 74.041 104.879C74.041 103.457 75.627 102.623 78.2109 102.623ZM78.2109 103.648C76.3926 103.648 75.3535 104.1 75.3535 104.879C75.3535 105.686 76.3926 106.137 78.2109 106.137C80.0293 106.137 81.082 105.686 81.082 104.879C81.082 104.1 80.0293 103.648 78.2109 103.648ZM98.1992 94.9121V107.162H96.9551V100.832H95.3691V106.533H94.1797V95.1582H95.3691V99.7656H96.9551V94.9121H98.1992ZM92.6895 96.3887V97.4414H89.3945V103.115C90.8984 103.102 92.0332 103.033 93.3457 102.787L93.4414 103.854C91.9648 104.154 90.707 104.209 88.916 104.223H88.0957V96.3887H92.6895ZM109.971 94.9121V107.162H108.658V94.9121H109.971ZM106.32 96.2246C106.32 99.8066 104.789 102.924 100.592 104.934L99.9082 103.881C103.169 102.329 104.755 100.121 105.008 97.2637H100.496V96.2246H106.32ZM122.221 96.1016H123.725V102.609C123.725 104.688 122.166 106.164 119.801 106.164C117.408 106.164 115.863 104.688 115.863 102.609V96.1016H117.367V102.486C117.367 103.826 118.297 104.797 119.801 104.797C121.291 104.797 122.221 103.826 122.221 102.486V96.1016ZM127.252 96.1016V106H125.748V96.1016H127.252ZM141.867 95.6777V96.7578C141.867 97.9199 141.867 99.1777 141.525 100.928H143.289V101.994H138.326V107.176H137.014V101.994H132.119V100.928H140.213C140.582 99.1846 140.582 97.8994 140.582 96.7578V96.7441H133.486V95.6777H141.867ZM154.432 94.9258V104.264H153.133V101.734H151.164V100.695H153.133V99.1777H151.164V98.1113H153.133V94.9258H154.432ZM151.123 96.3477V97.4004H144.232V96.3477H147.104V94.9121H148.389V96.3477H151.123ZM147.732 97.9883C149.387 97.9883 150.549 98.9453 150.562 100.34C150.549 101.748 149.387 102.705 147.732 102.705C146.078 102.705 144.916 101.748 144.916 100.34C144.916 98.9453 146.078 97.9883 147.732 97.9883ZM147.732 99C146.775 99.0137 146.133 99.5332 146.133 100.34C146.133 101.174 146.775 101.693 147.732 101.693C148.676 101.693 149.332 101.174 149.346 100.34C149.332 99.5332 148.676 99.0137 147.732 99ZM154.705 105.85V106.902H146.434V103.443H147.746V105.85H154.705Z" fill="#0F0F0F"/>
<rect x="193" y="89" width="68" height="24" rx="4" fill="#FFF0E2"/>
<path d="M210.996 103.746V104.684H201.387V103.746H210.996ZM210.117 96.5039V97.418H208.512V100.922H210.082V101.812H202.23V100.922H203.801V97.418H202.207V96.5039H210.117ZM204.902 100.922H207.422V97.418H204.902V100.922ZM221.355 101.426V102.34H211.746V101.426H216V100.383H212.977V97.6992H219.035V96.6797H212.953V95.8008H220.148V98.5078H214.078V99.5273H220.359V100.383H217.102V101.426H221.355ZM220.371 105.035V105.938H213V102.984H214.113V105.035H220.371ZM230.648 101.086V101.977H223.336V96.3633H230.543V97.2656H224.461V98.6836H230.32V99.5625H224.461V101.086H230.648ZM231.738 103.758V104.672H222.129V103.758H231.738ZM234.996 96.3047C236.256 96.3047 237.211 97.1543 237.387 98.4492H238.359V95.6836H239.402V103.031H238.359V99.375H237.375C237.176 100.623 236.232 101.461 234.996 101.449C233.59 101.461 232.582 100.395 232.594 98.8828C232.582 97.3477 233.59 96.3047 234.996 96.3047ZM234.996 97.2539C234.176 97.2539 233.59 97.9102 233.59 98.8828C233.59 99.8555 234.176 100.5 234.996 100.5C235.805 100.5 236.402 99.8555 236.414 98.8828C236.402 97.9102 235.805 97.2539 234.996 97.2539ZM241.453 95.4961V103.348H240.398V95.4961H241.453ZM241.758 104.871V105.773H234.492V102.328H235.594V104.871H241.758ZM251.379 100.477V101.391H244.066V96.4336H251.285V97.3477H245.168V100.477H251.379ZM252.48 103.688V104.613H242.871V103.688H252.48Z" fill="#E56612"/>
<path d="M295 109.333C299.603 109.333 303.334 105.602 303.334 101C303.334 96.3976 299.603 92.6666 295 92.6666C290.398 92.6666 286.667 96.3976 286.667 101C286.667 105.602 290.398 109.333 295 109.333Z" fill="#9B9B9B" stroke="#9B9B9B" stroke-width="1.25" stroke-linecap="round" stroke-linejoin="round"/>
<path d="M295.1 101.65C295.042 101.642 294.967 101.642 294.9 101.65C293.433 101.6 292.267 100.4 292.267 98.925C292.267 97.4167 293.483 96.1917 295 96.1917C296.508 96.1917 297.733 97.4167 297.733 98.925C297.725 100.4 296.567 101.6 295.1 101.65Z" fill="white" stroke="white" stroke-width="1.25" stroke-linecap="round" stroke-linejoin="round"/>
<path d="M300.616 107.15C299.133 108.508 297.166 109.333 294.999 109.333C292.833 109.333 290.866 108.508 289.383 107.15C289.466 106.367 289.966 105.6 290.858 105C293.141 103.483 296.874 103.483 299.141 105C300.033 105.6 300.533 106.367 300.616 107.15Z" fill="white" stroke="white" stroke-width="1.25" stroke-linecap="round" stroke-linejoin="round"/>
<path d="M295 109.333C299.603 109.333 303.334 105.602 303.334 101C303.334 96.3976 299.603 92.6666 295 92.6666C290.398 92.6666 286.667 96.3976 286.667 101C286.667 105.602 290.398 109.333 295 109.333Z" stroke="#9B9B9B" stroke-width="1.25" stroke-linecap="round" stroke-linejoin="round"/>
<path d="M314.941 96.1523C314.941 98.8477 313.031 100.734 309.926 101.555L309.48 100.676C312.012 100.02 313.547 98.707 313.746 97.043H310.066V96.1523H314.941ZM318.094 95.5078V101.414H316.98V95.5078H318.094ZM318.094 101.883V105.855H311.215V101.883H318.094ZM312.316 102.773V104.965H317.004V102.773H312.316ZM325.641 96.2578V97.1602H324.633V100.336C325.078 100.301 325.506 100.26 325.922 100.207L325.969 101.051C323.953 101.367 321.598 101.402 319.91 101.402L319.77 100.477L321.047 100.465V97.1602H320.062V96.2578H325.641ZM328.512 95.4961V101.953H327.398V100.125H325.793V99.2344H327.398V98.2148H325.793V97.3242H327.398V95.4961H328.512ZM324.996 102.152C327.211 102.152 328.547 102.844 328.547 104.074C328.547 105.27 327.211 105.984 324.996 105.973C322.781 105.984 321.434 105.27 321.445 104.074C321.434 102.844 322.781 102.152 324.996 102.152ZM324.996 103.02C323.449 103.02 322.547 103.395 322.547 104.074C322.547 104.742 323.449 105.117 324.996 105.117C326.531 105.117 327.445 104.742 327.445 104.074C327.445 103.395 326.531 103.02 324.996 103.02ZM322.125 100.453C322.6 100.441 323.08 100.424 323.566 100.395V97.1602H322.125V100.453ZM339.703 101.414V102.316H335.438V105.984H334.348V102.316H330.129V101.414H339.703ZM338.801 96.1172V97.0078H335.555C335.572 98.3086 337.189 99.4688 339.176 99.7383L338.766 100.617C337.043 100.348 335.555 99.498 334.922 98.2969C334.271 99.498 332.789 100.348 331.09 100.617L330.668 99.7383C332.631 99.4688 334.248 98.3086 334.289 97.0078H331.02V96.1172H338.801Z" fill="#1C1C1C"/>
<path d="M381.17 106.137C378.969 106.137 377.711 104.291 377.711 101.051C377.711 97.8379 378.996 95.9648 381.17 95.9648C383.344 95.9648 384.629 97.8379 384.629 101.051C384.629 104.291 383.357 106.137 381.17 106.137ZM381.17 105.043C382.592 105.043 383.426 103.607 383.426 101.051C383.426 98.4941 382.592 97.0312 381.17 97.0312C379.748 97.0312 378.9 98.4941 378.9 101.051C378.9 103.607 379.734 105.043 381.17 105.043ZM386.023 103.977V102.965L390.48 96.1016H391.998V102.896H393.379V103.977H391.998V106H390.822V103.977H386.023ZM387.35 102.896H390.822V97.6602H390.699L387.35 102.814V102.896ZM398.547 95.6367L395.348 107.49H394.281L397.467 95.6367H398.547ZM402.922 106.137C400.721 106.137 399.463 104.291 399.463 101.051C399.463 97.8379 400.748 95.9648 402.922 95.9648C405.096 95.9648 406.381 97.8379 406.381 101.051C406.381 104.291 405.109 106.137 402.922 106.137ZM402.922 105.043C404.344 105.043 405.178 103.607 405.178 101.051C405.178 98.4941 404.344 97.0312 402.922 97.0312C401.5 97.0312 400.652 98.4941 400.652 101.051C400.652 103.607 401.486 105.043 402.922 105.043ZM411.521 96.1016V106H410.277V97.3867H410.223L407.816 98.9863V97.7422L410.277 96.1016H411.521ZM418.07 100.9C418.508 100.395 419.055 100.121 419.656 100.121C420.695 100.121 421.639 100.914 422.637 100.914C423.252 100.914 423.785 100.613 424.195 100.053V101.188C423.744 101.707 423.211 101.967 422.609 101.967C421.57 101.967 420.627 101.174 419.615 101.174C419.014 101.174 418.48 101.475 418.07 102.035V100.9ZM433.205 106.137C431.004 106.137 429.746 104.291 429.746 101.051C429.746 97.8379 431.031 95.9648 433.205 95.9648C435.379 95.9648 436.664 97.8379 436.664 101.051C436.664 104.291 435.393 106.137 433.205 106.137ZM433.205 105.043C434.627 105.043 435.461 103.607 435.461 101.051C435.461 98.4941 434.627 97.0312 433.205 97.0312C431.783 97.0312 430.936 98.4941 430.936 101.051C430.936 103.607 431.77 105.043 433.205 105.043ZM438.059 103.977V102.965L442.516 96.1016H444.033V102.896H445.414V103.977H444.033V106H442.857V103.977H438.059ZM439.385 102.896H442.857V97.6602H442.734L439.385 102.814V102.896ZM450.582 95.6367L447.383 107.49H446.316L449.502 95.6367H450.582ZM455.217 96.1016V106H453.973V97.3867H453.918L451.512 98.9863V97.7422L453.973 96.1016H455.217ZM457.609 103.977V102.965L462.066 96.1016H463.584V102.896H464.965V103.977H463.584V106H462.408V103.977H457.609ZM458.936 102.896H462.408V97.6602H462.285L458.936 102.814V102.896Z" fill="#0F0F0F"/>
<mask id="path-23-inside-3_1181_2132" fill="white">
<path d="M16 121H493V161H16V121Z"/>
</mask>
<path d="M493 161V160H16V161V162H493V161Z" fill="#DCDCDC" mask="url(#path-23-inside-3_1181_2132)"/>
<path d="M42.1582 136.156V137.469C42.1582 139.055 42.1582 140.777 41.707 143.389L40.3809 143.266C40.873 140.818 40.873 139.014 40.873 137.469V137.223H33.6543V136.156H42.1582ZM43.6211 144.346V145.426H32.4512V144.346H43.6211ZM55.748 140.928V141.967H50.7715V143.348H49.4863V141.967H44.5371V140.928H55.748ZM47.2852 142.678V143.922H53.0547V142.678H54.3398V147.012H46V142.678H47.2852ZM47.2852 146H53.0547V144.906H47.2852V146ZM54.3398 135.145V138.057H47.2578V139.082H54.5859V140.066H45.9727V137.113H53.041V136.143H45.9453V135.145H54.3398ZM70.6094 134.912V147.162H69.3652V140.777H67.8477V146.561H66.6172V135.145H67.8477V139.711H69.3652V134.912H70.6094ZM65.2363 136.293V143.936H60.4785V136.293H65.2363ZM61.709 137.318V142.896H64.0195V137.318H61.709ZM76.7207 137.455C76.7207 138.918 77.9238 140.285 79.8242 140.805L79.209 141.816C77.7734 141.42 76.6797 140.531 76.1055 139.369C75.5586 140.647 74.4785 141.652 73.002 142.117L72.3594 141.092C74.2461 140.518 75.4219 139.041 75.4219 137.455V137.387H72.7012V136.348H75.4219V134.912H76.7344V136.348H79.4277V137.387H76.7207V137.455ZM82.3262 134.926V142.391H81.0273V134.926H82.3262ZM78.2109 142.623C80.7812 142.623 82.3672 143.457 82.3672 144.879C82.3672 146.314 80.7812 147.148 78.2109 147.135C75.627 147.148 74.041 146.314 74.041 144.879C74.041 143.457 75.627 142.623 78.2109 142.623ZM78.2109 143.648C76.3926 143.648 75.3535 144.1 75.3535 144.879C75.3535 145.686 76.3926 146.137 78.2109 146.137C80.0293 146.137 81.082 145.686 81.082 144.879C81.082 144.1 80.0293 143.648 78.2109 143.648ZM93.9609 135.992C93.9473 137.619 95.9434 139.15 98.3496 139.465L97.8438 140.531C95.8408 140.21 94.0771 139.171 93.291 137.729C92.4844 139.178 90.7275 140.21 88.7383 140.531L88.2188 139.465C90.625 139.15 92.5938 137.633 92.6074 135.992V135.322H93.9609V135.992ZM98.8555 141.734V142.801H93.8789V147.162H92.6074V142.801H87.6855V141.734H98.8555ZM105.855 135.637V139.137H101.59V140.709C103.716 140.702 105.22 140.627 107.004 140.326L107.141 141.379C105.24 141.707 103.627 141.775 101.275 141.775H100.291V138.125H104.584V136.689H100.277V135.637H105.855ZM109.41 134.926V137.988H111.201V139.068H109.41V142.363H108.111V134.926H109.41ZM109.41 142.979V147.148H108.111V144.031H101.316V142.979H109.41ZM116.711 146H115.111L118.666 136.102H120.402L123.971 146H122.371L121.469 143.389H117.613L116.711 146ZM118.051 142.131H121.031L119.568 137.906H119.5L118.051 142.131ZM125.229 146V136.102H128.756C131.053 136.102 132.188 137.482 132.188 139.314C132.188 141.133 131.053 142.527 128.756 142.527H126.732V146H125.229ZM126.732 141.242H128.605C130.068 141.242 130.67 140.422 130.67 139.314C130.67 138.193 130.068 137.387 128.605 137.387H126.732V141.242ZM135.277 136.102V146H133.773V136.102H135.277ZM149.893 135.678V136.758C149.893 137.92 149.893 139.178 149.551 140.928H151.314V141.994H146.352V147.176H145.039V141.994H140.145V140.928H148.238C148.607 139.185 148.607 137.899 148.607 136.758V136.744H141.512V135.678H149.893ZM162.457 134.926V144.264H161.158V141.734H159.189V140.695H161.158V139.178H159.189V138.111H161.158V134.926H162.457ZM159.148 136.348V137.4H152.258V136.348H155.129V134.912H156.414V136.348H159.148ZM155.758 137.988C157.412 137.988 158.574 138.945 158.588 140.34C158.574 141.748 157.412 142.705 155.758 142.705C154.104 142.705 152.941 141.748 152.941 140.34C152.941 138.945 154.104 137.988 155.758 137.988ZM155.758 139C154.801 139.014 154.158 139.533 154.158 140.34C154.158 141.174 154.801 141.693 155.758 141.693C156.701 141.693 157.357 141.174 157.371 140.34C157.357 139.533 156.701 139.014 155.758 139ZM162.73 145.85V146.902H154.459V143.443H155.771V145.85H162.73Z" fill="#0F0F0F"/>
<rect x="193" y="129" width="48" height="24" rx="4" fill="#E2F7FF"/>
<path d="M202.887 136.164V137.77H204.914V136.164H205.945V141.121H201.832V136.164H202.887ZM202.887 140.219H204.914V138.637H202.887V140.219ZM210.34 135.508V141.812H209.285V139.094H208.055V141.742H207.023V135.695H208.055V138.18H209.285V135.508H210.34ZM210.34 142.398V145.996H209.238V143.301H203.203V142.398H210.34ZM214.254 136.305C215.514 136.305 216.469 137.154 216.645 138.449H217.617V135.684H218.66V143.031H217.617V139.375H216.633C216.434 140.623 215.49 141.461 214.254 141.449C212.848 141.461 211.84 140.395 211.852 138.883C211.84 137.348 212.848 136.305 214.254 136.305ZM214.254 137.254C213.434 137.254 212.848 137.91 212.848 138.883C212.848 139.855 213.434 140.5 214.254 140.5C215.062 140.5 215.66 139.855 215.672 138.883C215.66 137.91 215.062 137.254 214.254 137.254ZM220.711 135.496V143.348H219.656V135.496H220.711ZM221.016 144.871V145.773H213.75V142.328H214.852V144.871H221.016ZM230.637 140.477V141.391H223.324V136.434H230.543V137.348H224.426V140.477H230.637ZM231.738 143.688V144.613H222.129V143.688H231.738Z" fill="#1783C8"/>
<path d="M295 149.333C299.603 149.333 303.334 145.602 303.334 141C303.334 136.398 299.603 132.667 295 132.667C290.398 132.667 286.667 136.398 286.667 141C286.667 145.602 290.398 149.333 295 149.333Z" fill="#9B9B9B" stroke="#9B9B9B" stroke-width="1.25" stroke-linecap="round" stroke-linejoin="round"/>
<path d="M295.1 141.65C295.042 141.642 294.967 141.642 294.9 141.65C293.433 141.6 292.267 140.4 292.267 138.925C292.267 137.417 293.483 136.192 295 136.192C296.508 136.192 297.733 137.417 297.733 138.925C297.725 140.4 296.567 141.6 295.1 141.65Z" fill="white" stroke="white" stroke-width="1.25" stroke-linecap="round" stroke-linejoin="round"/>
<path d="M300.616 147.15C299.133 148.508 297.166 149.333 294.999 149.333C292.833 149.333 290.866 148.508 289.383 147.15C289.466 146.367 289.966 145.6 290.858 145C293.141 143.483 296.874 143.483 299.141 145C300.033 145.6 300.533 146.367 300.616 147.15Z" fill="white" stroke="white" stroke-width="1.25" stroke-linecap="round" stroke-linejoin="round"/>
<path d="M295 149.333C299.603 149.333 303.334 145.602 303.334 141C303.334 136.398 299.603 132.667 295 132.667C290.398 132.667 286.667 136.398 286.667 141C286.667 145.602 290.398 149.333 295 149.333Z" stroke="#9B9B9B" stroke-width="1.25" stroke-linecap="round" stroke-linejoin="round"/>
<path d="M318.996 143.77V144.684H309.387V143.77H313.629V141.285H314.742V143.77H318.996ZM314.754 137.406C314.754 139.012 316.57 140.441 318.574 140.758L318.129 141.637C316.436 141.314 314.871 140.33 314.191 138.953C313.506 140.348 311.953 141.361 310.289 141.684L309.832 140.805C311.789 140.477 313.594 139.012 313.594 137.406V137.312H310.184V136.398H318.164V137.312H314.754V137.406ZM323.484 137.066C323.484 138.543 324.434 139.855 326.027 140.371L325.418 141.238C324.264 140.822 323.414 140.014 322.957 138.965C322.5 140.166 321.586 141.098 320.32 141.555L319.723 140.664C321.398 140.09 322.371 138.695 322.383 137.113V136.082H323.484V137.066ZM328.512 135.496V141.695H327.398V138.543H325.184V137.629H327.398V135.496H328.512ZM324.996 141.988C327.199 141.988 328.547 142.715 328.547 143.992C328.547 145.258 327.199 145.984 324.996 145.973C322.793 145.984 321.434 145.258 321.445 143.992C321.434 142.715 322.793 141.988 324.996 141.988ZM324.996 142.855C323.461 142.855 322.547 143.266 322.547 143.992C322.547 144.695 323.461 145.094 324.996 145.094C326.531 145.094 327.445 144.695 327.445 143.992C327.445 143.266 326.531 142.855 324.996 142.855ZM338.883 135.508V143.242H337.77V140.512H335.168C334.67 141.104 333.908 141.461 333.035 141.461C331.453 141.461 330.281 140.359 330.281 138.812C330.281 137.254 331.453 136.152 333.035 136.141C333.902 136.146 334.658 136.504 335.156 137.09H337.77V135.508H338.883ZM339.164 144.871V145.773H332.062V142.434H333.176V144.871H339.164ZM333.035 137.137C332.051 137.137 331.348 137.816 331.348 138.812C331.348 139.809 332.051 140.477 333.035 140.477C333.984 140.477 334.699 139.809 334.699 138.812C334.699 137.816 333.984 137.137 333.035 137.137ZM335.648 137.992C335.719 138.244 335.766 138.52 335.766 138.812C335.766 139.094 335.725 139.363 335.648 139.609H337.77V137.992H335.648Z" fill="#1C1C1C"/>
<path d="M381.17 146.137C378.969 146.137 377.711 144.291 377.711 141.051C377.711 137.838 378.996 135.965 381.17 135.965C383.344 135.965 384.629 137.838 384.629 141.051C384.629 144.291 383.357 146.137 381.17 146.137ZM381.17 145.043C382.592 145.043 383.426 143.607 383.426 141.051C383.426 138.494 382.592 137.031 381.17 137.031C379.748 137.031 378.9 138.494 378.9 141.051C378.9 143.607 379.734 145.043 381.17 145.043ZM386.023 143.977V142.965L390.48 136.102H391.998V142.896H393.379V143.977H391.998V146H390.822V143.977H386.023ZM387.35 142.896H390.822V137.66H390.699L387.35 142.814V142.896ZM398.547 135.637L395.348 147.49H394.281L397.467 135.637H398.547ZM402.922 146.137C400.721 146.137 399.463 144.291 399.463 141.051C399.463 137.838 400.748 135.965 402.922 135.965C405.096 135.965 406.381 137.838 406.381 141.051C406.381 144.291 405.109 146.137 402.922 146.137ZM402.922 145.043C404.344 145.043 405.178 143.607 405.178 141.051C405.178 138.494 404.344 137.031 402.922 137.031C401.5 137.031 400.652 138.494 400.652 141.051C400.652 143.607 401.486 145.043 402.922 145.043ZM411.521 136.102V146H410.277V137.387H410.223L407.816 138.986V137.742L410.277 136.102H411.521ZM418.07 140.9C418.508 140.395 419.055 140.121 419.656 140.121C420.695 140.121 421.639 140.914 422.637 140.914C423.252 140.914 423.785 140.613 424.195 140.053V141.188C423.744 141.707 423.211 141.967 422.609 141.967C421.57 141.967 420.627 141.174 419.615 141.174C419.014 141.174 418.48 141.475 418.07 142.035V140.9ZM433.205 146.137C431.004 146.137 429.746 144.291 429.746 141.051C429.746 137.838 431.031 135.965 433.205 135.965C435.379 135.965 436.664 137.838 436.664 141.051C436.664 144.291 435.393 146.137 433.205 146.137ZM433.205 145.043C434.627 145.043 435.461 143.607 435.461 141.051C435.461 138.494 434.627 137.031 433.205 137.031C431.783 137.031 430.936 138.494 430.936 141.051C430.936 143.607 431.77 145.043 433.205 145.043ZM438.059 143.977V142.965L442.516 136.102H444.033V142.896H445.414V143.977H444.033V146H442.857V143.977H438.059ZM439.385 142.896H442.857V137.66H442.734L439.385 142.814V142.896ZM450.582 135.637L447.383 147.49H446.316L449.502 135.637H450.582ZM455.217 136.102V146H453.973V137.387H453.918L451.512 138.986V137.742L453.973 136.102H455.217ZM457.609 143.977V142.965L462.066 136.102H463.584V142.896H464.965V143.977H463.584V146H462.408V143.977H457.609ZM458.936 142.896H462.408V137.66H462.285L458.936 142.814V142.896Z" fill="#0F0F0F"/>
</svg>
