<?xml version="1.0" encoding="UTF-8"?>
<svg width="736" height="128" viewBox="0 0 736 128" fill="none" xmlns="http://www.w3.org/2000/svg">
<path d="M0 25.6C0 16.6392 0 12.1587 1.7439 8.73615C3.27787 5.72556 5.72556 3.27787 8.73615 1.7439C12.1587 0 16.6392 0 25.6 0H38.4C47.3608 0 51.8413 0 55.2638 1.7439C58.2744 3.27787 60.7221 5.72556 62.2561 8.73615C64 12.1587 64 16.6392 64 25.6V64H25.6C16.6392 64 12.1587 64 8.73615 62.2561C5.72556 60.7221 3.27787 58.2744 1.7439 55.2638C0 51.8413 0 47.3608 0 38.4V25.6Z" fill="#3E2723"/>
<path d="M64 64H102.4C111.361 64 115.841 64 119.264 65.7439C122.274 67.2779 124.722 69.7256 126.256 72.7362C128 76.1587 128 80.6392 128 89.6V102.4C128 111.361 128 115.841 126.256 119.264C124.722 122.274 122.274 124.722 119.264 126.256C115.841 128 111.361 128 102.4 128H89.6C80.6392 128 76.1587 128 72.7362 126.256C69.7256 124.722 67.2779 122.274 65.7439 119.264C64 115.841 64 111.361 64 102.4V64Z" fill="#D6CAC6"/>
<path d="M735.892 74.9334C735.892 75.1521 735.782 76.6828 735.564 79.5254H693.361C694.163 83.1699 695.948 86.049 698.718 88.1628C701.561 90.2765 705.096 91.3334 709.324 91.3334C712.239 91.3334 714.79 90.8961 716.977 90.0214C719.236 89.0739 721.35 87.6161 723.318 85.6481L731.956 95.4881C726.635 101.829 718.945 105 708.886 105C702.545 105 696.932 103.725 692.049 101.173C687.238 98.5494 683.521 94.9414 680.897 90.3494C678.273 85.7574 676.961 80.5459 676.961 74.7148C676.961 68.9565 678.236 63.7814 680.788 59.1894C683.412 54.5245 686.983 50.9166 691.502 48.3654C696.094 45.7414 701.196 44.4294 706.809 44.4294C712.276 44.4294 717.196 45.6686 721.569 48.1468C726.015 50.625 729.514 54.1966 732.065 58.8614C734.616 63.4534 735.892 68.8108 735.892 74.9334ZM706.918 57.3308C703.274 57.3308 700.176 58.4241 697.625 60.6108C695.147 62.7974 693.652 65.7859 693.142 69.5761H720.585C720.002 65.8588 718.471 62.9068 715.993 60.7201C713.588 58.4605 710.563 57.3308 706.918 57.3308Z" fill="black"/>
<path d="M676.45 101.283C674.846 102.522 672.878 103.469 670.546 104.125C668.286 104.708 665.844 105 663.22 105C656.588 105 651.449 103.214 647.804 99.6425C644.16 96.071 642.338 90.823 642.338 83.8985V59.7359H633.81V46.6159H642.338V32.2932H658.628V46.6159H672.514V59.7359H658.628V83.6799C658.628 86.1581 659.212 88.0896 660.378 89.4745C661.617 90.7865 663.33 91.4425 665.516 91.4425C668.068 91.4425 670.254 90.7136 672.076 89.2558L676.45 101.283Z" fill="black"/>
<path d="M601.119 44.4294C609.793 44.4294 616.426 46.6161 621.018 50.9894C625.683 55.2899 628.015 61.8134 628.015 70.5601V104.125H612.818V96.8001C609.684 102.267 603.998 105 595.762 105C591.461 105 587.744 104.235 584.61 102.704C581.476 101.173 579.07 99.0596 577.394 96.3627C575.717 93.6659 574.879 90.6045 574.879 87.1787C574.879 81.7121 576.847 77.4116 580.783 74.2774C584.719 71.1432 590.769 69.5761 598.932 69.5761H611.724C611.724 66.9521 611.287 64.9112 610.412 63.4534C608.444 59.809 604.618 57.9868 598.932 57.9868C595.944 57.9868 592.992 58.497 590.076 59.5174C587.234 60.465 584.792 61.777 582.751 63.4534L576.956 51.5361C579.945 49.2766 583.589 47.5272 587.89 46.2881C592.19 45.049 596.6 44.4294 601.119 44.4294ZM599.807 93.5201C602.65 93.5201 605.128 92.8641 607.242 91.5521C609.356 90.1672 610.85 88.1628 611.724 85.5388V79.5254H600.682C594.049 79.5254 590.732 81.8214 590.732 86.4134C590.732 88.6001 591.534 90.3494 593.138 91.6614C594.741 92.9005 596.964 93.5201 599.807 93.5201Z" fill="black"/>
<path d="M545.454 44.4294C552.451 44.4294 557.991 46.6161 562.073 50.9894C566.227 55.2899 568.305 61.777 568.305 70.4508V104.125H552.123V73.0748C552.123 68.4099 551.176 64.9477 549.281 62.6881C547.458 60.3557 544.871 59.1894 541.518 59.1894C537.728 59.1894 534.703 60.5014 532.443 63.1254C530.257 65.6765 529.163 69.5032 529.163 74.6054V104.125H512.982V73.0748C512.982 68.4099 512.071 64.9477 510.249 62.6881C508.426 60.3557 505.802 59.1894 502.377 59.1894C498.659 59.1894 495.671 60.5014 493.411 63.1254C491.225 65.6765 490.131 69.5032 490.131 74.6054V104.125H473.841V45.3041H489.366V52.0828C491.407 49.6046 493.921 47.7094 496.91 46.3974C499.971 45.0854 503.324 44.4294 506.969 44.4294C510.905 44.4294 514.44 45.2677 517.574 46.9441C520.781 48.5477 523.369 50.9165 525.337 54.0508C527.596 50.9894 530.475 48.6205 533.974 46.9441C537.473 45.2677 541.299 44.4294 545.454 44.4294Z" fill="black"/>
<path d="M423.731 89.1464V104.125H407.44V22.9998H423.731V68.9197L447.347 45.3037H466.699L443.411 70.2317L468.776 104.125H449.096L431.494 81.0557L423.731 89.1464Z" fill="black"/>
<path d="M375.252 105C369.275 105 363.918 103.725 359.18 101.173C354.442 98.5494 350.725 94.9414 348.028 90.3494C345.404 85.7574 344.092 80.5459 344.092 74.7148C344.092 68.8837 345.404 63.6721 348.028 59.0801C350.725 54.4881 354.442 50.9166 359.18 48.3654C363.918 45.7414 369.275 44.4294 375.252 44.4294C381.156 44.4294 386.294 45.7414 390.668 48.3654C395.041 50.9166 398.248 54.5974 400.289 59.4081L387.716 66.5148C384.873 61.121 380.682 58.4241 375.142 58.4241C370.915 58.4241 367.416 59.8819 364.646 62.7974C361.95 65.713 360.601 69.6854 360.601 74.7148C360.601 79.7441 361.95 83.7165 364.646 86.6321C367.416 89.5476 370.915 91.0054 375.142 91.0054C380.755 91.0054 384.946 88.3085 387.716 82.9148L400.289 90.1307C398.248 94.8685 395.041 98.5494 390.668 101.173C386.294 103.725 381.156 105 375.252 105Z" fill="black"/>
<path d="M339.696 74.9334C339.696 75.1521 339.587 76.6828 339.368 79.5254H297.166C297.967 83.1699 299.753 86.049 302.523 88.1628C305.366 90.2765 308.901 91.3334 313.128 91.3334C316.044 91.3334 318.595 90.8961 320.782 90.0214C323.041 89.0739 325.155 87.6161 327.123 85.6481L335.76 95.4881C330.439 101.829 322.75 105 312.691 105C306.35 105 300.737 103.725 295.854 101.173C291.043 98.5494 287.326 94.9414 284.702 90.3494C282.078 85.7574 280.766 80.5459 280.766 74.7148C280.766 68.9565 282.041 63.7814 284.592 59.1894C287.216 54.5245 290.788 50.9166 295.307 48.3654C299.899 45.7414 305.001 44.4294 310.614 44.4294C316.08 44.4294 321 45.6686 325.374 48.1468C329.82 50.625 333.318 54.1966 335.87 58.8614C338.421 63.4534 339.696 68.8108 339.696 74.9334ZM310.723 57.3308C307.078 57.3308 303.981 58.4241 301.43 60.6108C298.951 62.7974 297.457 65.7859 296.947 69.5761H324.39C323.806 65.8588 322.276 62.9068 319.798 60.7201C317.392 58.4605 314.367 57.3308 310.723 57.3308Z" fill="black"/>
<path d="M249.351 44.4291C256.348 44.4291 261.961 46.6157 266.188 50.9891C270.416 55.3624 272.53 61.8495 272.53 70.4504V104.125H256.348V73.0744C256.348 68.4095 255.364 64.9473 253.396 62.6877C251.428 60.3553 248.622 59.1891 244.978 59.1891C240.896 59.1891 237.652 60.5375 235.247 63.2344C232.842 65.8584 231.639 69.7944 231.639 75.0424V104.125H215.348V22.9998H231.639V51.4264C233.826 49.1669 236.413 47.454 239.402 46.2877C242.463 45.0486 245.779 44.4291 249.351 44.4291Z" fill="black"/>
<path d="M183.16 105C177.183 105 171.826 103.725 167.088 101.173C162.35 98.5494 158.633 94.9414 155.936 90.3494C153.312 85.7574 152 80.5459 152 74.7148C152 68.8837 153.312 63.6721 155.936 59.0801C158.633 54.4881 162.35 50.9166 167.088 48.3654C171.826 45.7414 177.183 44.4294 183.16 44.4294C189.064 44.4294 194.203 45.7414 198.576 48.3654C202.949 50.9166 206.156 54.5974 208.197 59.4081L195.624 66.5148C192.781 61.121 188.59 58.4241 183.051 58.4241C178.823 58.4241 175.324 59.8819 172.555 62.7974C169.858 65.713 168.509 69.6854 168.509 74.7148C168.509 79.7441 169.858 83.7165 172.555 86.6321C175.324 89.5476 178.823 91.0054 183.051 91.0054C188.663 91.0054 192.854 88.3085 195.624 82.9148L208.197 90.1307C206.156 94.8685 202.949 98.5494 198.576 101.173C194.203 103.725 189.064 105 183.16 105Z" fill="black"/>
</svg> 